<?xml version="1.0" encoding="UTF-8" standalone="no"?>
<svg width="341px" height="348px" viewBox="0 0 341 348" version="1.1" xmlns="http://www.w3.org/2000/svg" xmlns:xlink="http://www.w3.org/1999/xlink" xmlns:sketch="http://www.bohemiancoding.com/sketch/ns">
    <!-- Generator: Sketch 3.5.2 (25235) - http://www.bohemiancoding.com/sketch -->
    <title>Party Card</title>
    <desc>Created with Sketch.</desc>
    <defs>
        <rect id="path-1" x="0" y="0" width="341" height="348"></rect>
    </defs>
    <g id="Page-1" stroke="none" stroke-width="1" fill="none" fill-rule="evenodd" sketch:type="MSPage">
        <g id="Account-Deatils-Group-Code" sketch:type="MSArtboardGroup" transform="translate(-885.000000, -755.000000)">
            <g id="Form" sketch:type="MSLayerGroup" transform="translate(885.000000, 755.000000)">
                <g id="Party-Card">
                    <mask id="mask-2" sketch:name="Mask" fill="white">
                        <use xlink:href="#path-1"></use>
                    </mask>
                    <use id="Mask" fill="#F0F0F0" sketch:type="MSShapeGroup" xlink:href="#path-1"></use>
                    <g id="Group-2" mask="url(#mask-2)">
                        <g transform="translate(219.000000, -37.000000)">
                            <g id="Group" stroke-width="1" fill="none" sketch:type="MSLayerGroup" transform="translate(3.186916, 5.415280)">
                                <rect id="Rectangle-246" fill="#FFFFFF" sketch:type="MSShapeGroup" transform="translate(64.136682, 75.427116) rotate(-325.000000) translate(-64.136682, -75.427116) " x="54.9742991" y="73.4930876" width="18.3247664" height="3.86805724"></rect>
                                <rect id="Rectangle-246-Copy" fill="#FFFFFF" sketch:type="MSShapeGroup" transform="translate(94.694576, 58.519071) rotate(-33.000000) translate(-94.694576, -58.519071) " x="85.5321931" y="56.5850428" width="18.3247664" height="3.86805724"></rect>
                                <rect id="Rectangle-246-Copy-2" fill="#FFFFFF" sketch:type="MSShapeGroup" transform="translate(111.547083, 99.300785) rotate(-33.000000) translate(-111.547083, -99.300785) " x="102.3847" y="97.3667564" width="18.3247664" height="3.86805724"></rect>
                                <rect id="Rectangle-246-Copy-4" fill="#FFFFFF" sketch:type="MSShapeGroup" transform="translate(22.313438, 99.300785) rotate(-33.000000) translate(-22.313438, -99.300785) " x="13.1510547" y="97.3667564" width="18.3247664" height="3.86805724"></rect>
                                <ellipse id="Oval-16" fill="#FFFFFF" sketch:type="MSShapeGroup" cx="3.98364486" cy="81.229202" rx="3.98364486" ry="3.86805724"></ellipse>
                                <ellipse id="Oval-16-Copy-8" fill="#FFFFFF" sketch:type="MSShapeGroup" cx="3.98364486" cy="38.6805724" rx="3.98364486" ry="3.86805724"></ellipse>
                                <ellipse id="Oval-16-Copy-2" fill="#FFFFFF" sketch:type="MSShapeGroup" cx="111.542056" cy="73.4930876" rx="3.98364486" ry="3.86805724"></ellipse>
                                <ellipse id="Oval-16-Copy-3" fill="#FFFFFF" sketch:type="MSShapeGroup" cx="69.3154206" cy="99.0222653" rx="3.98364486" ry="3.86805724"></ellipse>
                                <ellipse id="Oval-16-Copy-6" fill="#FFFFFF" sketch:type="MSShapeGroup" cx="69.3154206" cy="42.5486296" rx="3.98364486" ry="3.86805724"></ellipse>
                            </g>
                            <g id="Group-Copy-6" stroke-width="1" fill="none" sketch:type="MSLayerGroup" transform="translate(0.000000, 128.419500)">
                                <rect id="Rectangle-246" fill="#FFFFFF" sketch:type="MSShapeGroup" transform="translate(64.136682, 75.427116) rotate(-325.000000) translate(-64.136682, -75.427116) " x="54.9742991" y="73.4930876" width="18.3247664" height="3.86805724"></rect>
                                <rect id="Rectangle-246-Copy" fill="#FFFFFF" sketch:type="MSShapeGroup" transform="translate(94.694576, 58.519071) rotate(-33.000000) translate(-94.694576, -58.519071) " x="85.5321931" y="56.5850428" width="18.3247664" height="3.86805724"></rect>
                                <rect id="Rectangle-246-Copy-2" fill="#FFFFFF" sketch:type="MSShapeGroup" transform="translate(111.547083, 99.300785) rotate(-33.000000) translate(-111.547083, -99.300785) " x="102.3847" y="97.3667564" width="18.3247664" height="3.86805724"></rect>
                                <rect id="Rectangle-246-Copy-3" fill="#FFFFFF" sketch:type="MSShapeGroup" transform="translate(33.467643, 21.166029) rotate(-33.000000) translate(-33.467643, -21.166029) " x="24.3052603" y="19.2320002" width="18.3247664" height="3.86805724"></rect>
                                <rect id="Rectangle-246-Copy-4" fill="#FFFFFF" sketch:type="MSShapeGroup" transform="translate(22.313438, 99.300785) rotate(-33.000000) translate(-22.313438, -99.300785) " x="13.1510547" y="97.3667564" width="18.3247664" height="3.86805724"></rect>
                                <ellipse id="Oval-16" fill="#FFFFFF" sketch:type="MSShapeGroup" cx="3.98364486" cy="81.229202" rx="3.98364486" ry="3.86805724"></ellipse>
                                <ellipse id="Oval-16-Copy-8" fill="#FFFFFF" sketch:type="MSShapeGroup" cx="3.98364486" cy="38.6805724" rx="3.98364486" ry="3.86805724"></ellipse>
                                <ellipse id="Oval-16-Copy-2" fill="#FFFFFF" sketch:type="MSShapeGroup" cx="111.542056" cy="73.4930876" rx="3.98364486" ry="3.86805724"></ellipse>
                                <ellipse id="Oval-16-Copy-3" fill="#FFFFFF" sketch:type="MSShapeGroup" cx="69.3154206" cy="99.0222653" rx="3.98364486" ry="3.86805724"></ellipse>
                                <ellipse id="Oval-16-Copy-4" fill="#FFFFFF" sketch:type="MSShapeGroup" cx="65.3317757" cy="10.8305603" rx="3.98364486" ry="3.86805724"></ellipse>
                                <ellipse id="Oval-16-Copy-5" fill="#FFFFFF" sketch:type="MSShapeGroup" cx="9.56074766" cy="3.86805724" rx="3.98364486" ry="3.86805724"></ellipse>
                                <ellipse id="Oval-16-Copy-6" fill="#FFFFFF" sketch:type="MSShapeGroup" cx="69.3154206" cy="42.5486296" rx="3.98364486" ry="3.86805724"></ellipse>
                                <ellipse id="Oval-16-Copy-7" fill="#FFFFFF" sketch:type="MSShapeGroup" cx="103.574766" cy="10.8305603" rx="3.98364486" ry="3.86805724"></ellipse>
                            </g>
                            <g id="Group-Copy-7" stroke-width="1" fill="none" sketch:type="MSLayerGroup" transform="translate(27.088785, 383.711278)">
                                <ellipse id="Oval-16-Copy-5" fill="#FFFFFF" sketch:type="MSShapeGroup" cx="9.56074766" cy="3.86805724" rx="3.98364486" ry="3.86805724"></ellipse>
                            </g>
                            <g id="Group-Copy" stroke-width="1" fill="none" sketch:type="MSLayerGroup" transform="translate(5.577103, 266.122338)">
                                <rect id="Rectangle-246" fill="#FFFFFF" sketch:type="MSShapeGroup" transform="translate(64.136682, 75.427116) rotate(-325.000000) translate(-64.136682, -75.427116) " x="54.9742991" y="73.4930876" width="18.3247664" height="3.86805724"></rect>
                                <rect id="Rectangle-246-Copy" fill="#FFFFFF" sketch:type="MSShapeGroup" transform="translate(94.694576, 58.519071) rotate(-33.000000) translate(-94.694576, -58.519071) " x="85.5321931" y="56.5850428" width="18.3247664" height="3.86805724"></rect>
                                <rect id="Rectangle-246-Copy-2" fill="#FFFFFF" sketch:type="MSShapeGroup" transform="translate(111.547083, 99.300785) rotate(-33.000000) translate(-111.547083, -99.300785) " x="102.3847" y="97.3667564" width="18.3247664" height="3.86805724"></rect>
                                <rect id="Rectangle-246-Copy-3" fill="#FFFFFF" sketch:type="MSShapeGroup" transform="translate(33.467643, 21.166029) rotate(-33.000000) translate(-33.467643, -21.166029) " x="24.3052603" y="19.2320002" width="18.3247664" height="3.86805724"></rect>
                                <rect id="Rectangle-246-Copy-4" fill="#FFFFFF" sketch:type="MSShapeGroup" transform="translate(22.313438, 99.300785) rotate(-33.000000) translate(-22.313438, -99.300785) " x="13.1510547" y="97.3667564" width="18.3247664" height="3.86805724"></rect>
                                <ellipse id="Oval-16" fill="#FFFFFF" sketch:type="MSShapeGroup" cx="3.98364486" cy="81.229202" rx="3.98364486" ry="3.86805724"></ellipse>
                                <ellipse id="Oval-16-Copy" fill="#FFFFFF" sketch:type="MSShapeGroup" cx="38.2429907" cy="55.7000243" rx="3.98364486" ry="3.86805724"></ellipse>
                                <ellipse id="Oval-16-Copy-8" fill="#FFFFFF" sketch:type="MSShapeGroup" cx="3.98364486" cy="38.6805724" rx="3.98364486" ry="3.86805724"></ellipse>
                                <ellipse id="Oval-16-Copy-2" fill="#FFFFFF" sketch:type="MSShapeGroup" cx="111.542056" cy="73.4930876" rx="3.98364486" ry="3.86805724"></ellipse>
                                <ellipse id="Oval-16-Copy-3" fill="#FFFFFF" sketch:type="MSShapeGroup" cx="69.3154206" cy="99.0222653" rx="3.98364486" ry="3.86805724"></ellipse>
                                <ellipse id="Oval-16-Copy-4" fill="#FFFFFF" sketch:type="MSShapeGroup" cx="65.3317757" cy="10.8305603" rx="3.98364486" ry="3.86805724"></ellipse>
                                <ellipse id="Oval-16-Copy-5" fill="#FFFFFF" sketch:type="MSShapeGroup" cx="9.56074766" cy="3.86805724" rx="3.98364486" ry="3.86805724"></ellipse>
                                <ellipse id="Oval-16-Copy-6" fill="#FFFFFF" sketch:type="MSShapeGroup" cx="69.3154206" cy="42.5486296" rx="3.98364486" ry="3.86805724"></ellipse>
                                <ellipse id="Oval-16-Copy-7" fill="#FFFFFF" sketch:type="MSShapeGroup" cx="103.574766" cy="10.8305603" rx="3.98364486" ry="3.86805724"></ellipse>
                            </g>
                            <path d="M33.0674774,54.1287604 C33.7197241,52.8014228 35.3304871,52.2351902 36.6822785,52.8594037 C38.1511472,53.5365071 38.5867569,55.0270395 38.3093915,56.4658134 C39.1966688,55.3678538 40.7896221,54.7532567 42.1419974,55.3771873 C43.5606484,56.031664 44.1693924,57.5425604 43.4943727,58.9176968 C42.7548289,60.4223709 40.9288887,61.3449737 39.4620637,62.0373501 C37.7648794,62.842577 37.0247517,63.1768861 35.9722231,63.515155 C35.5888749,63.6384704 34.634154,63.8438075 34.634154,63.8438075 C34.634154,63.8438075 34.5068579,63.5623882 34.2186898,62.8589813 C33.9214709,61.9844602 33.6940313,61.3922069 33.5384147,60.7467809 C33.3822142,60.1010721 33.0487918,58.6521162 33.0487918,58.6521162 C32.7296756,57.1751597 32.3679327,55.5522612 33.0674774,54.1287604 Z" id="Fill-1" fill="#FFFFFF" sketch:type="MSShapeGroup"></path>
                            <path d="M88.8385055,118.338511 C89.4907521,117.011173 91.1015151,116.44494 92.4533065,117.069154 C93.9221753,117.746257 94.3577849,119.23679 94.0804195,120.675564 C94.9676968,119.577604 96.5606501,118.963007 97.9130254,119.586938 C99.3316764,120.241414 99.9404205,121.752311 99.2654007,123.127447 C98.525857,124.632121 96.6999167,125.554724 95.2330917,126.2471 C93.5359075,127.052327 92.7957798,127.386636 91.7432511,127.724905 C91.3599029,127.848221 90.405182,128.053558 90.405182,128.053558 C90.405182,128.053558 90.2778859,127.772138 89.9897178,127.068731 C89.6924989,126.19421 89.4650593,125.601957 89.3094427,124.956531 C89.1532422,124.310822 88.8198198,122.861866 88.8198198,122.861866 C88.5007036,121.38491 88.1389607,119.762011 88.8385055,118.338511 Z" id="Fill-1-Copy-10" fill="#FFFFFF" sketch:type="MSShapeGroup"></path>
                            <path d="M21.9132718,178.680203 C22.5655184,177.352866 24.1762815,176.786633 25.5280729,177.410847 C26.9969416,178.08795 27.4325513,179.578483 27.1551859,181.017257 C28.0424632,179.919297 29.6354165,179.3047 30.9877918,179.92863 C32.4064428,180.583107 33.0151868,182.094004 32.340167,183.46914 C31.6006233,184.973814 29.7746831,185.896417 28.3078581,186.588793 C26.6106738,187.39402 25.8705461,187.728329 24.8180174,188.066598 C24.4346693,188.189913 23.4799484,188.395251 23.4799484,188.395251 C23.4799484,188.395251 23.3526523,188.113831 23.0644842,187.410424 C22.7672653,186.535903 22.5398257,185.94365 22.3842091,185.298224 C22.2280086,184.652515 21.8945861,183.203559 21.8945861,183.203559 C21.57547,181.726603 21.2137271,180.103704 21.9132718,178.680203 Z" id="Fill-1-Copy-12" fill="#FFFFFF" sketch:type="MSShapeGroup"></path>
                            <path d="M72.107197,245.984399 C72.7594437,244.657062 74.3702067,244.090829 75.7219981,244.715043 C77.1908669,245.392146 77.6264765,246.882679 77.3491111,248.321452 C78.2363884,247.223493 79.8293417,246.608896 81.181717,247.232826 C82.600368,247.887303 83.2091121,249.3982 82.5340923,250.773336 C81.7945485,252.27801 79.9686083,253.200613 78.5017833,253.892989 C76.804599,254.698216 76.0644714,255.032525 75.0119427,255.370794 C74.6285945,255.494109 73.6738736,255.699447 73.6738736,255.699447 C73.6738736,255.699447 73.5465775,255.418027 73.2584094,254.71462 C72.9611905,253.840099 72.7337509,253.247846 72.5781343,252.60242 C72.4219338,251.956711 72.0885114,250.507755 72.0885114,250.507755 C71.7693952,249.030799 71.4076523,247.4079 72.107197,245.984399 Z" id="Fill-1-Copy-13" fill="#FFFFFF" sketch:type="MSShapeGroup"></path>
                            <path d="M21.9132718,304.778869 C22.5655184,303.451532 24.1762815,302.885299 25.5280729,303.509513 C26.9969416,304.186616 27.4325513,305.677149 27.1551859,307.115923 C28.0424632,306.017963 29.6354165,305.403366 30.9877918,306.027296 C32.4064428,306.681773 33.0151868,308.19267 32.340167,309.567806 C31.6006233,311.07248 29.7746831,311.995083 28.3078581,312.687459 C26.6106738,313.492686 25.8705461,313.826995 24.8180174,314.165264 C24.4346693,314.28858 23.4799484,314.493917 23.4799484,314.493917 C23.4799484,314.493917 23.3526523,314.212497 23.0644842,313.50909 C22.7672653,312.634569 22.5398257,312.042316 22.3842091,311.39689 C22.2280086,310.751181 21.8945861,309.302225 21.8945861,309.302225 C21.57547,307.825269 21.2137271,306.20237 21.9132718,304.778869 Z" id="Fill-1-Copy-25" fill="#FFFFFF" sketch:type="MSShapeGroup"></path>
                            <path d="M94.4156083,299.363589 C95.0678549,298.036252 96.678618,297.470019 98.0304093,298.094233 C99.4992781,298.771336 99.9348877,300.261868 99.6575223,301.700642 C100.5448,300.602683 102.137753,299.988086 103.490128,300.612016 C104.908779,301.266493 105.517523,302.777389 104.842503,304.152526 C104.10296,305.6572 102.27702,306.579803 100.810195,307.272179 C99.1130103,308.077406 98.3728826,308.411715 97.3203539,308.749984 C96.9370057,308.873299 95.9822848,309.078636 95.9822848,309.078636 C95.9822848,309.078636 95.8549887,308.797217 95.5668206,308.09381 C95.2696017,307.219289 95.0421621,306.627036 94.8865455,305.98161 C94.730345,305.335901 94.3969226,303.886945 94.3969226,303.886945 C94.0778064,302.409989 93.7160635,300.78709 94.4156083,299.363589 Z" id="Fill-1-Copy-14" fill="#FFFFFF" sketch:type="MSShapeGroup"></path>
                            <path d="M60.9529914,373.630288 C61.6052381,372.302951 63.2160011,371.736718 64.5677925,372.360932 C66.0366612,373.038035 66.4722709,374.528567 66.1949055,375.967341 C67.0821828,374.869382 68.6751361,374.254785 70.0275114,374.878715 C71.4461624,375.533192 72.0549065,377.044088 71.3798867,378.419225 C70.6403429,379.923899 68.8144027,380.846502 67.3475777,381.538878 C65.6503934,382.344105 64.9102658,382.678414 63.8577371,383.016683 C63.4743889,383.139998 62.519668,383.345335 62.519668,383.345335 C62.519668,383.345335 62.3923719,383.063916 62.1042038,382.360509 C61.8069849,381.485988 61.5795453,380.893735 61.4239287,380.248309 C61.2677282,379.6026 60.9343058,378.153644 60.9343058,378.153644 C60.6151896,376.676688 60.2534467,375.053789 60.9529914,373.630288 Z" id="Fill-1-Copy-11" fill="#FFFFFF" sketch:type="MSShapeGroup"></path>
                            <path d="M33.0487918,250.507755 C32.7296756,249.030799 32.3679327,247.4079 33.0674774,245.984399 C33.7197241,244.657062 35.3304871,244.090829 36.6822785,244.715043 C38.1511472,245.392146 38.5867569,246.882679 38.3093915,248.321452 C39.1966688,247.223493 40.7896221,246.608896 42.1419974,247.232826 C43.5606484,247.887303 44.1693924,249.3982 43.4943727,250.773336 C42.7548289,252.27801 40.9288887,253.200613 39.4620637,253.892989 C37.7648794,254.698216 37.0247517,255.032525 35.9722231,255.370794 C35.5888749,255.494109 34.634154,255.699447 34.634154,255.699447 C34.634154,255.699447 34.5068579,255.418027 34.2186898,254.71462 C33.9214709,253.840099 33.6940313,253.247846 33.5384147,252.60242 C33.3822142,251.956711 33.0487918,250.507755 33.0487918,250.507755" id="Fill-1-Copy-2" fill="#FFFFFF" sketch:type="MSShapeGroup"></path>
                            <path d="M44.2029974,117.446586 C43.8838812,115.96963 43.5221383,114.346731 44.221683,112.92323 C44.8739297,111.595893 46.4846927,111.02966 47.8364841,111.653874 C49.3053528,112.330977 49.7409625,113.82151 49.4635971,115.260283 C50.3508744,114.162324 51.9438277,113.547727 53.296203,114.171657 C54.714854,114.826134 55.3235981,116.33703 54.6485783,117.712167 C53.9090345,119.216841 52.0830943,120.139444 50.6162693,120.83182 C48.919085,121.637047 48.1789574,121.971356 47.1264287,122.309625 C46.7430805,122.43294 45.7883596,122.638278 45.7883596,122.638278 C45.7883596,122.638278 45.6610635,122.356858 45.3728954,121.653451 C45.0756765,120.77893 44.8482369,120.186677 44.6926203,119.541251 C44.5364198,118.895542 44.2029974,117.446586 44.2029974,117.446586" id="Fill-1-Copy-4" fill="#FFFFFF" sketch:type="MSShapeGroup"></path>
                        </g>
                    </g>
                    <g id="Group-3" mask="url(#mask-2)">
                        <g transform="translate(-11.154206, -36.525200)">
                            <g id="Group-Copy-2" stroke-width="1" fill="none" sketch:type="MSLayerGroup" transform="translate(5.577103, 0.000000)">
                                <rect id="Rectangle-246" fill="#FFFFFF" sketch:type="MSShapeGroup" transform="translate(64.136682, 75.427116) rotate(-325.000000) translate(-64.136682, -75.427116) " x="54.9742991" y="73.4930876" width="18.3247664" height="3.86805724"></rect>
                                <rect id="Rectangle-246-Copy" fill="#FFFFFF" sketch:type="MSShapeGroup" transform="translate(94.694576, 58.519071) rotate(-33.000000) translate(-94.694576, -58.519071) " x="85.5321931" y="56.5850428" width="18.3247664" height="3.86805724"></rect>
                                <rect id="Rectangle-246-Copy-2" fill="#FFFFFF" sketch:type="MSShapeGroup" transform="translate(111.547083, 99.300785) rotate(-33.000000) translate(-111.547083, -99.300785) " x="102.3847" y="97.3667564" width="18.3247664" height="3.86805724"></rect>
                                <rect id="Rectangle-246-Copy-4" fill="#FFFFFF" sketch:type="MSShapeGroup" transform="translate(22.313438, 99.300785) rotate(-33.000000) translate(-22.313438, -99.300785) " x="13.1510547" y="97.3667564" width="18.3247664" height="3.86805724"></rect>
                                <ellipse id="Oval-16" fill="#FFFFFF" sketch:type="MSShapeGroup" cx="3.98364486" cy="81.229202" rx="3.98364486" ry="3.86805724"></ellipse>
                                <ellipse id="Oval-16-Copy" fill="#FFFFFF" sketch:type="MSShapeGroup" cx="38.2429907" cy="55.7000243" rx="3.98364486" ry="3.86805724"></ellipse>
                                <ellipse id="Oval-16-Copy-8" fill="#FFFFFF" sketch:type="MSShapeGroup" cx="3.98364486" cy="38.6805724" rx="3.98364486" ry="3.86805724"></ellipse>
                                <ellipse id="Oval-16-Copy-2" fill="#FFFFFF" sketch:type="MSShapeGroup" cx="111.542056" cy="73.4930876" rx="3.98364486" ry="3.86805724"></ellipse>
                                <ellipse id="Oval-16-Copy-3" fill="#FFFFFF" sketch:type="MSShapeGroup" cx="69.3154206" cy="99.0222653" rx="3.98364486" ry="3.86805724"></ellipse>
                                <ellipse id="Oval-16-Copy-6" fill="#FFFFFF" sketch:type="MSShapeGroup" cx="69.3154206" cy="34.8125152" rx="3.98364486" ry="3.86805724"></ellipse>
                            </g>
                            <g id="Group-Copy-3" stroke-width="1" fill="none" sketch:type="MSLayerGroup" transform="translate(7.967290, 260.707058)">
                                <rect id="Rectangle-246" fill="#FFFFFF" sketch:type="MSShapeGroup" transform="translate(64.136682, 75.427116) rotate(-325.000000) translate(-64.136682, -75.427116) " x="54.9742991" y="73.4930876" width="18.3247664" height="3.86805724"></rect>
                                <rect id="Rectangle-246-Copy" fill="#FFFFFF" sketch:type="MSShapeGroup" transform="translate(94.694576, 58.519071) rotate(-33.000000) translate(-94.694576, -58.519071) " x="85.5321931" y="56.5850428" width="18.3247664" height="3.86805724"></rect>
                                <rect id="Rectangle-246-Copy-2" fill="#FFFFFF" sketch:type="MSShapeGroup" transform="translate(111.547083, 99.300785) rotate(-33.000000) translate(-111.547083, -99.300785) " x="102.3847" y="97.3667564" width="18.3247664" height="3.86805724"></rect>
                                <rect id="Rectangle-246-Copy-3" fill="#FFFFFF" sketch:type="MSShapeGroup" transform="translate(33.467643, 21.166029) rotate(-33.000000) translate(-33.467643, -21.166029) " x="24.3052603" y="19.2320002" width="18.3247664" height="3.86805724"></rect>
                                <rect id="Rectangle-246-Copy-4" fill="#FFFFFF" sketch:type="MSShapeGroup" transform="translate(22.313438, 99.300785) rotate(-33.000000) translate(-22.313438, -99.300785) " x="13.1510547" y="97.3667564" width="18.3247664" height="3.86805724"></rect>
                                <ellipse id="Oval-16" fill="#FFFFFF" sketch:type="MSShapeGroup" cx="3.98364486" cy="81.229202" rx="3.98364486" ry="3.86805724"></ellipse>
                                <ellipse id="Oval-16-Copy" fill="#FFFFFF" sketch:type="MSShapeGroup" cx="38.2429907" cy="55.7000243" rx="3.98364486" ry="3.86805724"></ellipse>
                                <ellipse id="Oval-16-Copy-8" fill="#FFFFFF" sketch:type="MSShapeGroup" cx="3.98364486" cy="38.6805724" rx="3.98364486" ry="3.86805724"></ellipse>
                                <ellipse id="Oval-16-Copy-2" fill="#FFFFFF" sketch:type="MSShapeGroup" cx="111.542056" cy="73.4930876" rx="3.98364486" ry="3.86805724"></ellipse>
                                <ellipse id="Oval-16-Copy-3" fill="#FFFFFF" sketch:type="MSShapeGroup" cx="69.3154206" cy="99.0222653" rx="3.98364486" ry="3.86805724"></ellipse>
                                <ellipse id="Oval-16-Copy-4" fill="#FFFFFF" sketch:type="MSShapeGroup" cx="65.3317757" cy="10.8305603" rx="3.98364486" ry="3.86805724"></ellipse>
                                <ellipse id="Oval-16-Copy-5" fill="#FFFFFF" sketch:type="MSShapeGroup" cx="9.56074766" cy="3.86805724" rx="3.98364486" ry="3.86805724"></ellipse>
                                <ellipse id="Oval-16-Copy-6" fill="#FFFFFF" sketch:type="MSShapeGroup" cx="69.3154206" cy="42.5486296" rx="3.98364486" ry="3.86805724"></ellipse>
                                <ellipse id="Oval-16-Copy-7" fill="#FFFFFF" sketch:type="MSShapeGroup" cx="103.574766" cy="10.8305603" rx="3.98364486" ry="3.86805724"></ellipse>
                            </g>
                            <g id="Group-Copy-4" stroke-width="1" fill="none" sketch:type="MSLayerGroup" transform="translate(7.967290, 133.061169)">
                                <rect id="Rectangle-246" fill="#FFFFFF" sketch:type="MSShapeGroup" transform="translate(64.136682, 75.427116) rotate(-325.000000) translate(-64.136682, -75.427116) " x="54.9742991" y="73.4930876" width="18.3247664" height="3.86805724"></rect>
                                <rect id="Rectangle-246-Copy" fill="#FFFFFF" sketch:type="MSShapeGroup" transform="translate(94.694576, 58.519071) rotate(-33.000000) translate(-94.694576, -58.519071) " x="85.5321931" y="56.5850428" width="18.3247664" height="3.86805724"></rect>
                                <rect id="Rectangle-246-Copy-2" fill="#FFFFFF" sketch:type="MSShapeGroup" transform="translate(111.547083, 99.300785) rotate(-33.000000) translate(-111.547083, -99.300785) " x="102.3847" y="97.3667564" width="18.3247664" height="3.86805724"></rect>
                                <rect id="Rectangle-246-Copy-3" fill="#FFFFFF" sketch:type="MSShapeGroup" transform="translate(33.467643, 21.166029) rotate(-33.000000) translate(-33.467643, -21.166029) " x="24.3052603" y="19.2320002" width="18.3247664" height="3.86805724"></rect>
                                <rect id="Rectangle-246-Copy-4" fill="#FFFFFF" sketch:type="MSShapeGroup" transform="translate(22.313438, 99.300785) rotate(-33.000000) translate(-22.313438, -99.300785) " x="13.1510547" y="97.3667564" width="18.3247664" height="3.86805724"></rect>
                                <ellipse id="Oval-16" fill="#FFFFFF" sketch:type="MSShapeGroup" cx="3.98364486" cy="81.229202" rx="3.98364486" ry="3.86805724"></ellipse>
                                <ellipse id="Oval-16-Copy" fill="#FFFFFF" sketch:type="MSShapeGroup" cx="38.2429907" cy="55.7000243" rx="3.98364486" ry="3.86805724"></ellipse>
                                <ellipse id="Oval-16-Copy-8" fill="#FFFFFF" sketch:type="MSShapeGroup" cx="3.98364486" cy="38.6805724" rx="3.98364486" ry="3.86805724"></ellipse>
                                <ellipse id="Oval-16-Copy-2" fill="#FFFFFF" sketch:type="MSShapeGroup" cx="111.542056" cy="73.4930876" rx="3.98364486" ry="3.86805724"></ellipse>
                                <ellipse id="Oval-16-Copy-3" fill="#FFFFFF" sketch:type="MSShapeGroup" cx="69.3154206" cy="99.0222653" rx="3.98364486" ry="3.86805724"></ellipse>
                                <ellipse id="Oval-16-Copy-4" fill="#FFFFFF" sketch:type="MSShapeGroup" cx="65.3317757" cy="10.8305603" rx="3.98364486" ry="3.86805724"></ellipse>
                                <ellipse id="Oval-16-Copy-5" fill="#FFFFFF" sketch:type="MSShapeGroup" cx="9.56074766" cy="3.86805724" rx="3.98364486" ry="3.86805724"></ellipse>
                                <ellipse id="Oval-16-Copy-6" fill="#FFFFFF" sketch:type="MSShapeGroup" cx="69.3154206" cy="42.5486296" rx="3.98364486" ry="3.86805724"></ellipse>
                                <ellipse id="Oval-16-Copy-7" fill="#FFFFFF" sketch:type="MSShapeGroup" cx="103.574766" cy="10.8305603" rx="3.98364486" ry="3.86805724"></ellipse>
                            </g>
                            <path d="M44.9997263,112.031306 C44.6806101,110.55435 44.3188673,108.931451 45.018412,107.50795 C45.6706586,106.180613 47.2814217,105.61438 48.6332131,106.238594 C50.1020818,106.915697 50.5376915,108.406229 50.2603261,109.845003 C51.1476034,108.747044 52.7405567,108.132447 54.0929319,108.756377 C55.511583,109.410854 56.120327,110.92175 55.4453072,112.296887 C54.7057635,113.801561 52.8798233,114.724164 51.4129983,115.41654 C49.715814,116.221767 48.9756863,116.556076 47.9231576,116.894345 C47.5398095,117.01766 46.5850886,117.222997 46.5850886,117.222997 C46.5850886,117.222997 46.4577924,116.941578 46.1696244,116.238171 C45.8724055,115.36365 45.6449658,114.771397 45.4893493,114.125971 C45.3331487,113.480262 44.9997263,112.031306 44.9997263,112.031306" id="Fill-1-Copy-6" fill="#FFFFFF" sketch:type="MSShapeGroup"></path>
                            <path d="M93.6001936,92.6910199 C93.2810774,91.2140635 92.9193346,89.591165 93.6188793,88.1676641 C94.2711259,86.8403266 95.881889,86.2740939 97.2336803,86.8983074 C98.7025491,87.5754108 99.1381588,89.0659432 98.8607934,90.5047171 C99.7480707,89.4067575 101.341024,88.7921604 102.693399,89.416091 C104.11205,90.0705677 104.720794,91.5814641 104.045775,92.9566005 C103.306231,94.4612746 101.480291,95.3838774 100.013466,96.0762538 C98.3162813,96.8814807 97.5761536,97.2157898 96.5236249,97.5540587 C96.1402767,97.6773741 95.1855558,97.8827112 95.1855558,97.8827112 C95.1855558,97.8827112 95.0582597,97.6012919 94.7700917,96.897885 C94.4728728,96.0233639 94.2454331,95.4311106 94.0898165,94.7856846 C93.933616,94.1399758 93.6001936,92.6910199 93.6001936,92.6910199" id="Fill-1-Copy-7" fill="#FFFFFF" sketch:type="MSShapeGroup"></path>
                            <path d="M82.445988,382.795313 C82.1268718,381.318356 81.765129,379.695458 82.4646737,378.271957 C83.1169203,376.94462 84.7276834,376.378387 86.0794747,377.0026 C87.5483435,377.679704 87.9839531,379.170236 87.7065877,380.60901 C88.5938651,379.511051 90.1868183,378.896453 91.5391936,379.520384 C92.9578447,380.174861 93.5665887,381.685757 92.8915689,383.060893 C92.1520252,384.565568 90.326085,385.48817 88.85926,386.180547 C87.1620757,386.985774 86.421948,387.320083 85.3694193,387.658352 C84.9860711,387.781667 84.0313502,387.987004 84.0313502,387.987004 C84.0313502,387.987004 83.9040541,387.705585 83.6158861,387.002178 C83.3186671,386.127657 83.0912275,385.535404 82.9356109,384.889978 C82.7794104,384.244269 82.445988,382.795313 82.445988,382.795313" id="Fill-1-Copy-8" fill="#FFFFFF" sketch:type="MSShapeGroup"></path>
                            <path d="M93.6001936,128.277146 C93.2810774,126.80019 92.9193346,125.177292 93.6188793,123.753791 C94.2711259,122.426453 95.881889,121.860221 97.2336803,122.484434 C98.7025491,123.161537 99.1381588,124.65207 98.8607934,126.090844 C99.7480707,124.992884 101.341024,124.378287 102.693399,125.002218 C104.11205,125.656694 104.720794,127.167591 104.045775,128.542727 C103.306231,130.047401 101.480291,130.970004 100.013466,131.66238 C98.3162813,132.467607 97.5761536,132.801916 96.5236249,133.140185 C96.1402767,133.263501 95.1855558,133.468838 95.1855558,133.468838 C95.1855558,133.468838 95.0582597,133.187418 94.7700917,132.484012 C94.4728728,131.609491 94.2454331,131.017237 94.0898165,130.371811 C93.933616,129.726102 93.6001936,128.277146 93.6001936,128.277146" id="Fill-1-Copy-9" fill="#FFFFFF" sketch:type="MSShapeGroup"></path>
                            <path d="M19.5043992,69.4826764 C19.185283,68.00572 18.8235402,66.3828215 19.5230849,64.9593206 C20.1753315,63.6319831 21.7860946,63.0657505 23.1378859,63.689964 C24.6067547,64.3670673 25.0423644,65.8575997 24.764999,67.2963736 C25.6522763,66.1984141 27.2452296,65.5838169 28.5976048,66.2077476 C30.0162559,66.8622243 30.6249999,68.3731207 29.9499801,69.7482571 C29.2104364,71.2529312 27.3844962,72.175534 25.9176712,72.8679103 C24.2204869,73.6731372 23.4803592,74.0074464 22.4278305,74.3457152 C22.0444824,74.4690306 21.0897615,74.6743677 21.0897615,74.6743677 C21.0897615,74.6743677 20.9624653,74.3929484 20.6742973,73.6895416 C20.3770784,72.8150205 20.1496387,72.2227672 19.9940221,71.5773412 C19.8378216,70.9316323 19.5043992,69.4826764 19.5043992,69.4826764" id="Fill-1-Copy-17" fill="#FFFFFF" sketch:type="MSShapeGroup"></path>
                            <path d="M33.8455207,388.984204 C33.5264045,387.507248 33.1646617,385.88435 33.8642064,384.460849 C34.516453,383.133511 36.1272161,382.567279 37.4790074,383.191492 C38.9478762,383.868595 39.3834859,385.359128 39.1061205,386.797902 C39.9933978,385.699942 41.586351,385.085345 42.9387263,385.709276 C44.3573774,386.363752 44.9661214,387.874649 44.2911016,389.249785 C43.5515579,390.754459 41.7256177,391.677062 40.2587927,392.369438 C38.5616084,393.174665 37.8214807,393.508974 36.768952,393.847243 C36.3856038,393.970559 35.4308829,394.175896 35.4308829,394.175896 C35.4308829,394.175896 35.3035868,393.894476 35.0154188,393.19107 C34.7181999,392.316548 34.4907602,391.724295 34.3351436,391.078869 C34.1789431,390.43316 33.8455207,388.984204 33.8455207,388.984204" id="Fill-1-Copy-18" fill="#FFFFFF" sketch:type="MSShapeGroup"></path>
                            <path d="M49.7801002,233.488303 C49.460984,232.011347 49.0992411,230.388448 49.7987858,228.964948 C50.4510325,227.63761 52.0617955,227.071377 53.4135869,227.695591 C54.8824556,228.372694 55.3180653,229.863227 55.0406999,231.302001 C55.9279772,230.204041 57.5209305,229.589444 58.8733058,230.213375 C60.2919568,230.867851 60.9007009,232.378748 60.2256811,233.753884 C59.4861373,235.258558 57.6601971,236.181161 56.1933721,236.873537 C54.4961878,237.678764 53.7560602,238.013073 52.7035315,238.351342 C52.3201833,238.474658 51.3654624,238.679995 51.3654624,238.679995 C51.3654624,238.679995 51.2381663,238.398575 50.9499982,237.695169 C50.6527793,236.820647 50.4253397,236.228394 50.2697231,235.582968 C50.1135226,234.937259 49.7801002,233.488303 49.7801002,233.488303" id="Fill-1-Copy-19" fill="#FFFFFF" sketch:type="MSShapeGroup"></path>
                            <path d="M93.3829039,255.046538 C93.0637877,253.569581 92.7020448,251.946683 93.4015896,250.523182 C94.0538362,249.195844 95.6645993,248.629612 97.0163906,249.253825 C98.4852594,249.930929 98.920869,251.421461 98.6435036,252.860235 C99.5307809,251.762275 101.123734,251.147678 102.47611,251.771609 C103.894761,252.426086 104.503505,253.936982 103.828485,255.312118 C103.088941,256.816792 101.263001,257.739395 99.7961758,258.431772 C98.0989916,259.236998 97.3588639,259.571308 96.3063352,259.909577 C95.922987,260.032892 94.9682661,260.238229 94.9682661,260.238229 C94.9682661,260.238229 94.84097,259.95681 94.552802,259.253403 C94.255583,258.378882 94.0281434,257.786628 93.8725268,257.141202 C93.7163263,256.495494 93.3829039,255.046538 93.3829039,255.046538" id="Fill-1-Copy-23" fill="#FFFFFF" sketch:type="MSShapeGroup"></path>
                            <path d="M57.7473899,306.981391 C57.4282737,305.504435 57.0665308,303.881536 57.7660756,302.458035 C58.4183222,301.130698 60.0290852,300.564465 61.3808766,301.188679 C62.8497454,301.865782 63.285355,303.356314 63.0079896,304.795088 C63.8952669,303.697129 65.4882202,303.082531 66.8405955,303.706462 C68.2592465,304.360939 68.8679906,305.871835 68.1929708,307.246972 C67.453427,308.751646 65.6274868,309.674248 64.1606618,310.366625 C62.4634775,311.171852 61.7233499,311.506161 60.6708212,311.84443 C60.287473,311.967745 59.3327521,312.173082 59.3327521,312.173082 C59.3327521,312.173082 59.205456,311.891663 58.9172879,311.188256 C58.620069,310.313735 58.3926294,309.721482 58.2370128,309.076056 C58.0808123,308.430347 57.7473899,306.981391 57.7473899,306.981391" id="Fill-1-Copy-24" fill="#FFFFFF" sketch:type="MSShapeGroup"></path>
                        </g>
                    </g>
                    <rect id="Rectangle-147" stroke="#FFFFFF" stroke-width="3" sketch:type="MSShapeGroup" mask="url(#mask-2)" x="16" y="18" width="311" height="313"></rect>
                </g>
            </g>
        </g>
    </g>
</svg>