<?xml version="1.0" encoding="UTF-8" standalone="no"?>
<svg width="40px" height="40px" viewBox="0 0 40 40" version="1.1" xmlns="http://www.w3.org/2000/svg" xmlns:xlink="http://www.w3.org/1999/xlink" xmlns:sketch="http://www.bohemiancoding.com/sketch/ns">
    <!-- Generator: Sketch 3.4.4 (17249) - http://www.bohemiancoding.com/sketch -->
    <title>Oval 58 + !</title>
    <desc>Created with Sketch.</desc>
    <defs></defs>
    <g id="Page-1" stroke="none" stroke-width="1" fill="none" fill-rule="evenodd" sketch:type="MSPage">
        <g id="Red-Edit-Copy" sketch:type="MSArtboardGroup" transform="translate(-1.000000, -2.000000)">
            <g id="Oval-58-+-!" sketch:type="MSLayerGroup" transform="translate(2.000000, 3.000000)">
                <circle id="Oval-58" stroke="#63A31D" stroke-width="2" sketch:type="MSShapeGroup" cx="19" cy="19" r="19"></circle>
                <path d="M18.1405549,25.75 C17.6027599,25.75 17.0934001,25.5506097 16.7670142,25.2068333 L12.3496778,20.5697807 C11.7747936,19.9676809 11.9243871,19.1102043 12.6834816,18.6534728 C13.4438124,18.1947769 14.5231112,18.3155897 15.0979954,18.9186717 L18.0045607,21.9674773 L25.3123904,12.6442613 C25.8155687,12.0038549 26.8787954,11.8074113 27.6873423,12.2071741 C28.4946529,12.6059548 28.7431512,13.4506625 28.2387367,14.0930333 L19.6043462,25.1037004 C19.3051591,25.4877477 18.7871451,25.727409 18.2196787,25.7480356 C18.1924799,25.75 18.1677537,25.75 18.1405549,25.75 L18.1405549,25.75 Z" id="Shape" fill="#63A31D" sketch:type="MSShapeGroup"></path>
            </g>
        </g>
    </g>
</svg>