<?xml version="1.0" encoding="UTF-8" standalone="no"?>
<svg width="442px" height="422px" viewBox="0 0 442 422" version="1.1" xmlns="http://www.w3.org/2000/svg" xmlns:xlink="http://www.w3.org/1999/xlink" xmlns:sketch="http://www.bohemiancoding.com/sketch/ns">
    <!-- Generator: Sketch 3.4.3 (16618) - http://www.bohemiancoding.com/sketch -->
    <title>Chest Overarm</title>
    <desc>Created with Sketch.</desc>
    <defs></defs>
    <g id="Page-1" stroke="none" stroke-width="1" fill="none" fill-rule="evenodd" sketch:type="MSPage">
        <g id="Chest-Overarm" sketch:type="MSArtboardGroup">
            <g id="Page-1" sketch:type="MSLayerGroup" transform="translate(13.000000, 21.000000)">
                <path d="M211.5516,72.8719 C211.5516,72.8719 211.8366,68.8819 212.9766,60.6179 C214.1166,52.3539 209.6946,34.8549 207.9846,31.1499 C206.2746,27.4459 195.6646,23.6439 190.9846,20.7689 C185.2956,17.2759 185.3336,9.2499 185.3336,6.3999 C178.1996,6.3999 169.6716,14.5139 167.8336,16.8999 C164.3116,21.4719 164.2126,24.4809 163.8336,27.8999 C162.9306,37.4469 166.2636,50.3359 166.8336,52.8999 C167.4036,55.4649 175.5836,69.6499 178.8336,72.3999 C181.5766,68.5509 184.0216,52.7449 185.4896,45.8999 C186.6696,40.3999 193.0606,31.2759 201.3336,34.3999" id="Stroke-1" stroke="#000000" stroke-width="3" sketch:type="MSShapeGroup"></path>
                <path d="M319.1666,387.567 C315.8576,366.903 313.7416,317.745 315.1666,312.9 C316.5916,308.056 314.1406,261.807 319.5546,240.434 C324.9696,219.061 335.9296,152.936 336.4996,148.234" id="Stroke-3" stroke="#000000" stroke-width="3" sketch:type="MSShapeGroup"></path>
                <path d="M227.0833,35.1502 C234.0833,34.1502 238.6373,38.4352 240.3333,41.9002 C244.2563,49.9122 247.0833,65.6502 255.3333,71.9002 C255.3333,71.9002 262.8973,48.9862 263.8333,41.9002 C264.9143,33.7142 264.6473,23.1702 261.2783,16.7332 C259.0313,12.4372 257.5353,8.3692 252.8333,8.6822 C252.8333,14.0012 233.2093,25.8522 227.5103,27.5622 C221.8103,29.2712 219.2453,27.4592 218.6763,32.5882 C218.1063,37.7182 220.6703,49.2192 219.5303,57.1982 C218.3913,65.1782 211.2663,71.1622 209.8413,78.5712 C208.4173,85.9802 206.9923,129.2962 206.7073,138.4152 C206.4223,147.5342 200.7223,232.1702 201.5773,240.4342 C202.4323,248.6982 196.5003,345.9002 199.5003,390.9002" id="Stroke-5" stroke="#000000" stroke-width="3" sketch:type="MSShapeGroup"></path>
                <path d="M186.3333,0.9002 C186.0683,8.1622 185.4893,13.5972 185.4893,13.5972" id="Stroke-7" stroke="#000000" stroke-width="3" sketch:type="MSShapeGroup"></path>
                <path d="M249.3333,1.4002 C249.3333,3.5232 250.2503,9.1662 251.7033,11.1682" id="Stroke-9" stroke="#000000" stroke-width="3" sketch:type="MSShapeGroup"></path>
                <path d="M90.5,240.2336 C90.5,240.2336 85.307,275.1246 84.167,288.2336 C84.167,288.2336 75.833,378.9006 74.833,382.9006" id="Stroke-11" stroke="#000000" stroke-width="3" sketch:type="MSShapeGroup"></path>
                <path d="M163.8333,27.4002 C155.2583,30.2102 157.4073,34.5432 150.1403,37.9632 C142.8743,41.3832 113.3793,49.5042 96.7093,55.4892 C80.0383,61.4732 69.7793,65.3202 63.7953,68.3122 C57.8103,71.3042 48.2643,98.5192 45.4143,119.0372 C42.5643,139.5552 39.7153,163.2072 37.7203,168.6212 C35.7253,174.0362 30.7583,224.4212 29.3333,232.4002 C29.3333,232.4002 24.8333,249.4002 24.8333,254.9002 C24.8333,260.4002 22.5083,281.9772 22.1663,285.5672 C21.1663,296.0672 20.3333,315.4002 18.8333,319.4002 C17.3333,323.4002 9.6663,375.7332 10.1663,382.2332" id="Stroke-13" stroke="#000000" stroke-width="3" sketch:type="MSShapeGroup"></path>
                <path d="M80.5,143.5669 C86.057,177.7629 94.144,265.3689 93.289,279.0469 C89.734,290.5889 92.501,296.5729 93.323,299.1379 C93.323,299.1379 91.46,326.8669 89.734,341.3999 C88.007,355.9339 90.118,374.2649 89.833,386.2339" id="Stroke-15" stroke="#000000" stroke-width="3" sketch:type="MSShapeGroup"></path>
                <path d="M325.8333,386.9002 C327.5853,367.4532 322.7273,277.2322 323.4203,262.1102 C324.1143,246.9882 320.7033,236.0112 320.7033,236.0112" id="Stroke-17" stroke="#000000" stroke-width="3" sketch:type="MSShapeGroup"></path>
                <path d="M263.5236,24.2576 C273.3896,27.5616 278.5196,37.4646 283.6486,40.7776 C288.7786,44.0896 307.4286,47.4176 321.6776,54.2566 C335.9256,61.0966 358.0736,71.0176 360.0206,72.8716 C366.0046,78.5716 382.8186,111.0576 381.1086,148.6736 C379.3986,186.2896 388.9706,363.0086 384.3336,388.4006" id="Stroke-19" stroke="#000000" stroke-width="3" sketch:type="MSShapeGroup"></path>
                <path d="M244.561,170.2249 C258.268,170.7139 315.832,166.5119 323.099,166.5119 C323.099,172.3039 320.748,181.2829 320.748,181.2829 C320.748,181.2829 296.454,186.4159 281.636,186.9629 C269.2,187.4219 244.703,187.3319 244.703,187.3319 L244.561,170.2249 L244.561,170.2249 Z" id="Stroke-21" stroke="#000000" stroke-width="3" sketch:type="MSShapeGroup"></path>
                <path d="M218.6759,142.6894 C218.6759,145.3654 217.0479,147.5334 215.0399,147.5334 C213.0319,147.5334 211.4039,145.3654 211.4039,142.6894 C211.4039,140.0134 213.0319,137.8454 215.0399,137.8454 C217.0479,137.8454 218.6759,140.0134 218.6759,142.6894 L218.6759,142.6894 Z" id="Stroke-23" stroke="#000000" stroke-width="3" sketch:type="MSShapeGroup"></path>
                <path d="M216.966,194.8388 C216.966,197.5148 215.338,199.6828 213.33,199.6828 C211.322,199.6828 209.694,197.5148 209.694,194.8388 C209.694,192.1628 211.322,189.9948 213.33,189.9948 C215.338,189.9948 216.966,192.1628 216.966,194.8388 L216.966,194.8388 Z" id="Stroke-25" stroke="#000000" stroke-width="3" sketch:type="MSShapeGroup"></path>
                <path d="M215.2562,245.2784 C215.2562,247.9544 213.6282,250.1224 211.6202,250.1224 C209.6122,250.1224 207.9842,247.9544 207.9842,245.2784 C207.9842,242.6024 209.6122,240.4344 211.6202,240.4344 C213.6282,240.4344 215.2562,242.6024 215.2562,245.2784 L215.2562,245.2784 Z" id="Stroke-27" stroke="#000000" stroke-width="3" sketch:type="MSShapeGroup"></path>
                <path d="M214.5894,303.9102 C213.9144,306.4992 211.7914,308.1872 209.8484,307.6802 C207.9054,307.1732 206.8774,304.6642 207.5534,302.0752 C208.2284,299.4862 210.3514,297.7982 212.2944,298.3052 C214.2374,298.8122 215.2644,301.3212 214.5894,303.9102 L214.5894,303.9102 Z" id="Stroke-29" stroke="#000000" stroke-width="3" sketch:type="MSShapeGroup"></path>
                <path d="M215.5894,369.9102 C214.9144,372.4992 212.7914,374.1872 210.8484,373.6802 C208.9054,373.1732 207.8774,370.6642 208.5534,368.0752 C209.2284,365.4862 211.3514,363.7982 213.2944,364.3052 C215.2374,364.8122 216.2644,367.3212 215.5894,369.9102 L215.5894,369.9102 Z" id="Stroke-31" stroke="#000000" stroke-width="3" sketch:type="MSShapeGroup"></path>
                <path d="M220.3857,88.8302 C220.3857,91.5062 218.7577,93.6742 216.7497,93.6742 C214.7417,93.6742 213.1137,91.5062 213.1137,88.8302 C213.1137,86.1542 214.7417,83.9862 216.7497,83.9862 C218.7577,83.9862 220.3857,86.1542 220.3857,88.8302 L220.3857,88.8302 Z" id="Stroke-33" stroke="#000000" stroke-width="3" sketch:type="MSShapeGroup"></path>
                <path d="M394.4337,146.2874 C412.8237,147.7284 414.2327,158.7834 412.7127,162.3294 C404.5697,181.3154 320.6667,197.3084 207.4667,197.3084 C94.2667,197.3084 2.4997,180.5614 2.4997,159.9034 C2.4997,156.5884 5.8627,146.2874 23.8737,146.2874" id="Stroke-35" stroke="#FF0000" stroke-width="5" sketch:type="MSShapeGroup"></path>
                <g id="Group-40" sketch:type="MSShapeGroup">
                    <path d="M394.3333,126.9002 L394.3333,165.9002" id="Fill-37" fill="#FFFFFF"></path>
                    <path d="M394.3333,126.9002 L394.3333,165.9002" id="Stroke-39" stroke="#FF0000" stroke-width="5"></path>
                </g>
                <g id="Group-44" sketch:type="MSShapeGroup">
                    <path d="M24.3333,165.9002 L24.3333,126.9002" id="Fill-41" fill="#FFFFFF"></path>
                    <path d="M24.3333,165.9002 L24.3333,126.9002" id="Stroke-43" stroke="#FF0000" stroke-width="5"></path>
                </g>
            </g>
        </g>
    </g>
</svg>