<?xml version="1.0" encoding="UTF-8" standalone="no"?>
<svg width="547px" height="422px" viewBox="0 0 547 422" version="1.1" xmlns="http://www.w3.org/2000/svg" xmlns:xlink="http://www.w3.org/1999/xlink" xmlns:sketch="http://www.bohemiancoding.com/sketch/ns">
    <!-- Generator: Sketch 3.4.3 (16618) - http://www.bohemiancoding.com/sketch -->
    <title>Chest Underarm</title>
    <desc>Created with Sketch.</desc>
    <defs></defs>
    <g id="Page-1" stroke="none" stroke-width="1" fill="none" fill-rule="evenodd" sketch:type="MSPage">
        <g id="Chest-Underarm" sketch:type="MSArtboardGroup">
            <g id="Page-1" sketch:type="MSLayerGroup" transform="translate(11.000000, 16.000000)">
                <path d="M264.8628,72.8719 C264.8628,72.8719 265.1478,68.8819 266.2878,60.6179 C267.4278,52.3539 263.0058,34.8549 261.2958,31.1499 C259.5858,27.4459 248.9758,23.6439 244.2958,20.7689 C238.6068,17.2759 238.6448,9.2499 238.6448,6.3999 C231.5108,6.3999 222.9828,14.5139 221.1448,16.8999 C217.6228,21.4719 217.5238,24.4809 217.1448,27.8999 C216.2418,37.4469 219.5748,50.3359 220.1448,52.8999 C220.7148,55.4649 228.8948,69.6499 232.1448,72.3999 C234.8878,68.5509 237.3328,52.7449 238.8008,45.8999 C239.9808,40.3999 246.3718,31.2759 254.6448,34.3999" id="Stroke-1" stroke="#000000" stroke-width="3" sketch:type="MSShapeGroup"></path>
                <path d="M372.4777,387.567 C369.1687,366.903 367.0527,317.745 368.4777,312.9 C369.9027,308.056 367.4517,261.807 372.8657,240.434 C378.2807,219.061 389.2407,152.936 389.8107,148.234" id="Stroke-3" stroke="#000000" stroke-width="3" sketch:type="MSShapeGroup"></path>
                <path d="M280.3945,35.1502 C287.3945,34.1502 291.9485,38.4352 293.6445,41.9002 C297.5675,49.9122 300.3945,65.6502 308.6445,71.9002 C308.6445,71.9002 316.2085,48.9862 317.1445,41.9002 C318.2255,33.7142 317.9585,23.1702 314.5895,16.7332 C312.3425,12.4372 310.8465,8.3692 306.1445,8.6822 C306.1445,14.0012 286.5205,25.8522 280.8215,27.5622 C275.1215,29.2712 272.5565,27.4592 271.9875,32.5882 C271.4175,37.7182 273.9815,49.2192 272.8415,57.1982 C271.7025,65.1782 264.5775,71.1622 263.1525,78.5712 C261.7285,85.9802 260.3035,129.2962 260.0185,138.4152 C259.7335,147.5342 254.0335,232.1702 254.8885,240.4342 C255.7435,248.6982 249.8115,345.9002 252.8115,390.9002" id="Stroke-5" stroke="#000000" stroke-width="3" sketch:type="MSShapeGroup"></path>
                <path d="M239.6445,0.9002 C239.3795,8.1622 238.8005,13.5972 238.8005,13.5972" id="Stroke-7" stroke="#000000" stroke-width="3" sketch:type="MSShapeGroup"></path>
                <path d="M302.6445,1.4002 C302.6445,3.5232 303.5615,9.1662 305.0145,11.1682" id="Stroke-9" stroke="#000000" stroke-width="3" sketch:type="MSShapeGroup"></path>
                <path d="M132.8111,175.2336 C132.8111,175.2336 123.8111,175.5666 95.4781,190.5666 L39.4781,218.5666" id="Stroke-11" stroke="#000000" stroke-width="3" sketch:type="MSShapeGroup"></path>
                <path d="M217.1445,27.4002 C208.5695,30.2102 210.7185,34.5432 203.4515,37.9632 C196.1855,41.3832 170.1485,49.5822 153.4775,55.5672 C136.8075,61.5512 119.4625,68.5742 113.4775,71.5672 C107.4935,74.5592 92.8115,83.2332 73.1445,99.2332 C57.0755,112.3062 35.5065,130.8792 30.8115,134.2332 C26.1445,137.5672 10.1445,148.2332 0.8115,154.2332" id="Stroke-13" stroke="#000000" stroke-width="3" sketch:type="MSShapeGroup"></path>
                <path d="M133.8111,143.5669 C139.3681,177.7629 147.4551,265.3689 146.6001,279.0469 C143.0451,290.5889 145.8121,296.5729 146.6341,299.1379 C146.6341,299.1379 144.7711,326.8669 143.0451,341.3999 C141.3181,355.9339 143.4291,374.2649 143.1441,386.2339" id="Stroke-15" stroke="#000000" stroke-width="3" sketch:type="MSShapeGroup"></path>
                <path d="M498.1445,209.9002 C482.0655,202.9942 459.6445,197.4002 442.1445,192.4002 C409.2445,183.0002 387.8115,176.2332 387.8115,176.2332" id="Stroke-17" stroke="#000000" stroke-width="3" sketch:type="MSShapeGroup"></path>
                <path d="M316.8347,24.2576 C326.7007,27.5616 331.8307,37.4646 336.9597,40.7776 C342.0897,44.0896 360.7397,47.4176 374.9887,54.2566 C389.2367,61.0966 410.8277,71.8936 413.3317,72.8716 C423.6447,76.9006 430.3417,80.9116 463.1447,99.4006 C490.6447,114.9006 522.9927,129.1486 535.1447,135.9006" id="Stroke-19" stroke="#000000" stroke-width="3" sketch:type="MSShapeGroup"></path>
                <path d="M297.8722,170.2249 C311.5792,170.7139 369.1432,166.5119 376.4102,166.5119 C376.4102,172.3039 374.0592,181.2829 374.0592,181.2829 C374.0592,181.2829 349.7652,186.4159 334.9472,186.9629 C322.5112,187.4219 298.0142,187.3319 298.0142,187.3319 L297.8722,170.2249 L297.8722,170.2249 Z" id="Stroke-21" stroke="#000000" stroke-width="3" sketch:type="MSShapeGroup"></path>
                <path d="M271.987,142.6894 C271.987,145.3654 270.359,147.5334 268.351,147.5334 C266.343,147.5334 264.715,145.3654 264.715,142.6894 C264.715,140.0134 266.343,137.8454 268.351,137.8454 C270.359,137.8454 271.987,140.0134 271.987,142.6894 L271.987,142.6894 Z" id="Stroke-23" stroke="#000000" stroke-width="3" sketch:type="MSShapeGroup"></path>
                <path d="M270.2772,194.8388 C270.2772,197.5148 268.6492,199.6828 266.6412,199.6828 C264.6332,199.6828 263.0052,197.5148 263.0052,194.8388 C263.0052,192.1628 264.6332,189.9948 266.6412,189.9948 C268.6492,189.9948 270.2772,192.1628 270.2772,194.8388 L270.2772,194.8388 Z" id="Stroke-25" stroke="#000000" stroke-width="3" sketch:type="MSShapeGroup"></path>
                <path d="M268.5674,245.2784 C268.5674,247.9544 266.9394,250.1224 264.9314,250.1224 C262.9234,250.1224 261.2954,247.9544 261.2954,245.2784 C261.2954,242.6024 262.9234,240.4344 264.9314,240.4344 C266.9394,240.4344 268.5674,242.6024 268.5674,245.2784 L268.5674,245.2784 Z" id="Stroke-27" stroke="#000000" stroke-width="3" sketch:type="MSShapeGroup"></path>
                <path d="M267.9006,303.9102 C267.2256,306.4992 265.1026,308.1872 263.1596,307.6802 C261.2166,307.1732 260.1886,304.6642 260.8646,302.0752 C261.5396,299.4862 263.6626,297.7982 265.6056,298.3052 C267.5486,298.8122 268.5756,301.3212 267.9006,303.9102 L267.9006,303.9102 Z" id="Stroke-29" stroke="#000000" stroke-width="3" sketch:type="MSShapeGroup"></path>
                <path d="M268.9006,369.9102 C268.2256,372.4992 266.1026,374.1872 264.1596,373.6802 C262.2166,373.1732 261.1886,370.6642 261.8646,368.0752 C262.5396,365.4862 264.6626,363.7982 266.6056,364.3052 C268.5486,364.8122 269.5756,367.3212 268.9006,369.9102 L268.9006,369.9102 Z" id="Stroke-31" stroke="#000000" stroke-width="3" sketch:type="MSShapeGroup"></path>
                <path d="M273.6968,88.8302 C273.6968,91.5062 272.0688,93.6742 270.0608,93.6742 C268.0528,93.6742 266.4248,91.5062 266.4248,88.8302 C266.4248,86.1542 268.0528,83.9862 270.0608,83.9862 C272.0688,83.9862 273.6968,86.1542 273.6968,88.8302 L273.6968,88.8302 Z" id="Stroke-33" stroke="#000000" stroke-width="3" sketch:type="MSShapeGroup"></path>
                <path d="M396.7971,211.8192 C410.3101,212.8782 411.3451,221.0012 410.2281,223.6062 C404.2451,237.5572 342.5951,249.3092 259.4171,249.3092 C176.2401,249.3092 108.8111,237.0032 108.8111,221.8242 C108.8111,219.3882 111.2821,211.8192 124.5161,211.8192" id="Stroke-35" stroke="#FF0000" stroke-width="5" sketch:type="MSShapeGroup"></path>
                <path d="M396.6445,197.9002 L396.6445,225.9002" id="Stroke-37" stroke="#FF0000" stroke-width="5" sketch:type="MSShapeGroup"></path>
                <path d="M124.6445,196.9002 L124.6445,224.9002" id="Stroke-39" stroke="#FF0000" stroke-width="5" sketch:type="MSShapeGroup"></path>
                <path d="M139.4778,180.5669 C124.8108,165.2339 116.8108,166.5669 106.8108,165.8999" id="Stroke-41" stroke="#000000" stroke-width="2" sketch:type="MSShapeGroup"></path>
                <path d="M384.6445,178.9002 C398.1445,168.4002 418.1445,167.9002 418.1445,167.9002" id="Stroke-43" stroke="#000000" stroke-width="2" sketch:type="MSShapeGroup"></path>
            </g>
        </g>
    </g>
</svg>