<?xml version="1.0" encoding="UTF-8" standalone="no"?>
<svg width="400px" height="305px" viewBox="0 0 400 305" version="1.1" xmlns="http://www.w3.org/2000/svg" xmlns:xlink="http://www.w3.org/1999/xlink" xmlns:sketch="http://www.bohemiancoding.com/sketch/ns">
    <!-- Generator: Sketch 3.4.4 (17249) - http://www.bohemiancoding.com/sketch -->
    <title>CHEST UNDERARM</title>
    <desc>Created with Sketch.</desc>
    <defs></defs>
    <g id="Page-1" stroke="none" stroke-width="1" fill="none" fill-rule="evenodd" sketch:type="MSPage">
        <g id="CHEST-UNDERARM" sketch:type="MSArtboardGroup">
            <g id="Page-1" sketch:type="MSLayerGroup" transform="translate(0.000000, 7.000000)">
                <path d="M197.658806,54.3820149 C197.658806,54.3820149 197.871493,51.404403 198.722239,45.2372388 C199.572985,39.0700746 196.272985,26.0111194 194.996866,23.246194 C193.720746,20.4820149 185.802836,17.6447015 182.310299,15.4991791 C178.064776,12.8924627 178.093134,6.90291045 178.093134,4.77604478 C172.769254,4.77604478 166.405075,10.8312687 165.033433,12.6118657 C162.405075,16.023806 162.331194,18.2693284 162.048358,20.8208209 C161.374478,27.9454478 163.861791,37.5641045 164.287164,39.4775373 C164.712537,41.3917164 170.817015,51.9775373 173.242388,54.0297761 C175.289403,51.1573881 177.11403,39.3618657 178.209552,34.2536567 C179.090149,30.1491791 183.859552,23.3402239 190.033433,25.6715672" id="Stroke-1" stroke="#000000" stroke-width="3" sketch:type="MSShapeGroup"></path>
                <path d="M277.968433,289.229104 C275.49903,273.808209 273.919925,237.123134 274.983358,233.507463 C276.046791,229.892537 274.217687,195.378358 278.257985,179.428358 C282.29903,163.478358 290.478134,114.131343 290.903507,110.622388" id="Stroke-3" stroke="#000000" stroke-width="3" sketch:type="MSShapeGroup"></path>
                <path d="M209.249627,26.2314925 C214.473507,25.4852239 217.872015,28.6829851 219.137687,31.268806 C222.065299,37.2479104 224.175,48.9926866 230.331716,53.6568657 C230.331716,53.6568657 235.976493,36.5568657 236.675,31.268806 C237.481716,25.1598507 237.282463,17.291194 234.768284,12.4874627 C233.091418,9.28149254 231.975,6.24567164 228.466045,6.47925373 C228.466045,10.4486567 213.821269,19.2926866 209.568284,20.568806 C205.314552,21.8441791 203.400373,20.4919403 202.975746,24.3195522 C202.550373,28.1479104 204.463806,36.7307463 203.61306,42.6852239 C202.76306,48.6404478 197.445896,53.1061194 196.382463,58.6352239 C195.319776,64.1643284 194.256343,96.4897015 194.043657,103.294925 C193.83097,110.100149 189.577239,173.261343 190.215299,179.428507 C190.853358,185.595672 186.426493,258.134478 188.665299,291.716567" id="Stroke-5" stroke="#000000" stroke-width="3" sketch:type="MSShapeGroup"></path>
                <path d="M178.839179,0.671791045 C178.641418,6.09119403 178.209328,10.1471642 178.209328,10.1471642" id="Stroke-7" stroke="#000000" stroke-width="3" sketch:type="MSShapeGroup"></path>
                <path d="M225.854104,1.04492537 C225.854104,2.62925373 226.538433,6.84044776 227.622761,8.33447761" id="Stroke-9" stroke="#000000" stroke-width="3" sketch:type="MSShapeGroup"></path>
                <path d="M99.1127612,130.771343 C99.1127612,130.771343 92.3963433,131.019851 71.2523134,142.213881 C71.2523134,142.213881 37.6418657,159.019104 29.4612687,163.109403" id="Stroke-11" stroke="#000000" stroke-width="3" sketch:type="MSShapeGroup"></path>
                <path d="M162.048134,20.4479104 C155.648881,22.5449254 157.252612,25.7785075 151.829478,28.3307463 C146.40709,30.8829851 126.976493,37.0016418 114.535448,41.4680597 C102.095149,45.9337313 89.1511194,51.1747761 84.6847015,53.4083582 C80.2190299,55.641194 69.2623134,62.1143284 54.5854478,74.0546269 C42.5936567,83.810597 26.4973881,97.6710448 22.9936567,100.17403 C19.5108209,102.66209 7.57052239,110.621791 0.605597015,115.099403" id="Stroke-13" stroke="#000000" stroke-width="3" sketch:type="MSShapeGroup"></path>
                <path d="M99.8590299,107.139478 C104.006045,132.658881 110.041119,198.036493 109.40306,208.243955 C106.750075,216.857388 108.815,221.32306 109.428433,223.237239 C109.428433,223.237239 108.038134,243.930522 106.750075,254.776045 C105.461269,265.622313 107.036642,279.302164 106.823955,288.234254" id="Stroke-15" stroke="#000000" stroke-width="3" sketch:type="MSShapeGroup"></path>
                <path d="M371.749627,156.64194 C359.750373,151.488209 343.018284,147.313582 329.958582,143.582239 C305.406343,136.567313 289.411567,131.517313 289.411567,131.517313" id="Stroke-17" stroke="#000000" stroke-width="3" sketch:type="MSShapeGroup"></path>
                <path d="M236.443806,18.1026866 C243.806493,20.5683582 247.634851,27.9586567 251.462463,30.4310448 C255.290821,32.9026866 269.208731,35.3862687 279.842313,40.49 C290.475149,45.5944776 306.587836,53.6519403 308.456493,54.381791 C316.152761,57.3885075 321.150522,60.381791 345.630373,74.1795522 C366.152761,85.7467164 390.29306,96.3795522 399.361716,101.418358" id="Stroke-19" stroke="#000000" stroke-width="3" sketch:type="MSShapeGroup"></path>
                <path d="M222.292687,127.033507 C232.521791,127.398433 275.48,124.262612 280.903134,124.262612 C280.903134,128.585 279.148657,135.285746 279.148657,135.285746 C279.148657,135.285746 261.018806,139.116343 249.960597,139.524552 C240.68,139.86709 222.398657,139.799925 222.398657,139.799925 L222.292687,127.033507 L222.292687,127.033507 Z" id="Stroke-21" stroke="#000000" stroke-width="3" sketch:type="MSShapeGroup"></path>
                <path d="M202.975373,106.484627 C202.975373,108.481642 201.760448,110.099552 200.26194,110.099552 C198.763433,110.099552 197.548507,108.481642 197.548507,106.484627 C197.548507,104.487612 198.763433,102.869701 200.26194,102.869701 C201.760448,102.869701 202.975373,104.487612 202.975373,106.484627 L202.975373,106.484627 Z" id="Stroke-23" stroke="#000000" stroke-width="3" sketch:type="MSShapeGroup"></path>
                <path d="M201.699403,145.40209 C201.699403,147.399104 200.484478,149.017015 198.98597,149.017015 C197.487463,149.017015 196.272537,147.399104 196.272537,145.40209 C196.272537,143.405075 197.487463,141.787164 198.98597,141.787164 C200.484478,141.787164 201.699403,143.405075 201.699403,145.40209 L201.699403,145.40209 Z" id="Stroke-25" stroke="#000000" stroke-width="3" sketch:type="MSShapeGroup"></path>
                <path d="M200.423433,183.043582 C200.423433,185.040597 199.208507,186.658507 197.71,186.658507 C196.211493,186.658507 194.996567,185.040597 194.996567,183.043582 C194.996567,181.046567 196.211493,179.428657 197.71,179.428657 C199.208507,179.428657 200.423433,181.046567 200.423433,183.043582 L200.423433,183.043582 Z" id="Stroke-27" stroke="#000000" stroke-width="3" sketch:type="MSShapeGroup"></path>
                <path d="M199.925821,226.798657 C199.42209,228.730746 197.837761,229.990448 196.387761,229.61209 C194.937761,229.233731 194.170597,227.361343 194.675075,225.429254 C195.178806,223.497164 196.763134,222.237463 198.213134,222.615821 C199.663134,222.994179 200.429552,224.866567 199.925821,226.798657 L199.925821,226.798657 Z" id="Stroke-29" stroke="#000000" stroke-width="3" sketch:type="MSShapeGroup"></path>
                <path d="M200.67209,276.052388 C200.168358,277.984478 198.58403,279.244179 197.13403,278.865821 C195.68403,278.487463 194.916866,276.615075 195.421343,274.682985 C195.925075,272.750896 197.509403,271.491194 198.959403,271.869552 C200.409403,272.24791 201.175821,274.120299 200.67209,276.052388 L200.67209,276.052388 Z" id="Stroke-31" stroke="#000000" stroke-width="3" sketch:type="MSShapeGroup"></path>
                <path d="M204.251343,66.291194 C204.251343,68.288209 203.036418,69.9061194 201.53791,69.9061194 C200.039403,69.9061194 198.824478,68.288209 198.824478,66.291194 C198.824478,64.2941791 200.039403,62.6762687 201.53791,62.6762687 C203.036418,62.6762687 204.251343,64.2941791 204.251343,66.291194 L204.251343,66.291194 Z" id="Stroke-33" stroke="#000000" stroke-width="3" sketch:type="MSShapeGroup"></path>
                <path d="M290.818731,132.216045 C300.303806,132.956343 301.030672,138.639179 300.246343,140.460821 C296.04709,150.21903 252.77097,158.439179 194.383657,158.439179 C135.99709,158.439179 88.665,149.831716 88.665,139.214552 C88.665,137.510821 90.3993284,132.216045 99.6896269,132.216045" id="Stroke-35" stroke="#FF0000" stroke-width="5" sketch:type="MSShapeGroup"></path>
                <path d="M290.818731,132.216045 L290.744851,141.716791" id="Stroke-37" stroke="#FF0000" stroke-width="5" sketch:type="MSShapeGroup"></path>
                <path d="M99.9158955,130.771343 L99.7741045,140.970597" id="Stroke-39" stroke="#FF0000" stroke-width="5" sketch:type="MSShapeGroup"></path>
                <path d="M104.08791,134.751418 C93.1423881,123.308881 87.1722388,124.303657 79.7095522,123.805896" id="Stroke-41" stroke="#000000" stroke-width="2" sketch:type="MSShapeGroup"></path>
                <path d="M287.048134,133.507612 C297.122761,125.671791 312.048134,125.298657 312.048134,125.298657" id="Stroke-43" stroke="#000000" stroke-width="2" sketch:type="MSShapeGroup"></path>
            </g>
        </g>
    </g>
</svg>