<?xml version="1.0" encoding="UTF-8" standalone="no"?>
<svg width="404px" height="997px" viewBox="0 0 404 997" version="1.1" xmlns="http://www.w3.org/2000/svg" xmlns:xlink="http://www.w3.org/1999/xlink" xmlns:sketch="http://www.bohemiancoding.com/sketch/ns">
    <!-- Generator: Sketch 3.4.3 (16618) - http://www.bohemiancoding.com/sketch -->
    <title>Height</title>
    <desc>Created with Sketch.</desc>
    <defs></defs>
    <g id="Page-1" stroke="none" stroke-width="1" fill="none" fill-rule="evenodd" sketch:type="MSPage">
        <g id="Height" sketch:type="MSArtboardGroup">
            <g id="Page-1" sketch:type="MSLayerGroup" transform="translate(12.000000, 18.000000)">
                <path d="M197.8331,102.3384 C193.8331,118.3384 170.8331,135.3384 160.9101,135.3384 C150.9861,135.3384 138.5831,114.8384 134.5831,107.8384 C130.5831,100.8384 125.6771,78.5864 123.5831,69.5884 C123.5831,69.5884 122.4501,55.6404 126.8791,47.1844 C133.0831,35.3384 142.6411,45.5494 152.5911,43.8854 C164.8331,41.8384 170.1661,35.6714 182.1661,29.0054 C182.1661,29.0054 190.8331,55.6714 194.1661,59.6714 L197.5001,63.6714 C197.5001,63.6714 200.8331,53.0054 205.5001,51.6714 C210.1661,50.3384 212.8331,57.6714 212.1661,61.0054 C211.5001,64.3384 210.1661,87.6714 202.8331,87.6714 C202.8331,93.8384 202.6551,106.6534 203.3331,110.8384 C202.6151,119.5884 175.0831,147.8384 165.0831,153.8384 C157.9961,149.7084 148.8331,140.3384 148.8331,140.3384 L148.2601,127.4044" id="Stroke-1" stroke="#000000" stroke-width="3" sketch:type="MSShapeGroup"></path>
                <path d="M207.0148,51.5398 C207.0148,51.5398 216.5678,26.1198 193.0678,16.3698 C190.5678,3.8698 171.3328,0.8388 159.5828,2.5888 C147.8328,4.3388 125.1188,12.7858 118.8048,27.1458 C109.5548,48.1848 120.3328,64.5888 120.3328,64.5888" id="Stroke-3" stroke="#000000" stroke-width="3" sketch:type="MSShapeGroup"></path>
                <path d="M123.4532,66.3384 C123.4532,66.3384 120.0832,62.5884 117.8332,64.5884 C115.5832,66.5884 120.3182,84.5664 128.4502,87.0774" id="Stroke-5" stroke="#000000" stroke-width="3" sketch:type="MSShapeGroup"></path>
                <path d="M167.8605,156.3384 C167.8605,156.3384 162.4865,155.0884 160.9095,156.3384 C159.3335,157.5884 157.9375,169.8384 164.3855,171.0884 C170.8335,172.3384 167.8605,171.0884 167.8605,171.0884 C167.8605,171.0884 162.8875,163.3384 167.8605,156.3384 L167.8605,156.3384 Z" id="Stroke-7" stroke="#000000" stroke-width="3" sketch:type="MSShapeGroup"></path>
                <path d="M167.8605,171.0884 C170.0005,174.5324 180.5835,180.8384 187.0835,182.3384 C192.3335,173.5884 193.8335,167.0884 192.5835,157.3384 C191.3335,147.5884 186.3335,145.8384 186.3335,145.8384 C186.3335,145.8384 169.4405,153.2704 167.8605,156.3384" id="Stroke-9" stroke="#000000" stroke-width="3" sketch:type="MSShapeGroup"></path>
                <path d="M164.3851,171.0884 C159.4371,178.3384 151.5831,182.3384 144.5831,184.3384 C138.0831,180.8384 133.8331,164.0884 136.8331,150.3384 C150.3331,150.8384 159.5851,155.7824 159.5851,155.7824" id="Stroke-11" stroke="#000000" stroke-width="3" sketch:type="MSShapeGroup"></path>
                <path d="M202.9406,105.5884 C208.9356,105.0884 212.2326,117.1034 212.2326,123.8534 C212.2316,131.1034 209.3506,142.0944 206.3326,148.8384 C205.0606,151.6834 192.9986,168.8384 192.9986,168.8384" id="Stroke-13" stroke="#000000" stroke-width="3" sketch:type="MSShapeGroup"></path>
                <path d="M146.686,125.6164 C146.686,125.6164 141.583,127.3234 141.583,137.2054 C141.583,147.0884 144.135,151.0574 144.135,151.0574" id="Stroke-15" stroke="#000000" stroke-width="3" sketch:type="MSShapeGroup"></path>
                <path d="M144.8331,134.1718 L148.8331,140.3388" id="Stroke-17" stroke="#000000" stroke-width="3" sketch:type="MSShapeGroup"></path>
                <path d="M206.8513,147.6316 C206.8513,147.6316 194.1663,319.0056 195.1663,329.6716 C202.6153,314.3386 213.3333,266.3386 215.5833,245.3386 C217.8333,224.3386 231.5833,148.8386 230.8333,140.3386 C230.0833,131.8386 230.0833,130.3386 224.5833,127.0886 C219.0833,123.8386 213.1503,117.7166 210.5893,114.0866" id="Stroke-19" stroke="#000000" stroke-width="3" sketch:type="MSShapeGroup"></path>
                <path d="M214.7635,251.7205 L269.5835,233.5885 L271.8335,241.5885 L212.9865,262.5215 L214.7635,251.7205 L214.7635,251.7205 Z" id="Stroke-21" stroke="#000000" stroke-width="3" sketch:type="MSShapeGroup"></path>
                <path d="M263.3331,235.5884 C263.3331,235.5884 257.0831,227.8384 248.0831,226.5884 C239.0831,225.3384 229.8331,225.0884 226.0831,231.8384 C222.3331,238.5884 218.1861,250.5884 218.1861,250.5884" id="Stroke-23" stroke="#000000" stroke-width="3" sketch:type="MSShapeGroup"></path>
                <path d="M266.1664,406.6718 C266.1664,406.6718 248.4994,407.6718 243.8334,408.6718 C239.1664,409.6718 230.4994,412.0048 226.1664,412.3388 C221.8334,412.6718 210.8334,412.3388 208.8334,412.3388 C206.8334,412.3388 205.8334,416.6718 208.8334,419.0048 C211.8334,421.3388 220.2254,426.0048 230.8624,424.3388 C232.5834,424.6908 235.0834,423.3388 235.0834,423.3388 C235.0834,423.3388 234.0834,428.8388 234.5834,432.8388 C235.0834,436.8388 255.3334,470.6088 255.3334,470.6088 C255.3334,470.6088 264.8334,462.0888 267.3334,459.5888 C269.8334,457.0888 279.5834,449.0888 282.8334,442.0888 C286.0834,435.0888 291.8334,426.5888 291.8334,426.5888 C291.8334,426.5888 279.4994,410.2548 266.1664,406.6718 L266.1664,406.6718 Z" id="Stroke-25" stroke="#000000" stroke-width="3" sketch:type="MSShapeGroup"></path>
                <path d="M286.9082,434.4516 L307.3332,451.8386 L317.3332,435.8386 C317.3332,435.8386 284.8332,406.5886 270.3332,403.0886 C268.0832,404.3386 266.1662,406.6716 266.1662,406.6716" id="Stroke-27" stroke="#000000" stroke-width="3" sketch:type="MSShapeGroup"></path>
                <path d="M291.8331,426.5884 C291.8331,426.5884 304.8331,443.0884 307.3331,451.8384" id="Stroke-29" stroke="#000000" stroke-width="3" sketch:type="MSShapeGroup"></path>
                <path d="M314.8893,439.7485 C314.8893,439.7485 319.5833,441.5885 321.3333,441.5885 C323.0833,441.5885 377.5833,336.5885 376.0833,327.0885 C374.5833,317.5885 374.3333,301.3385 370.3333,293.0885 C366.3333,284.8385 346.5833,239.8385 339.0833,229.0885 C331.5833,218.3385 320.8333,154.8385 307.5833,148.8385 C287.5833,144.5885 238.6453,133.3385 229.6163,132.0885" id="Stroke-31" stroke="#000000" stroke-width="3" sketch:type="MSShapeGroup"></path>
                <path d="M283.3331,230.0884 C283.3331,230.0884 285.0831,258.0884 288.8331,266.5884 C292.5831,275.0884 301.8331,300.5884 306.0831,309.0884 C310.3331,317.5884 312.0831,318.3384 313.0831,319.0884 C316.7081,313.8384 332.8331,310.3384 350.0831,312.3384" id="Stroke-33" stroke="#000000" stroke-width="3" sketch:type="MSShapeGroup"></path>
                <path d="M312.8331,320.3384 C312.8331,320.3384 309.0831,321.5884 310.3331,326.8384 C308.0831,329.6714 270.3331,403.0884 270.3331,403.0884" id="Stroke-35" stroke="#000000" stroke-width="3" sketch:type="MSShapeGroup"></path>
                <path d="M310.3331,326.8384 C313.5831,324.5884 322.3331,318.8384 332.5831,320.3384" id="Stroke-37" stroke="#000000" stroke-width="3" sketch:type="MSShapeGroup"></path>
                <path d="M316.5831,435.5884 C316.5831,435.5884 321.5831,438.0884 321.3331,441.5884" id="Stroke-39" stroke="#000000" stroke-width="3" sketch:type="MSShapeGroup"></path>
                <path d="M309.7429,150.3384 C296.5269,155.0884 282.5829,190.0884 283.3329,230.0884" id="Stroke-41" stroke="#000000" stroke-width="2" sketch:type="MSShapeGroup"></path>
                <path d="M291.8331,276.0051 C291.8331,276.0051 287.1081,294.6721 283.3041,302.0051 C285.5001,311.0051 291.5831,360.0051 291.5831,360.0051" id="Stroke-43" stroke="#000000" stroke-width="3" sketch:type="MSShapeGroup"></path>
                <path d="M228.0114,412.1209 C217.5234,394.2369 195.1104,332.6719 195.1104,332.6719 C195.1104,332.6719 226.8334,387.3389 246.1664,408.6719" id="Stroke-45" stroke="#000000" stroke-width="3" sketch:type="MSShapeGroup"></path>
                <path d="M257.8423,468.3487 L287.5683,509.0047 C287.5683,509.0047 320.8333,501.6717 327.4993,494.3387 C321.4583,484.0047 311.8333,455.4047 310.3333,447.0387" id="Stroke-47" stroke="#000000" stroke-width="3" sketch:type="MSShapeGroup"></path>
                <path d="M273.2496,454.0574 C280.8326,463.0054 291.6376,492.6714 287.5686,507.0054" id="Stroke-49" stroke="#000000" stroke-width="3" sketch:type="MSShapeGroup"></path>
                <path d="M104.3331,375.5884 C109.8331,378.3384 119.8331,378.6714 121.5001,378.6714 C123.1661,378.6714 122.1971,376.8094 125.4531,376.0054 C129.6041,374.9804 134.5791,379.2854 130.8331,383.8384 C139.3851,390.7204 131.7651,396.2344 130.4601,397.3384 C130.4601,397.3384 131.5001,400.3384 130.4601,403.0884 C129.4201,405.8384 122.5001,411.0054 119.2731,412.1204 C116.0471,413.2364 105.8331,412.1204 105.8331,412.1204 L113.5001,416.0054 C113.5001,416.0054 118.1661,414.0054 124.8621,412.1204 C131.5581,410.2364 130.1661,413.0054 130.4511,414.6714 C130.7351,416.3384 124.5001,421.6714 122.1661,423.3384 C119.8331,425.0054 112.5001,425.0054 110.5001,425.0054 C108.5001,425.0054 102.1661,420.3384 97.5001,418.0054 C92.8331,415.6714 76.1661,401.3384 72.5001,396.3384 C68.8331,391.3384 68.8331,381.3384 72.5001,376.6714 C76.1661,372.0054 81.8331,369.6714 85.8331,369.6714 C85.8331,369.6714 98.6391,363.6714 101.4031,363.6714 C104.1661,363.6714 107.1661,362.6714 109.5001,363.6714 C111.8331,364.6714 118.3811,370.7874 119.2731,372.3964 C120.1661,374.0054 119.2731,376.6714 118.1551,378.4824" id="Stroke-51" stroke="#000000" stroke-width="3" sketch:type="MSShapeGroup"></path>
                <path d="M101.7375,388.5884 C101.7375,388.5884 113.0835,391.0884 118.3335,390.3384 C123.5835,389.5884 128.5995,384.9954 129.4605,383.8384" id="Stroke-53" stroke="#000000" sketch:type="MSShapeGroup"></path>
                <path d="M102.5831,399.8384 C102.5831,399.8384 113.8331,402.0884 117.3331,402.0884 C120.8331,402.0884 127.2201,399.3204 129.4601,396.6714" id="Stroke-55" stroke="#000000" sketch:type="MSShapeGroup"></path>
                <path d="M136.0336,162.0884 C131.0336,177.0884 126.4996,262.8384 126.1666,274.5884 C125.8326,286.3384 125.4066,375.2484 123.4536,376.9604" id="Stroke-57" stroke="#000000" stroke-width="3" sketch:type="MSShapeGroup"></path>
                <path d="M141.5831,144.3384 C134.8331,147.6714 120.7141,160.3384 117.2731,178.6714 C113.8331,197.0054 109.7661,239.1874 110.1001,258.8544 C110.4331,278.5204 120.7391,324.6874 125.2011,333.8384" id="Stroke-59" stroke="#000000" stroke-width="3" sketch:type="MSShapeGroup"></path>
                <path d="M132.6172,151.0578 C126.7072,154.3908 108.1662,163.6718 95.8332,167.3388 C83.5002,171.0048 74.3332,186.8388 75.8332,207.8388 C77.3332,228.8388 80.8332,224.3388 80.0832,233.5888 C79.3332,242.8388 76.8332,266.6718 78.8332,276.0048 C77.8332,281.3388 77.8332,286.5888 77.3332,290.3388 C76.8332,294.0888 69.6662,312.5918 69.7502,323.4658 C75.0832,319.0888 83.3812,314.7548 92.6312,318.0048" id="Stroke-61" stroke="#000000" stroke-width="3" sketch:type="MSShapeGroup"></path>
                <path d="M99.4716,328.9725 C89.0676,318.2225 76.1486,319.7575 69.7496,323.4655 C68.4996,327.7985 66.0826,347.5885 66.0826,347.5885 C66.0826,347.5885 65.0826,351.0885 63.5826,357.3385 C62.0826,363.5885 62.3326,364.5885 63.5826,366.0885 C63.8326,368.8385 61.1526,381.4465 65.5826,385.5885 C67.8326,372.3965 68.8326,371.0885 77.0826,366.5885 C85.3326,362.0885 90.7176,367.4725 90.7176,367.4725" id="Stroke-63" stroke="#000000" stroke-width="3" sketch:type="MSShapeGroup"></path>
                <path d="M88.8331,227.5884 C90.0831,242.0884 96.3331,284.8384 97.5831,293.5884 C98.8331,302.3384 105.5831,330.3384 105.3331,342.5884 C105.0831,354.8384 104.0831,361.8664 104.0831,363.2274" id="Stroke-65" stroke="#000000" stroke-width="3" sketch:type="MSShapeGroup"></path>
                <path d="M65.5831,385.5884 C66.3331,393.2684 71.3331,417.5884 78.0831,422.5884 C84.8331,427.5884 92.5121,414.6234 92.7041,414.7684" id="Stroke-67" stroke="#000000" stroke-width="3" sketch:type="MSShapeGroup"></path>
                <path d="M71.2401,394.1162 C73.3231,403.1162 76.6881,416.3382 81.0111,417.0882 C85.3331,417.8382 86.8331,415.9032 88.8331,412.1212" id="Stroke-69" stroke="#000000" stroke-width="3" sketch:type="MSShapeGroup"></path>
                <path d="M118.3331,425.0051 C116.8331,434.2551 104.7831,512.0881 101.1831,514.3381 C97.5831,516.5881 92.7041,515.5881 88.8331,509.3381 C86.5831,506.5881 89.1831,498.0581 90.5831,492.0881 C92.2741,484.8761 101.5831,431.2271 102.5831,420.9081" id="Stroke-71" stroke="#000000" stroke-width="3" sketch:type="MSShapeGroup"></path>
                <path d="M206.1087,157.7407 C206.1087,157.7407 165.3377,226.6717 159.5857,241.3387 C153.8327,256.0047 152.8327,263.3387 152.8327,266.6717 C152.8327,270.0047 144.8327,390.8387 148.8327,403.0887 C152.8327,415.3387 180.8327,443.3387 184.1667,445.0047 C190.1667,441.5887 234.8297,425.0047 234.8297,425.0047" id="Stroke-73" stroke="#000000" stroke-width="3" sketch:type="MSShapeGroup"></path>
                <path d="M141.5101,182.3384 C140.7601,193.0054 147.2521,230.7554 159.5851,241.3384" id="Stroke-75" stroke="#000000" stroke-width="3" sketch:type="MSShapeGroup"></path>
                <path d="M116.1655,438.5884 C116.1655,438.5884 132.1675,445.7384 134.8335,447.0384 C138.1665,442.8134 148.1185,420.4974 154.9755,413.7514" id="Stroke-77" stroke="#000000" stroke-width="3" sketch:type="MSShapeGroup"></path>
                <path d="M164.8605,291.1718 C164.8605,293.2888 163.3045,295.0048 161.3855,295.0048 C159.4655,295.0048 157.9095,293.2888 157.9095,291.1718 C157.9095,289.0548 159.4655,287.3388 161.3855,287.3388 C163.3045,287.3388 164.8605,289.0548 164.8605,291.1718 L164.8605,291.1718 Z" id="Stroke-79" stroke="#000000" stroke-width="2" sketch:type="MSShapeGroup"></path>
                <path d="M166.8605,254.1718 C166.8605,256.2888 165.3045,258.0048 163.3855,258.0048 C161.4655,258.0048 159.9095,256.2888 159.9095,254.1718 C159.9095,252.0548 161.4655,250.3388 163.3855,250.3388 C165.3045,250.3388 166.8605,252.0548 166.8605,254.1718 L166.8605,254.1718 Z" id="Stroke-81" stroke="#000000" stroke-width="2" sketch:type="MSShapeGroup"></path>
                <path d="M161.8605,327.1718 C161.8605,329.2888 160.3045,331.0048 158.3855,331.0048 C156.4655,331.0048 154.9095,329.2888 154.9095,327.1718 C154.9095,325.0548 156.4655,323.3388 158.3855,323.3388 C160.3045,323.3388 161.8605,325.0548 161.8605,327.1718 L161.8605,327.1718 Z" id="Stroke-83" stroke="#000000" stroke-width="2" sketch:type="MSShapeGroup"></path>
                <path d="M158.8605,363.1718 C158.8605,365.2888 157.3045,367.0048 155.3855,367.0048 C153.4655,367.0048 151.9095,365.2888 151.9095,363.1718 C151.9095,361.0548 153.4655,359.3388 155.3855,359.3388 C157.3045,359.3388 158.8605,361.0548 158.8605,363.1718 L158.8605,363.1718 Z" id="Stroke-85" stroke="#000000" stroke-width="2" sketch:type="MSShapeGroup"></path>
                <path d="M158.8605,399.1718 C158.8605,401.2888 157.3045,403.0048 155.3855,403.0048 C153.4655,403.0048 151.9095,401.2888 151.9095,399.1718 C151.9095,397.0548 153.4655,395.3388 155.3855,395.3388 C157.3045,395.3388 158.8605,397.0548 158.8605,399.1718 L158.8605,399.1718 Z" id="Stroke-87" stroke="#000000" stroke-width="2" sketch:type="MSShapeGroup"></path>
                <path d="M164.8605,172.8384 C163.0835,185.8384 161.5475,227.5234 161.9955,236.0234" id="Stroke-89" stroke="#000000" stroke-width="3" sketch:type="MSShapeGroup"></path>
                <path d="M99.4997,515.4347 C99.4997,515.4347 118.8327,659.0047 120.4997,668.6717 C122.1667,678.3387 143.8327,807.3387 145.1667,812.6717 C146.4997,818.0047 152.1667,860.3387 152.1667,865.3387 C152.1667,870.3387 150.1667,879.0047 150.1667,879.0047 C150.1667,879.0047 151.3197,883.6717 160.9097,886.6717 C170.4997,889.6717 188.8327,887.3387 195.4997,885.3387" id="Stroke-91" stroke="#000000" stroke-width="3" sketch:type="MSShapeGroup"></path>
                <path d="M144.0987,430.3947 C143.4797,443.5927 147.4857,482.8387 157.4097,495.8387 C168.8847,520.8387 167.8987,542.0887 169.5827,558.5887 C171.4437,574.9217 178.1667,669.3387 179.1667,678.0047 C180.1667,686.6717 187.4997,774.3387 188.8327,783.0047 C190.1667,791.6717 198.4997,906.3387 198.4997,906.3387 C198.4997,906.3387 209.1667,915.3387 213.1667,915.3387 C217.1667,915.3387 246.1667,910.3387 246.1667,908.3387 C246.1667,906.3387 244.8327,870.0047 246.1667,857.6717 C247.4997,845.3387 251.1767,744.6717 251.1767,733.0047 C253.8547,720.6717 255.1667,715.0047 255.1667,701.6717 C255.1667,688.3387 249.8327,622.3387 251.4997,613.6717 C253.1667,605.0047 257.8327,568.6717 261.1667,556.0047 C264.4997,543.3387 270.1667,502.7657 270.3327,485.4317" id="Stroke-93" stroke="#000000" stroke-width="3" sketch:type="MSShapeGroup"></path>
                <path d="M162.9673,423.7361 C161.3903,445.3381 156.4863,467.8381 157.4093,495.8381" id="Stroke-95" stroke="#000000" stroke-width="3" sketch:type="MSShapeGroup"></path>
                <path d="M125.8318,485.0884 C153.0068,487.5634 158.8608,498.8384 181.3328,505.5884 C207.3168,513.3934 234.8298,516.8384 244.0828,515.4344" id="Stroke-97" stroke="#000000" stroke-width="3" sketch:type="MSShapeGroup"></path>
                <path d="M169.0831,507.0051 C176.0831,514.3381 197.5721,523.0091 217.0831,529.5881" id="Stroke-99" stroke="#000000" stroke-width="3" sketch:type="MSShapeGroup"></path>
                <path d="M198.4997,906.3384 C196.8327,913.8384 193.6667,936.8384 195.4997,942.3384 C197.9647,944.0874 201.2867,947.8384 207.1847,947.5884 C213.0827,947.3384 205.8327,955.5884 209.0827,958.5884 C212.3327,961.5884 215.5827,966.3384 225.8327,966.5884 C236.0827,966.8384 260.8327,965.5884 264.0827,965.3384 C267.3327,965.0884 267.3327,949.8384 264.0827,943.5884 C260.8327,937.3384 244.8327,918.8984 242.5827,909.9934" id="Stroke-101" stroke="#000000" stroke-width="3" sketch:type="MSShapeGroup"></path>
                <path d="M195.3769,928.3422 C197.2619,933.5922 204.7869,936.3382 207.1849,940.8382 C209.5829,945.3382 209.4199,947.0452 209.4639,948.6402 C209.5089,950.2362 211.0829,955.8382 214.3329,957.5882 C217.5829,959.3382 222.3839,960.5882 230.7329,960.5882 C239.0829,960.5882 256.1959,960.0652 261.3329,959.3382 C266.4709,958.6112 266.4269,954.0822 266.4269,954.0822" id="Stroke-103" stroke="#000000" stroke-width="2" sketch:type="MSShapeGroup"></path>
                <path d="M257.933,934.5809 C246.415,925.8969 224.1,931.2559 216.833,936.4799 C216.333,930.7339 210.833,926.7019 202.166,926.7019 C202.166,926.7019 193.833,926.7019 196.325,916.9249" id="Stroke-105" stroke="#000000" stroke-width="2" sketch:type="MSShapeGroup"></path>
                <path d="M230.7332,912.6711 C232.7302,916.0321 235.2842,923.5881 239.8342,929.9961" id="Stroke-107" stroke="#000000" stroke-width="2" sketch:type="MSShapeGroup"></path>
                <path d="M227.129,927.5884 C230.733,922.0884 241.833,921.1774 245.583,926.3384" id="Stroke-109" stroke="#000000" stroke-width="2" sketch:type="MSShapeGroup"></path>
                <path d="M225.129,921.5884 C228.733,916.0884 239.833,915.1774 243.583,920.3384" id="Stroke-111" stroke="#000000" stroke-width="2" sketch:type="MSShapeGroup"></path>
                <path d="M149.9997,879.0032 C141.9997,888.6702 134.4167,903.3372 119.4167,911.0042 C104.4167,918.6712 92.3827,917.0002 89.0487,928.3422 C86.3827,928.3422 86.4787,934.0052 86.4787,934.0052 C86.4787,934.0052 87.4897,936.6712 99.4897,938.0052 C111.4897,939.3382 131.9947,941.2882 151.6617,936.4802 C171.3277,931.6712 166.4997,924.5052 181.4997,921.5882 L181.4997,928.3382 C181.4997,928.3382 190.0587,931.0662 194.2797,926.7022" id="Stroke-113" stroke="#000000" stroke-width="3" sketch:type="MSShapeGroup"></path>
                <path d="M89.049,928.3422 C95.166,930.6722 133.166,936.3382 148.833,932.0052 C164.5,927.6722 167.882,916.6272 182.5,915.3382 L197.117,914.0492" id="Stroke-115" stroke="#000000" stroke-width="2" sketch:type="MSShapeGroup"></path>
                <path d="M126.3659,906.6162 C133.8329,908.6722 143.8329,913.4272 151.4999,914.0492 C159.1669,914.6722 165.4999,908.2132 175.8329,909.2762 C186.1669,910.3382 185.4999,912.6712 185.4999,912.6712 C185.4999,912.6712 195.7669,908.9612 198.1329,901.3162" id="Stroke-117" stroke="#000000" stroke-width="2" sketch:type="MSShapeGroup"></path>
                <path d="M153.4423,882.7442 C146.5943,891.8782 139.5313,901.3852 131.9223,907.7562" id="Stroke-119" stroke="#000000" stroke-width="2" sketch:type="MSShapeGroup"></path>
                <path d="M142.6821,888.1051 C147.5001,883.3381 154.8331,885.6551 156.8331,892.0051" id="Stroke-121" stroke="#000000" stroke-width="2" sketch:type="MSShapeGroup"></path>
                <path d="M136.6821,896.1051 C141.5001,891.3381 148.8331,893.6551 150.8331,900.0051" id="Stroke-123" stroke="#000000" stroke-width="2" sketch:type="MSShapeGroup"></path>
                <path d="M253.8918,469.8705 C259.7248,478.9335 263.3328,485.0885 263.3328,485.0885" id="Stroke-125" stroke="#000000" stroke-width="2" sketch:type="MSShapeGroup"></path>
                <g id="Group-130" sketch:type="MSShapeGroup">
                    <path d="M19.5,9 L19.5,966" id="Fill-127" fill="#FFFFFF"></path>
                    <path d="M19.5,9 L19.5,966" id="Stroke-129" stroke="#FF0000" stroke-width="5"></path>
                </g>
                <g id="Group-134" sketch:type="MSShapeGroup">
                    <path d="M0,8.5 L39,8.5" id="Fill-131" fill="#FFFFFF"></path>
                    <path d="M0,8.5 L39,8.5" id="Stroke-133" stroke="#FF0000" stroke-width="5"></path>
                </g>
                <g id="Group-138" sketch:type="MSShapeGroup">
                    <path d="M0,966.5 L39,966.5" id="Fill-135" fill="#FFFFFF"></path>
                    <path d="M0,966.5 L39,966.5" id="Stroke-137" stroke="#FF0000" stroke-width="5"></path>
                </g>
            </g>
        </g>
    </g>
</svg>