<?xml version="1.0" encoding="UTF-8" standalone="no"?>
<svg width="329px" height="445px" viewBox="0 0 329 445" version="1.1" xmlns="http://www.w3.org/2000/svg" xmlns:xlink="http://www.w3.org/1999/xlink" xmlns:sketch="http://www.bohemiancoding.com/sketch/ns">
    <!-- Generator: Sketch 3.4.4 (17249) - http://www.bohemiancoding.com/sketch -->
    <title>PANT WAIST</title>
    <desc>Created with Sketch.</desc>
    <defs></defs>
    <g id="Page-1" stroke="none" stroke-width="1" fill="none" fill-rule="evenodd" sketch:type="MSPage">
        <g id="PANT-WAIST" sketch:type="MSArtboardGroup">
            <g id="Page-1" sketch:type="MSLayerGroup" transform="translate(26.000000, 7.000000)">
                <path d="M32.4965,133.3413 C25.1635,144.0083 19.8295,166.0083 14.4965,182.0083 C9.1635,198.0083 7.8295,230.6743 5.8295,251.3413 C3.8295,272.0083 2.4965,396.6743 0.4965,426.0083" id="Stroke-1" stroke="#000000" stroke-width="3" sketch:type="MSShapeGroup"></path>
                <path d="M248.4965,141.3413 C252.4965,161.3413 260.4965,235.3413 261.8295,246.0083 C263.1635,256.6743 263.8295,334.6743 261.8295,354.0083 C259.8295,373.3413 259.1635,430.0083 259.1635,430.0083" id="Stroke-3" stroke="#000000" stroke-width="3" sketch:type="MSShapeGroup"></path>
                <path d="M124.4965,151.3413 C123.8295,164.0083 122.4965,249.3413 124.4965,258.0083 C126.4965,266.6743 127.1635,275.3413 127.8295,278.0083 C128.4965,280.6743 128.4965,312.0083 131.1635,327.3413 C133.8295,342.6743 133.1635,354.6743 137.1635,372.6743 C141.1635,390.6743 141.1635,412.6743 143.8295,430.0083" id="Stroke-5" stroke="#000000" stroke-width="3" sketch:type="MSShapeGroup"></path>
                <path d="M133.8299,362.0079 C133.8299,362.0079 131.8299,374.0079 130.4969,384.6749 C129.1629,395.3409 125.1629,418.6749 122.4969,430.6749" id="Stroke-7" stroke="#000000" stroke-width="3" sketch:type="MSShapeGroup"></path>
                <path d="M129.1632,284.0079 C135.8302,284.0079 150.4962,283.3409 150.4962,283.3409 C150.4962,283.3409 153.8302,179.3409 153.1632,151.3409" id="Stroke-9" stroke="#000000" stroke-width="2" sketch:type="MSShapeGroup"></path>
                <path d="M37.8299,104.3413 C34.5349,102.2443 30.8299,126.8413 30.8299,130.8413 C30.8299,134.8413 54.3299,139.8413 65.8299,142.3413 C66.3299,130.8413 71.3299,114.3413 71.3299,114.3413 C71.3299,114.3413 48.8299,111.3413 37.8299,104.3413 L37.8299,104.3413 Z" id="Stroke-11" stroke="#000000" stroke-width="3" sketch:type="MSShapeGroup"></path>
                <path d="M84.3299,116.8413 C84.3299,116.8413 79.8299,132.3413 80.8299,145.8413 C81.3299,149.3413 113.3299,151.3413 117.8299,150.8413 C117.8299,140.8413 117.8299,125.8413 119.3299,121.8413 C115.3299,121.3413 84.3299,116.8413 84.3299,116.8413 L84.3299,116.8413 Z" id="Stroke-13" stroke="#000000" stroke-width="3" sketch:type="MSShapeGroup"></path>
                <path d="M245.3299,110.3413 C250.3299,120.3413 249.8299,134.3413 250.3299,139.3413 C246.8299,141.3413 230.8299,146.3413 217.8299,146.8413 C217.8299,136.3413 215.8299,125.3413 213.3299,117.3413 C219.8299,116.3413 235.3299,115.8413 245.3299,110.3413 L245.3299,110.3413 Z" id="Stroke-15" stroke="#000000" stroke-width="3" sketch:type="MSShapeGroup"></path>
                <path d="M199.3299,119.3413 C202.8299,129.3413 201.8299,144.8413 202.3299,148.3413 C196.8299,149.3413 167.3299,152.8413 155.8299,151.3413 C156.8299,143.8413 157.8299,127.3413 156.3299,122.8413 C163.3299,121.3413 188.8299,120.8413 199.3299,119.3413 L199.3299,119.3413 Z" id="Stroke-17" stroke="#000000" stroke-width="3" sketch:type="MSShapeGroup"></path>
                <path d="M36.8638,104.3413 L37.8468,98.3413 C37.8468,98.3413 61.1218,114.3413 138.1218,115.8413 C215.1218,117.3413 243.3978,103.8413 243.3978,103.8413 L243.3978,110.3413" id="Stroke-19" stroke="#000000" stroke-width="3" sketch:type="MSShapeGroup"></path>
                <path d="M27.8299,0.8413 C26.3299,15.3413 29.8299,43.8413 25.8299,55.8413 C21.8299,67.8413 19.3299,87.8413 39.3299,98.8413" id="Stroke-21" stroke="#000000" stroke-width="3" sketch:type="MSShapeGroup"></path>
                <path d="M254.3299,1.3413 C254.3299,19.3413 252.6269,32.1103 253.8299,45.3413 C254.3299,50.8413 254.3039,68.4263 256.3299,74.8413 C259.3299,84.3413 261.8299,94.8413 243.3299,103.8413" id="Stroke-23" stroke="#000000" stroke-width="3" sketch:type="MSShapeGroup"></path>
                <path d="M140.8299,1.3413 C141.8299,10.8413 140.8299,23.3413 139.8299,29.3413 C137.9519,40.6093 129.8299,43.3413 136.3299,61.3413 C142.3339,77.9683 117.3299,81.3413 138.0799,115.8413" id="Stroke-25" stroke="#000000" stroke-width="2" sketch:type="MSShapeGroup"></path>
                <path d="M144.6696,97.7945 C145.4126,100.1665 144.5206,102.5575 142.6756,103.1355 C140.8316,103.7135 138.7336,102.2595 137.9896,99.8885 C137.2466,97.5165 138.1396,95.1255 139.9836,94.5475 C141.8286,93.9695 143.9266,95.4225 144.6696,97.7945 L144.6696,97.7945 Z" id="Stroke-27" stroke="#000000" stroke-width="2" sketch:type="MSShapeGroup"></path>
                <path d="M147.6696,56.7945 C148.4126,59.1665 147.5206,61.5575 145.6756,62.1355 C143.8316,62.7135 141.7336,61.2595 140.9896,58.8885 C140.2466,56.5165 141.1396,54.1255 142.9836,53.5475 C144.8286,52.9695 146.9266,54.4225 147.6696,56.7945 L147.6696,56.7945 Z" id="Stroke-29" stroke="#000000" stroke-width="2" sketch:type="MSShapeGroup"></path>
                <path d="M153.4732,15.3805 C152.3802,17.6125 150.0872,18.7325 148.3512,17.8825 C146.6152,17.0325 146.0932,14.5345 147.1862,12.3025 C148.2792,10.0705 150.5732,8.9495 152.3092,9.7995 C154.0452,10.6495 154.5662,13.1485 153.4732,15.3805 L153.4732,15.3805 Z" id="Stroke-31" stroke="#000000" stroke-width="2" sketch:type="MSShapeGroup"></path>
                <path d="M152.6443,152.4155 L121.8033,152.4155 C118.7723,152.4155 116.2933,149.9365 116.2933,146.9055 L116.2933,127.0135 C116.2933,123.9835 118.7723,121.5045 121.8033,121.5045 L152.6443,121.5045 C155.6743,121.5045 158.1543,123.9835 158.1543,127.0135 L158.1543,146.9055 C158.1543,149.9365 155.6743,152.4155 152.6443,152.4155" id="Fill-33" fill="#FFFFFF" sketch:type="MSShapeGroup"></path>
                <path d="M152.6443,152.4155 L121.8033,152.4155 C118.7723,152.4155 116.2933,149.9365 116.2933,146.9055 L116.2933,127.0135 C116.2933,123.9835 118.7723,121.5045 121.8033,121.5045 L152.6443,121.5045 C155.6743,121.5045 158.1543,123.9835 158.1543,127.0135 L158.1543,146.9055 C158.1543,149.9365 155.6743,152.4155 152.6443,152.4155 L152.6443,152.4155 Z" id="Stroke-35" stroke="#000000" stroke-width="2" sketch:type="MSShapeGroup"></path>
                <path d="M148.9894,148.9168 L125.8034,148.9168 C122.7724,148.9168 120.2934,146.4378 120.2934,143.4068 L120.2934,131.0358 C120.2934,128.0058 122.7724,125.5258 125.8034,125.5258 L148.9894,125.5258 C152.0194,125.5258 154.4994,128.0058 154.4994,131.0358 L154.4994,143.4068 C154.4994,146.4378 152.0194,148.9168 148.9894,148.9168" id="Fill-37" fill="#FFFFFF" sketch:type="MSShapeGroup"></path>
                <path d="M148.9894,148.9168 L125.8034,148.9168 C122.7724,148.9168 120.2934,146.4378 120.2934,143.4068 L120.2934,131.0358 C120.2934,128.0058 122.7724,125.5258 125.8034,125.5258 L148.9894,125.5258 C152.0194,125.5258 154.4994,128.0058 154.4994,131.0358 L154.4994,143.4068 C154.4994,146.4378 152.0194,148.9168 148.9894,148.9168 L148.9894,148.9168 Z" id="Stroke-39" stroke="#000000" stroke-width="2" sketch:type="MSShapeGroup"></path>
                <path d="M132.0981,139.3411 L120.9961,139.3411 C119.9881,139.3411 119.1631,138.5161 119.1631,137.5081 C119.1631,136.4991 119.9881,135.6741 120.9961,135.6741 L132.0981,135.6741 C133.1061,135.6741 133.9311,136.4991 133.9311,137.5081 C133.9311,138.5161 133.1061,139.3411 132.0981,139.3411" id="Fill-41" fill="#FFFFFF" sketch:type="MSShapeGroup"></path>
                <path d="M132.0981,139.3411 L120.9961,139.3411 C119.9881,139.3411 119.1631,138.5161 119.1631,137.5081 C119.1631,136.4991 119.9881,135.6741 120.9961,135.6741 L132.0981,135.6741 C133.1061,135.6741 133.9311,136.4991 133.9311,137.5081 C133.9311,138.5161 133.1061,139.3411 132.0981,139.3411 L132.0981,139.3411 Z" id="Stroke-43" stroke="#000000" stroke-width="2" sketch:type="MSShapeGroup"></path>
                <path d="M264.3615,83.7908 C276.6015,84.7498 277.5395,92.1078 276.5275,94.4678 C271.1075,107.1048 215.2635,117.7498 139.9195,117.7498 C64.5755,117.7498 3.4965,106.6028 3.4965,92.8538 C3.4965,90.6478 5.7345,83.7908 17.7225,83.7908" id="Stroke-45" stroke="#FF0000" stroke-width="5" sketch:type="MSShapeGroup"></path>
                <path d="M264.3977,71.3413 L264.3977,96.3413" id="Stroke-47" stroke="#FF0000" stroke-width="5" sketch:type="MSShapeGroup"></path>
                <path d="M17.3977,71.3413 L17.3977,96.3413" id="Stroke-49" stroke="#FF0000" stroke-width="5" sketch:type="MSShapeGroup"></path>
            </g>
        </g>
    </g>
</svg>