<?xml version="1.0" encoding="utf-8"?>
<!-- Generator: Adobe Illustrator 16.0.0, SVG Export Plug-In . SVG Version: 6.00 Build 0)  -->
<!DOCTYPE svg PUBLIC "-//W3C//DTD SVG 1.1//EN" "http://www.w3.org/Graphics/SVG/1.1/DTD/svg11.dtd">
<svg version="1.1" id="Layer_1" xmlns:sketch="http://www.bohemiancoding.com/sketch/ns"
	 xmlns="http://www.w3.org/2000/svg" xmlns:xlink="http://www.w3.org/1999/xlink" x="0px" y="0px" width="342px" height="893px"
	 viewBox="0 0 342 893" enable-background="new 0 0 342 893" xml:space="preserve">
<title>Pants OutSeam</title>
<desc>Created with Sketch.</desc>
<g id="Page-1_1_" sketch:type="MSPage">
	<g id="Pants-OutSeam" sketch:type="MSArtboardGroup">
		<g id="Page-1" transform="translate(41.000000, 11.000000)" sketch:type="MSLayerGroup">
			<path id="Stroke-1" sketch:type="MSShapeGroup" fill="none" stroke="#000000" stroke-width="3" d="M223.494,122.518
				c6.707,5.4,21.813,18.797,21.813,18.797s6.841-15.392,5.986-25.653c-6.253-6.493-12.736-13.076-19.952-15.962
				C231.342,99.7,231.037,109.422,223.494,122.518L223.494,122.518z"/>
			<path id="Stroke-3" sketch:type="MSShapeGroup" fill="none" stroke="#000000" stroke-width="3" d="M90.82,90.864
				c-4.87,0.371-11.642-0.662-19.952-0.855c0.855-5.131,2.565-23.088,2.565-23.088c2.257-0.564,8.648-1.279,19.952-0.57
				C93.385,66.351,90.535,76.612,90.82,90.864L90.82,90.864z"/>
			<path id="Stroke-5" sketch:type="MSShapeGroup" fill="none" stroke="#000000" stroke-width="3" d="M103.383,91.733
				c28.767,1.126,80.358,15.378,109.146,25.354c5.131-5.131,8.266-21.663,8.266-21.663c-36.352-17.278-84.191-25.244-115.723-27.933
				C105.072,67.491,101.366,79.747,103.383,91.733L103.383,91.733z"/>
			<path id="Stroke-7" sketch:type="MSShapeGroup" fill="none" stroke="#000000" stroke-width="3" d="M194.857,388.438
				c-4.275,26.508-41.045,167.6-55.581,192.397c4.274,23.942-4.276,108.597-0.854,124.844c3.42,15.392,22.231,44.465,21.377,47.031
				c-0.855,2.564-16.248,11.971-26.509,15.391"/>
			<path id="Stroke-9" sketch:type="MSShapeGroup" fill="none" stroke="#000000" stroke-width="3" d="M251.863,119.367
				c2.851,0,6.842,1.14,6.271,3.42c-0.57,2.281-4.561,16.532-6.271,18.242c-1.709,1.711-6.556,0.286-6.556,0.286
				c-3.42,20.522-11.116,43.609-11.971,53.871c-0.855,10.261-5.986,88.075-12.827,106.032
				c-6.84,17.957-39.334,135.105-46.176,149.642c-6.84,14.537-53.87,163.323-54.725,174.439s1.71,36.77,1.71,47.03
				s-4.275,47.031-3.42,56.438c0.855,9.405,29.073,70.117,29.073,70.973c0,0.854-30.783,10.261-46.175,12.826
				c-15.392,2.564-73.539,7.695-77.814,7.695c-3.421-7.695-23.088-212.063-21.378-230.876
				c1.711-18.812,24.798-126.555,25.653-133.396c0.855-6.84-3.42-30.783,0.855-44.465c-2.565-13.682,5.986-55.581,8.551-61.567
				c-5.985-5.985-10.261-29.928-7.695-50.45c2.565-20.523,5.985-49.596,3.42-73.539c0.855-23.943,7.318-77.975,12.826-88.075
				c5.131-9.406,25.653-47.885,25.653-47.885"/>
			<path id="Stroke-11" sketch:type="MSShapeGroup" fill="none" stroke="#000000" stroke-width="3" d="M143.551,801.735
				c8.552,5.7,31.354,19.952,41.045,22.232c9.691,2.28,25.084,6.271,34.205,8.551c9.69,3.99,7.41,12.541,2.279,14.821
				s-13.111,10.831-33.634,10.831s-61.567,3.991-89.5-9.121c-27.933-13.11-37.054-21.662-37.054-21.662l-0.571,7.411
				c0,0-22.232,1.141-30.783-2.28c-2.28-4.561-2.85-13.111-2.85-12.542"/>
			<path id="Stroke-13" sketch:type="MSShapeGroup" fill="none" stroke="#000000" stroke-width="2" d="M106.495,706.017
				c-1.329,11.037-11.099,17.346-21.419,12.261c-10.319-5.086-37.858-23.972-50.034-35.641"/>
			<path id="Stroke-15" sketch:type="MSShapeGroup" fill="none" stroke="#000000" stroke-width="2" d="M59.752,818.267
				c9.691,4.562,37.054,27.934,63.847,31.354c26.793,3.42,71.259,4.56,75.819,3.99c4.561-0.57,12.541-2.851,14.822-3.42"/>
			<path id="Stroke-17" sketch:type="MSShapeGroup" fill="none" stroke="#000000" stroke-width="2" d="M88.825,815.559
				c4.275,5.559,31.211,18.812,49.596,16.96c11.972-1.71,20.808-4.988,19.667-11.828c4.786,1.091,10.689-0.429,12.826-2.993"/>
			<path id="Stroke-19" sketch:type="MSShapeGroup" fill="none" stroke="#000000" stroke-width="2" d="M159.371,821.117
				c-6.562-6.562-16.248-14.109-22.66-17.53"/>
			<path id="Stroke-21" sketch:type="MSShapeGroup" fill="none" stroke="#000000" stroke-width="2" d="M142.696,817.697
				c2.565-5.986,10.688-8.552,14.964-5.131"/>
			<path id="Stroke-23" sketch:type="MSShapeGroup" fill="none" stroke="#000000" stroke-width="2" d="M135,811.711
				c2.565-5.985,10.689-8.551,14.965-5.131"/>
			<path id="Stroke-25" sketch:type="MSShapeGroup" fill="none" stroke="#000000" stroke-width="3" d="M159.799,752.709
				c5.985,3.42,35.486,11.545,50.45,12.399s19.667,2.565,21.806,3.848c2.137,1.283,3.42,6.413,2.137,8.552
				c-1.282,2.138-18.242,14.821-47.315,14.821s-43.04-0.286-43.04-0.286"/>
			<path id="Stroke-27" sketch:type="MSShapeGroup" fill="none" stroke="#000000" stroke-width="2" d="M140.131,785.488
				c12.541,1.425,62.992,2.85,78.669,0.57"/>
			<path id="Stroke-29" sketch:type="MSShapeGroup" fill="none" stroke="#000000" stroke-width="2" d="M137.566,767.816
				c10.26,2.564,52.73,7.126,57.291,4.846c4.561-2.281,6.555-4.846,5.7-8.266"/>
			<path id="Stroke-31" sketch:type="MSShapeGroup" fill="none" stroke="#000000" stroke-width="2" d="M181.461,764.966
				c1.14-5.986,7.126-8.266,9.691-3.42"/>
			<path id="Stroke-33" sketch:type="MSShapeGroup" fill="none" stroke="#000000" stroke-width="2" d="M169.489,761.546
				c1.14-5.986,7.126-8.267,9.69-3.421"/>
			<path id="Stroke-35" sketch:type="MSShapeGroup" fill="none" stroke="#000000" stroke-width="2" d="M157.518,758.98
				c1.141-5.986,7.127-8.267,9.691-3.42"/>
			<path id="Stroke-37" sketch:type="MSShapeGroup" fill="none" stroke="#000000" stroke-width="3" d="M73.434,66.921
				c-6.271-11.401-8.551-7.981-14.252-22.803c-5.7-14.821-7.41-37.624-8.551-40.474"/>
			<path id="Stroke-39" sketch:type="MSShapeGroup" fill="none" stroke="#000000" stroke-width="3" d="M251.294,115.662
				c3.989-4.276,2.85-23.088,0.569-35.629c-2.279-12.542,0-57.577-1.14-68.408l-1.14-10.831"/>
			<path id="Stroke-41" sketch:type="MSShapeGroup" fill="none" stroke="#000000" stroke-width="2" d="M206.4,187.917
				c3.724-14.892,6.842-36.769,9.406-56.864c0,0,8.125,61.567,5.986,99.619"/>
			<path id="Stroke-43" sketch:type="MSShapeGroup" fill="none" stroke="#000000" stroke-width="2" d="M130.725,94.284
				c-2.138,22.233-15.819,110.308-18.385,127.41c-2.565,17.102-12.399,73.538-13.254,83.799
				c-0.855,10.261-50.878,274.914-48.313,297.147c2.566,22.231,0.428,81.66-5.985,87.22c-6.414,5.558-3.848,15.819-2.138,25.651
				c1.71,9.834,6.413,93.635,8.551,102.186"/>
			<path id="Stroke-45" sketch:type="MSShapeGroup" fill="none" stroke="#000000" stroke-width="2" d="M125.594,93.429
				c-2.138,22.233-15.819,110.308-18.385,127.41c-2.565,17.102-12.399,73.538-13.254,83.799
				C93.1,314.899,43.077,579.552,45.642,601.785c2.566,22.232,0.428,81.661-5.985,87.22c-6.414,5.559-3.848,15.819-2.138,25.652
				c1.71,9.834,6.413,93.634,8.551,102.185"/>
			<path id="Stroke-47" sketch:type="MSShapeGroup" fill="none" stroke="#000000" stroke-width="3" d="M115.761,200.316
				c11.544-8.551,47.885-57.719,54.726-97.481"/>
			<path id="Stroke-49" sketch:type="MSShapeGroup" fill="none" stroke="#000000" stroke-width="3" d="M71.153,63.216
				c40.19-5.416,146.507,11.686,182.136,47.03"/>
			<g id="Group-54" sketch:type="MSShapeGroup">
				<path id="Stroke-53_1_" fill="none" stroke="#FF0000" stroke-width="5" d="M132.147,64.333
					C74.455,425.753,76.985,427.176,66.165,473.77c-43.047,185.369-12.94,369.743-14.323,364.212"/>
			</g>
			<g id="Group-58" sketch:type="MSShapeGroup">
				<path id="Fill-55" fill="#FFFFFF" d="M93.147,53.5h39"/>
				<path id="Stroke-57" fill="none" stroke="#FF0000" stroke-width="5" d="M113.771,62.231h39"/>
			</g>
			<g id="Group-62" sketch:type="MSShapeGroup">
				<path id="Fill-59" fill="#FFFFFF" d="M93.147,866.5h39"/>
				<path id="Stroke-61" fill="none" stroke="#FF0000" stroke-width="5" d="M33.187,840h39"/>
			</g>
		</g>
	</g>
</g>
</svg>
