<?xml version="1.0" encoding="UTF-8" standalone="no"?>
<svg width="342px" height="445px" viewBox="0 0 342 445" version="1.1" xmlns="http://www.w3.org/2000/svg" xmlns:xlink="http://www.w3.org/1999/xlink" xmlns:sketch="http://www.bohemiancoding.com/sketch/ns">
    <!-- Generator: Sketch 3.4.3 (16618) - http://www.bohemiancoding.com/sketch -->
    <title>Pants Hips</title>
    <desc>Created with Sketch.</desc>
    <defs></defs>
    <g id="Page-1" stroke="none" stroke-width="1" fill="none" fill-rule="evenodd" sketch:type="MSPage">
        <g id="Pants-Hips" sketch:type="MSArtboardGroup">
            <g id="Page-1" sketch:type="MSLayerGroup" transform="translate(22.000000, 7.000000)">
                <path d="M49.5,133.3413 C42.167,144.0083 36.833,166.0083 31.5,182.0083 C26.167,198.0083 24.833,230.6743 22.833,251.3413 C20.833,272.0083 19.5,396.6743 17.5,426.0083" id="Stroke-1" stroke="#000000" stroke-width="3" sketch:type="MSShapeGroup"></path>
                <path d="M265.5,141.3413 C269.5,161.3413 277.5,235.3413 278.833,246.0083 C280.167,256.6743 280.833,334.6743 278.833,354.0083 C276.833,373.3413 276.167,430.0083 276.167,430.0083" id="Stroke-3" stroke="#000000" stroke-width="3" sketch:type="MSShapeGroup"></path>
                <path d="M141.5,151.3413 C140.833,164.0083 139.5,249.3413 141.5,258.0083 C143.5,266.6743 144.167,275.3413 144.833,278.0083 C145.5,280.6743 145.5,312.0083 148.167,327.3413 C150.833,342.6743 150.167,354.6743 154.167,372.6743 C158.167,390.6743 158.167,412.6743 160.833,430.0083" id="Stroke-5" stroke="#000000" stroke-width="3" sketch:type="MSShapeGroup"></path>
                <path d="M150.8333,362.0079 C150.8333,362.0079 148.8333,374.0079 147.5003,384.6749 C146.1663,395.3409 142.1663,418.6749 139.5003,430.6749" id="Stroke-7" stroke="#000000" stroke-width="3" sketch:type="MSShapeGroup"></path>
                <path d="M146.1667,284.0079 C152.8337,284.0079 167.4997,283.3409 167.4997,283.3409 C167.4997,283.3409 170.8337,179.3409 170.1667,151.3409" id="Stroke-9" stroke="#000000" stroke-width="2" sketch:type="MSShapeGroup"></path>
                <path d="M54.8333,104.3413 C51.5383,102.2443 47.8333,126.8413 47.8333,130.8413 C47.8333,134.8413 71.3333,139.8413 82.8333,142.3413 C83.3333,130.8413 88.3333,114.3413 88.3333,114.3413 C88.3333,114.3413 65.8333,111.3413 54.8333,104.3413 L54.8333,104.3413 Z" id="Stroke-11" stroke="#000000" stroke-width="3" sketch:type="MSShapeGroup"></path>
                <path d="M101.3333,116.8413 C101.3333,116.8413 96.8333,132.3413 97.8333,145.8413 C98.3333,149.3413 130.3333,151.3413 134.8333,150.8413 C134.8333,140.8413 134.8333,125.8413 136.3333,121.8413 C132.3333,121.3413 101.3333,116.8413 101.3333,116.8413 L101.3333,116.8413 Z" id="Stroke-13" stroke="#000000" stroke-width="3" sketch:type="MSShapeGroup"></path>
                <path d="M262.3333,110.3413 C267.3333,120.3413 266.8333,134.3413 267.3333,139.3413 C263.8333,141.3413 247.8333,146.3413 234.8333,146.8413 C234.8333,136.3413 232.8333,125.3413 230.3333,117.3413 C236.8333,116.3413 252.3333,115.8413 262.3333,110.3413 L262.3333,110.3413 Z" id="Stroke-15" stroke="#000000" stroke-width="3" sketch:type="MSShapeGroup"></path>
                <path d="M216.3333,119.3413 C219.8333,129.3413 218.8333,144.8413 219.3333,148.3413 C213.8333,149.3413 184.3333,152.8413 172.8333,151.3413 C173.8333,143.8413 174.8333,127.3413 173.3333,122.8413 C180.3333,121.3413 205.8333,120.8413 216.3333,119.3413 L216.3333,119.3413 Z" id="Stroke-17" stroke="#000000" stroke-width="3" sketch:type="MSShapeGroup"></path>
                <path d="M53.8333,104.3413 L54.8333,98.3413 C54.8333,98.3413 78.0833,114.3413 155.0833,115.8413 C232.0833,117.3413 260.3333,103.8413 260.3333,103.8413 L260.3333,110.3413" id="Stroke-19" stroke="#000000" stroke-width="3" sketch:type="MSShapeGroup"></path>
                <path d="M44.8333,0.8413 C43.3333,15.3413 46.8333,43.8413 42.8333,55.8413 C38.8333,67.8413 36.3333,87.8413 56.3333,98.8413" id="Stroke-21" stroke="#000000" stroke-width="3" sketch:type="MSShapeGroup"></path>
                <path d="M271.3333,1.3413 C271.3333,19.3413 269.6303,32.1103 270.8333,45.3413 C271.3333,50.8413 271.3073,68.4263 273.3333,74.8413 C276.3333,84.3413 278.8333,94.8413 260.3333,103.8413" id="Stroke-23" stroke="#000000" stroke-width="3" sketch:type="MSShapeGroup"></path>
                <path d="M157.8333,1.3413 C158.8333,10.8413 157.8333,23.3413 156.8333,29.3413 C154.9553,40.6093 146.8333,43.3413 153.3333,61.3413 C159.3373,77.9683 134.3333,81.3413 155.0833,115.8413" id="Stroke-25" stroke="#000000" stroke-width="2" sketch:type="MSShapeGroup"></path>
                <path d="M161.6731,97.7945 C162.4161,100.1665 161.5241,102.5575 159.6791,103.1355 C157.8351,103.7135 155.7371,102.2595 154.9931,99.8885 C154.2501,97.5165 155.1431,95.1255 156.9871,94.5475 C158.8321,93.9695 160.9301,95.4225 161.6731,97.7945 L161.6731,97.7945 Z" id="Stroke-27" stroke="#000000" stroke-width="2" sketch:type="MSShapeGroup"></path>
                <path d="M164.6731,56.7945 C165.4161,59.1665 164.5241,61.5575 162.6791,62.1355 C160.8351,62.7135 158.7371,61.2595 157.9931,58.8885 C157.2501,56.5165 158.1431,54.1255 159.9871,53.5475 C161.8321,52.9695 163.9301,54.4225 164.6731,56.7945 L164.6731,56.7945 Z" id="Stroke-29" stroke="#000000" stroke-width="2" sketch:type="MSShapeGroup"></path>
                <path d="M170.4767,15.3805 C169.3837,17.6125 167.0907,18.7325 165.3547,17.8825 C163.6187,17.0325 163.0967,14.5345 164.1897,12.3025 C165.2827,10.0705 167.5767,8.9495 169.3127,9.7995 C171.0487,10.6495 171.5697,13.1485 170.4767,15.3805 L170.4767,15.3805 Z" id="Stroke-31" stroke="#000000" stroke-width="2" sketch:type="MSShapeGroup"></path>
                <path d="M169.9811,151.7488 L139.1401,151.7488 C136.1091,151.7488 133.6301,149.2698 133.6301,146.2388 L133.6301,126.3468 C133.6301,123.3168 136.1091,120.8378 139.1401,120.8378 L169.9811,120.8378 C173.0111,120.8378 175.4911,123.3168 175.4911,126.3468 L175.4911,146.2388 C175.4911,149.2698 173.0111,151.7488 169.9811,151.7488" id="Fill-33" fill="#FFFFFF" sketch:type="MSShapeGroup"></path>
                <path d="M169.9811,151.7488 L139.1401,151.7488 C136.1091,151.7488 133.6301,149.2698 133.6301,146.2388 L133.6301,126.3468 C133.6301,123.3168 136.1091,120.8378 139.1401,120.8378 L169.9811,120.8378 C173.0111,120.8378 175.4911,123.3168 175.4911,126.3468 L175.4911,146.2388 C175.4911,149.2698 173.0111,151.7488 169.9811,151.7488 L169.9811,151.7488 Z" id="Stroke-35" stroke="#000000" stroke-width="2" sketch:type="MSShapeGroup"></path>
                <path d="M166.3262,148.2501 L143.1402,148.2501 C140.1092,148.2501 137.6302,145.7711 137.6302,142.7401 L137.6302,130.3691 C137.6302,127.3391 140.1092,124.8591 143.1402,124.8591 L166.3262,124.8591 C169.3562,124.8591 171.8362,127.3391 171.8362,130.3691 L171.8362,142.7401 C171.8362,145.7711 169.3562,148.2501 166.3262,148.2501" id="Fill-37" fill="#FFFFFF" sketch:type="MSShapeGroup"></path>
                <path d="M166.3262,148.2501 L143.1402,148.2501 C140.1092,148.2501 137.6302,145.7711 137.6302,142.7401 L137.6302,130.3691 C137.6302,127.3391 140.1092,124.8591 143.1402,124.8591 L166.3262,124.8591 C169.3562,124.8591 171.8362,127.3391 171.8362,130.3691 L171.8362,142.7401 C171.8362,145.7711 169.3562,148.2501 166.3262,148.2501 L166.3262,148.2501 Z" id="Stroke-39" stroke="#000000" stroke-width="2" sketch:type="MSShapeGroup"></path>
                <path d="M149.4349,138.6744 L138.3329,138.6744 C137.3249,138.6744 136.4999,137.8494 136.4999,136.8414 C136.4999,135.8324 137.3249,135.0074 138.3329,135.0074 L149.4349,135.0074 C150.4429,135.0074 151.2679,135.8324 151.2679,136.8414 C151.2679,137.8494 150.4429,138.6744 149.4349,138.6744" id="Fill-41" fill="#FFFFFF" sketch:type="MSShapeGroup"></path>
                <path d="M149.4349,138.6744 L138.3329,138.6744 C137.3249,138.6744 136.4999,137.8494 136.4999,136.8414 C136.4999,135.8324 137.3249,135.0074 138.3329,135.0074 L149.4349,135.0074 C150.4429,135.0074 151.2679,135.8324 151.2679,136.8414 C151.2679,137.8494 150.4429,138.6744 149.4349,138.6744 L149.4349,138.6744 Z" id="Stroke-43" stroke="#000000" stroke-width="2" sketch:type="MSShapeGroup"></path>
                <path d="M285.2245,207.6848 C298.5845,208.7318 299.6075,216.7628 298.5035,219.3388 C292.5875,233.1308 231.6355,244.7498 149.4005,244.7498 C67.1655,244.7498 0.4995,232.5838 0.4995,217.5758 C0.4995,215.1688 2.9425,207.6848 16.0275,207.6848" id="Stroke-45" stroke="#FF0000" stroke-width="5" sketch:type="MSShapeGroup"></path>
                <path d="M285.3333,194.3413 L285.3333,221.3413" id="Stroke-47" stroke="#FF0000" stroke-width="5" sketch:type="MSShapeGroup"></path>
                <path d="M16.3333,194.3413 L16.3333,221.3413" id="Stroke-49" stroke="#FF0000" stroke-width="5" sketch:type="MSShapeGroup"></path>
            </g>
        </g>
    </g>
</svg>