<?xml version="1.0" encoding="UTF-8" standalone="no"?>
<svg width="342px" height="445px" viewBox="0 0 342 445" version="1.1" xmlns="http://www.w3.org/2000/svg" xmlns:xlink="http://www.w3.org/1999/xlink" xmlns:sketch="http://www.bohemiancoding.com/sketch/ns">
    <!-- Generator: Sketch 3.4.3 (16618) - http://www.bohemiancoding.com/sketch -->
    <title>Pants Waist</title>
    <desc>Created with Sketch.</desc>
    <defs></defs>
    <g id="Page-1" stroke="none" stroke-width="1" fill="none" fill-rule="evenodd" sketch:type="MSPage">
        <g id="Pants-Waist" sketch:type="MSArtboardGroup">
            <g id="Page-1" sketch:type="MSLayerGroup" transform="translate(26.000000, 10.000000)">
                <path d="M36.5,133.3413 C29.167,144.0083 23.833,166.0083 18.5,182.0083 C13.167,198.0083 11.833,230.6743 9.833,251.3413 C7.833,272.0083 6.5,396.6743 4.5,426.0083" id="Stroke-1" stroke="#000000" stroke-width="3" sketch:type="MSShapeGroup"></path>
                <path d="M252.5,141.3413 C256.5,161.3413 264.5,235.3413 265.833,246.0083 C267.167,256.6743 267.833,334.6743 265.833,354.0083 C263.833,373.3413 263.167,430.0083 263.167,430.0083" id="Stroke-3" stroke="#000000" stroke-width="3" sketch:type="MSShapeGroup"></path>
                <path d="M128.5,151.3413 C127.833,164.0083 126.5,249.3413 128.5,258.0083 C130.5,266.6743 131.167,275.3413 131.833,278.0083 C132.5,280.6743 132.5,312.0083 135.167,327.3413 C137.833,342.6743 137.167,354.6743 141.167,372.6743 C145.167,390.6743 145.167,412.6743 147.833,430.0083" id="Stroke-5" stroke="#000000" stroke-width="3" sketch:type="MSShapeGroup"></path>
                <path d="M137.8333,362.0079 C137.8333,362.0079 135.8333,374.0079 134.5003,384.6749 C133.1663,395.3409 129.1663,418.6749 126.5003,430.6749" id="Stroke-7" stroke="#000000" stroke-width="3" sketch:type="MSShapeGroup"></path>
                <path d="M133.1667,284.0079 C139.8337,284.0079 154.4997,283.3409 154.4997,283.3409 C154.4997,283.3409 157.8337,179.3409 157.1667,151.3409" id="Stroke-9" stroke="#000000" stroke-width="2" sketch:type="MSShapeGroup"></path>
                <path d="M41.8333,104.3413 C38.5383,102.2443 34.8333,126.8413 34.8333,130.8413 C34.8333,134.8413 58.3333,139.8413 69.8333,142.3413 C70.3333,130.8413 75.3333,114.3413 75.3333,114.3413 C75.3333,114.3413 52.8333,111.3413 41.8333,104.3413 L41.8333,104.3413 Z" id="Stroke-11" stroke="#000000" stroke-width="3" sketch:type="MSShapeGroup"></path>
                <path d="M88.3333,116.8413 C88.3333,116.8413 83.8333,132.3413 84.8333,145.8413 C85.3333,149.3413 117.3333,151.3413 121.8333,150.8413 C121.8333,140.8413 121.8333,125.8413 123.3333,121.8413 C119.3333,121.3413 88.3333,116.8413 88.3333,116.8413 L88.3333,116.8413 Z" id="Stroke-13" stroke="#000000" stroke-width="3" sketch:type="MSShapeGroup"></path>
                <path d="M249.3333,110.3413 C254.3333,120.3413 253.8333,134.3413 254.3333,139.3413 C250.8333,141.3413 234.8333,146.3413 221.8333,146.8413 C221.8333,136.3413 219.8333,125.3413 217.3333,117.3413 C223.8333,116.3413 239.3333,115.8413 249.3333,110.3413 L249.3333,110.3413 Z" id="Stroke-15" stroke="#000000" stroke-width="3" sketch:type="MSShapeGroup"></path>
                <path d="M203.3333,119.3413 C206.8333,129.3413 205.8333,144.8413 206.3333,148.3413 C200.8333,149.3413 171.3333,152.8413 159.8333,151.3413 C160.8333,143.8413 161.8333,127.3413 160.3333,122.8413 C167.3333,121.3413 192.8333,120.8413 203.3333,119.3413 L203.3333,119.3413 Z" id="Stroke-17" stroke="#000000" stroke-width="3" sketch:type="MSShapeGroup"></path>
                <path d="M40.8333,104.3413 L41.8333,98.3413 C41.8333,98.3413 65.0833,114.3413 142.0833,115.8413 C219.0833,117.3413 247.3333,103.8413 247.3333,103.8413 L247.3333,110.3413" id="Stroke-19" stroke="#000000" stroke-width="3" sketch:type="MSShapeGroup"></path>
                <path d="M31.8333,0.8413 C30.3333,15.3413 33.8333,43.8413 29.8333,55.8413 C25.8333,67.8413 23.3333,87.8413 43.3333,98.8413" id="Stroke-21" stroke="#000000" stroke-width="3" sketch:type="MSShapeGroup"></path>
                <path d="M258.3333,1.3413 C258.3333,19.3413 256.6303,32.1103 257.8333,45.3413 C258.3333,50.8413 258.3073,68.4263 260.3333,74.8413 C263.3333,84.3413 265.8333,94.8413 247.3333,103.8413" id="Stroke-23" stroke="#000000" stroke-width="3" sketch:type="MSShapeGroup"></path>
                <path d="M144.8333,1.3413 C145.8333,10.8413 144.8333,23.3413 143.8333,29.3413 C141.9553,40.6093 133.8333,43.3413 140.3333,61.3413 C146.3373,77.9683 121.3333,81.3413 142.0833,115.8413" id="Stroke-25" stroke="#000000" stroke-width="2" sketch:type="MSShapeGroup"></path>
                <path d="M148.6731,97.7945 C149.4161,100.1665 148.5241,102.5575 146.6791,103.1355 C144.8351,103.7135 142.7371,102.2595 141.9931,99.8885 C141.2501,97.5165 142.1431,95.1255 143.9871,94.5475 C145.8321,93.9695 147.9301,95.4225 148.6731,97.7945 L148.6731,97.7945 Z" id="Stroke-27" stroke="#000000" stroke-width="2" sketch:type="MSShapeGroup"></path>
                <path d="M151.6731,56.7945 C152.4161,59.1665 151.5241,61.5575 149.6791,62.1355 C147.8351,62.7135 145.7371,61.2595 144.9931,58.8885 C144.2501,56.5165 145.1431,54.1255 146.9871,53.5475 C148.8321,52.9695 150.9301,54.4225 151.6731,56.7945 L151.6731,56.7945 Z" id="Stroke-29" stroke="#000000" stroke-width="2" sketch:type="MSShapeGroup"></path>
                <path d="M157.4767,15.3805 C156.3837,17.6125 154.0907,18.7325 152.3547,17.8825 C150.6187,17.0325 150.0967,14.5345 151.1897,12.3025 C152.2827,10.0705 154.5767,8.9495 156.3127,9.7995 C158.0487,10.6495 158.5697,13.1485 157.4767,15.3805 L157.4767,15.3805 Z" id="Stroke-31" stroke="#000000" stroke-width="2" sketch:type="MSShapeGroup"></path>
                <path d="M156.6478,152.4155 L125.8068,152.4155 C122.7758,152.4155 120.2968,149.9365 120.2968,146.9055 L120.2968,127.0135 C120.2968,123.9835 122.7758,121.5045 125.8068,121.5045 L156.6478,121.5045 C159.6778,121.5045 162.1578,123.9835 162.1578,127.0135 L162.1578,146.9055 C162.1578,149.9365 159.6778,152.4155 156.6478,152.4155" id="Fill-33" fill="#FFFFFF" sketch:type="MSShapeGroup"></path>
                <path d="M156.6478,152.4155 L125.8068,152.4155 C122.7758,152.4155 120.2968,149.9365 120.2968,146.9055 L120.2968,127.0135 C120.2968,123.9835 122.7758,121.5045 125.8068,121.5045 L156.6478,121.5045 C159.6778,121.5045 162.1578,123.9835 162.1578,127.0135 L162.1578,146.9055 C162.1578,149.9365 159.6778,152.4155 156.6478,152.4155 L156.6478,152.4155 Z" id="Stroke-35" stroke="#000000" stroke-width="2" sketch:type="MSShapeGroup"></path>
                <path d="M152.9928,148.9168 L129.8068,148.9168 C126.7758,148.9168 124.2968,146.4378 124.2968,143.4068 L124.2968,131.0358 C124.2968,128.0058 126.7758,125.5258 129.8068,125.5258 L152.9928,125.5258 C156.0228,125.5258 158.5028,128.0058 158.5028,131.0358 L158.5028,143.4068 C158.5028,146.4378 156.0228,148.9168 152.9928,148.9168" id="Fill-37" fill="#FFFFFF" sketch:type="MSShapeGroup"></path>
                <path d="M152.9928,148.9168 L129.8068,148.9168 C126.7758,148.9168 124.2968,146.4378 124.2968,143.4068 L124.2968,131.0358 C124.2968,128.0058 126.7758,125.5258 129.8068,125.5258 L152.9928,125.5258 C156.0228,125.5258 158.5028,128.0058 158.5028,131.0358 L158.5028,143.4068 C158.5028,146.4378 156.0228,148.9168 152.9928,148.9168 L152.9928,148.9168 Z" id="Stroke-39" stroke="#000000" stroke-width="2" sketch:type="MSShapeGroup"></path>
                <path d="M136.1016,139.3411 L124.9996,139.3411 C123.9916,139.3411 123.1666,138.5161 123.1666,137.5081 C123.1666,136.4991 123.9916,135.6741 124.9996,135.6741 L136.1016,135.6741 C137.1096,135.6741 137.9346,136.4991 137.9346,137.5081 C137.9346,138.5161 137.1096,139.3411 136.1016,139.3411" id="Fill-41" fill="#FFFFFF" sketch:type="MSShapeGroup"></path>
                <path d="M136.1016,139.3411 L124.9996,139.3411 C123.9916,139.3411 123.1666,138.5161 123.1666,137.5081 C123.1666,136.4991 123.9916,135.6741 124.9996,135.6741 L136.1016,135.6741 C137.1096,135.6741 137.9346,136.4991 137.9346,137.5081 C137.9346,138.5161 137.1096,139.3411 136.1016,139.3411 L136.1016,139.3411 Z" id="Stroke-43" stroke="#000000" stroke-width="2" sketch:type="MSShapeGroup"></path>
                <path d="M272.3403,41.3621 C285.0953,42.3611 286.0723,50.0291 285.0183,52.4881 C279.3703,65.6571 221.1763,76.7501 142.6623,76.7501 C64.1483,76.7501 0.5003,65.1341 0.5003,50.8061 C0.5003,48.5071 2.8323,41.3621 15.3243,41.3621" id="Stroke-45" stroke="#FF0000" stroke-width="5" sketch:type="MSShapeGroup"></path>
                <path d="M272.3333,28.3413 L272.3333,54.3413" id="Stroke-47" stroke="#FF0000" stroke-width="5" sketch:type="MSShapeGroup"></path>
                <path d="M15.3333,28.3413 L15.3333,54.3413" id="Stroke-49" stroke="#FF0000" stroke-width="5" sketch:type="MSShapeGroup"></path>
            </g>
        </g>
    </g>
</svg>