<?xml version="1.0" encoding="UTF-8" standalone="no"?>
<svg width="547px" height="422px" viewBox="0 0 547 422" version="1.1" xmlns="http://www.w3.org/2000/svg" xmlns:xlink="http://www.w3.org/1999/xlink" xmlns:sketch="http://www.bohemiancoding.com/sketch/ns">
    <!-- Generator: Sketch 3.4.3 (16618) - http://www.bohemiancoding.com/sketch -->
    <title>Shirt Collar</title>
    <desc>Created with Sketch.</desc>
    <defs></defs>
    <g id="Page-1" stroke="none" stroke-width="1" fill="none" fill-rule="evenodd" sketch:type="MSPage">
        <g id="Shirt-Collar" sketch:type="MSArtboardGroup">
            <g id="Page-1" sketch:type="MSLayerGroup" transform="translate(3.000000, 35.000000)">
                <path d="M204.3239,2.1952 C205.6569,12.8622 212.3239,40.1952 220.9909,48.8622 C229.6569,57.5282 249.6569,74.1952 256.9909,75.5282 C264.3239,76.8622 290.3239,78.8622 295.6569,76.1952 C300.9909,73.5282 328.9909,52.1952 337.6569,28.1952 C346.3239,4.1952 343.6569,0.1952 343.6569,0.1952" id="Stroke-1" stroke="#000000" stroke-width="3" sketch:type="MSShapeGroup"></path>
                <path d="M213.6573,38.1952 C213.6573,51.5282 211.6573,74.1952 209.6573,86.1952 C214.3243,92.8622 260.3243,132.1952 264.9903,134.1952 C269.6573,136.1952 270.9903,138.8622 279.6573,135.5282 C288.3243,132.1952 326.2773,101.3032 329.1153,98.8202 C330.7823,97.3622 340.6153,87.1952 340.6153,87.1952 C339.1153,82.8202 334.9903,46.8622 336.3243,32.1952" id="Stroke-3" stroke="#000000" stroke-width="3" sketch:type="MSShapeGroup"></path>
                <path d="M211.9906,65.6952 C196.6156,65.1952 180.1156,97.0702 189.4906,123.6952 C194.8046,138.7872 216.9906,182.6952 219.4906,185.6952 C221.9906,188.6952 236.4226,139.7272 265.9906,135.6952" id="Stroke-5" stroke="#000000" stroke-width="3" sketch:type="MSShapeGroup"></path>
                <path d="M338.2406,70.6952 C351.1156,70.4452 350.1156,72.8202 361.4906,111.6952 C356.4906,125.1952 325.9906,190.1952 323.4906,191.1952 C320.9906,192.1952 295.3236,140.8622 279.6576,135.5282" id="Stroke-7" stroke="#000000" stroke-width="3" sketch:type="MSShapeGroup"></path>
                <path d="M245.4906,147.1952 C251.9906,157.1952 252.9906,163.1952 259.9906,166.6952 C266.9906,170.1952 278.4906,172.6952 280.9906,172.1952 C282.4906,166.1952 277.9906,158.6952 284.9906,152.1952" id="Stroke-9" stroke="#000000" stroke-width="3" sketch:type="MSShapeGroup"></path>
                <path d="M296.9906,153.1952 C291.4906,157.6952 288.9906,167.1952 282.4906,169.1952" id="Stroke-11" stroke="#000000" stroke-width="3" sketch:type="MSShapeGroup"></path>
                <path d="M262.4906,168.6952 C253.9906,189.1952 249.4906,187.6952 245.4906,231.6952 C241.4906,275.6952 241.4906,345.1952 241.4906,345.1952" id="Stroke-13" stroke="#000000" stroke-width="3" sketch:type="MSShapeGroup"></path>
                <path d="M280.9906,172.1952 C287.9906,190.1952 299.0916,210.2102 302.4906,295.1952 L304.4906,345.1952" id="Stroke-15" stroke="#000000" stroke-width="3" sketch:type="MSShapeGroup"></path>
                <path d="M269.9906,238.1952 C271.4906,213.6952 271.4906,171.6952 271.4906,171.6952 C271.4906,171.6952 278.4906,208.1952 280.4906,262.6952" id="Stroke-17" stroke="#000000" stroke-width="2" sketch:type="MSShapeGroup"></path>
                <path d="M186.9906,109.5285 C162.9906,119.5285 119.6576,138.3615 98.9906,147.6955 C78.3236,157.0285 51.6576,172.3615 38.9906,185.6955 C26.3236,199.0285 4.9906,311.1955 0.4906,351.1955" id="Stroke-19" stroke="#000000" stroke-width="3" sketch:type="MSShapeGroup"></path>
                <path d="M361.4906,111.6952 C370.9906,115.5282 477.6426,174.5522 484.9906,179.6952 C494.9906,186.6952 517.6576,213.5282 522.9906,226.1952 C528.3236,238.8622 534.9906,326.1952 540.4906,352.6952" id="Stroke-21" stroke="#000000" stroke-width="3" sketch:type="MSShapeGroup"></path>
                <path d="M331.6573,305.8618 C350.3243,309.8618 444.3243,310.8618 453.6573,308.8618 C452.9903,323.5288 452.9903,338.1948 452.9903,338.1948 C452.9903,338.1948 350.9903,338.1948 329.9903,335.1948 C328.9903,320.1948 331.6573,305.8618 331.6573,305.8618 L331.6573,305.8618 Z" id="Stroke-23" stroke="#000000" stroke-width="2" sketch:type="MSShapeGroup"></path>
                <path d="M70.324,267.1952 C76.43,310.3172 79.99,338.0402 80.991,351.1952" id="Stroke-25" stroke="#000000" stroke-width="3" sketch:type="MSShapeGroup"></path>
                <path d="M475.6573,276.8617 C471.6623,312.4967 469.4903,336.1947 467.4903,351.1947" id="Stroke-27" stroke="#000000" stroke-width="3" sketch:type="MSShapeGroup"></path>
                <path d="M345.2406,77.5702 C344.8656,78.8202 340.9906,87.4452 340.3656,87.8202" id="Stroke-29" stroke="#000000" stroke-width="3" sketch:type="MSShapeGroup"></path>
                <path d="M209.6573,86.1952 C207.7403,84.0702 205.3653,79.8202 203.9903,75.9452" id="Stroke-31" stroke="#000000" stroke-width="3" sketch:type="MSShapeGroup"></path>
                <path d="M346.8066,45.6249 C356.3876,50.7109 361.9906,56.8599 361.9906,63.4839 C361.9906,80.9969 322.8156,95.1949 274.4906,95.1949 C226.1656,95.1949 186.9906,80.9969 186.9906,63.4839 C186.9906,57.3899 191.7326,51.6979 199.9516,46.8659" id="Stroke-33" stroke="#FF0000" stroke-width="5" sketch:type="MSShapeGroup"></path>
                <path d="M347.4906,32.1952 L347.4906,59.1952" id="Stroke-35" stroke="#FF0000" stroke-width="5" sketch:type="MSShapeGroup"></path>
                <path d="M201.4906,33.1952 L201.4906,60.1952" id="Stroke-37" stroke="#FF0000" stroke-width="5" sketch:type="MSShapeGroup"></path>
            </g>
        </g>
    </g>
</svg>