<?xml version="1.0" encoding="UTF-8" standalone="no"?>
<svg width="381px" height="997px" viewBox="0 0 381 997" version="1.1" xmlns="http://www.w3.org/2000/svg" xmlns:xlink="http://www.w3.org/1999/xlink" xmlns:sketch="http://www.bohemiancoding.com/sketch/ns">
    <!-- Generator: Sketch 3.4.3 (16618) - http://www.bohemiancoding.com/sketch -->
    <title>Weight</title>
    <desc>Created with Sketch.</desc>
    <defs></defs>
    <g id="Page-1" stroke="none" stroke-width="1" fill="none" fill-rule="evenodd" sketch:type="MSPage">
        <g id="Weight" sketch:type="MSArtboardGroup">
            <g id="Page-1" sketch:type="MSLayerGroup" transform="translate(45.000000, 3.000000)">
                <path d="M135.7834,100.3384 C131.7834,116.3384 108.7834,133.3384 98.8604,133.3384 C88.9364,133.3384 76.5334,112.8384 72.5334,105.8384 C68.5334,98.8384 63.6274,76.5864 61.5334,67.5884 C61.5334,67.5884 60.4004,53.6404 64.8294,45.1844 C71.0334,33.3384 80.5914,43.5494 90.5414,41.8854 C102.7834,39.8384 108.1164,33.6714 120.1164,27.0054 C120.1164,27.0054 128.7834,53.6714 132.1164,57.6714 L135.4504,61.6714 C135.4504,61.6714 138.7834,51.0054 143.4504,49.6714 C148.1164,48.3384 150.7834,55.6714 150.1164,59.0054 C149.4504,62.3384 148.1164,85.6714 140.7834,85.6714 C140.7834,91.8384 140.6054,104.6534 141.2834,108.8384 C140.5654,117.5884 113.0334,145.8384 103.0334,151.8384 C95.9464,147.7084 86.7834,138.3384 86.7834,138.3384 L86.2104,125.4044" id="Stroke-1" stroke="#000000" stroke-width="3" sketch:type="MSShapeGroup"></path>
                <path d="M144.9651,49.5398 C144.9651,49.5398 154.5181,24.1198 131.0181,14.3698 C128.5181,1.8698 109.2831,-1.1612 97.5331,0.5888 C85.7831,2.3388 63.0691,10.7858 56.7551,25.1458 C47.5051,46.1848 58.2831,62.5888 58.2831,62.5888" id="Stroke-3" stroke="#000000" stroke-width="3" sketch:type="MSShapeGroup"></path>
                <path d="M61.4035,64.3384 C61.4035,64.3384 58.0335,60.5884 55.7835,62.5884 C53.5335,64.5884 58.2685,82.5664 66.4005,85.0774" id="Stroke-5" stroke="#000000" stroke-width="3" sketch:type="MSShapeGroup"></path>
                <path d="M105.8108,154.3384 C105.8108,154.3384 100.4368,153.0884 98.8598,154.3384 C97.2838,155.5884 95.8878,167.8384 102.3358,169.0884 C108.7838,170.3384 105.8108,169.0884 105.8108,169.0884 C105.8108,169.0884 100.8378,161.3384 105.8108,154.3384 L105.8108,154.3384 Z" id="Stroke-7" stroke="#000000" stroke-width="3" sketch:type="MSShapeGroup"></path>
                <path d="M105.8108,169.0884 C107.9508,172.5324 118.5338,178.8384 125.0338,180.3384 C130.2838,171.5884 131.7838,165.0884 130.5338,155.3384 C129.2838,145.5884 124.2838,143.8384 124.2838,143.8384 C124.2838,143.8384 107.3908,151.2704 105.8108,154.3384" id="Stroke-9" stroke="#000000" stroke-width="3" sketch:type="MSShapeGroup"></path>
                <path d="M102.3354,169.0884 C97.3874,176.3384 89.5334,180.3384 82.5334,182.3384 C76.0334,178.8384 71.7834,162.0884 74.7834,148.3384 C88.2834,148.8384 97.5354,153.7824 97.5354,153.7824" id="Stroke-11" stroke="#000000" stroke-width="3" sketch:type="MSShapeGroup"></path>
                <path d="M140.8909,103.5884 C146.8859,103.0884 150.1829,115.1034 150.1829,121.8534 C150.1819,129.1034 147.3009,140.0944 144.2829,146.8384 C143.0109,149.6834 130.9489,166.8384 130.9489,166.8384" id="Stroke-13" stroke="#000000" stroke-width="3" sketch:type="MSShapeGroup"></path>
                <path d="M84.6363,123.6164 C84.6363,123.6164 79.5333,125.3234 79.5333,135.2054 C79.5333,145.0884 82.0853,149.0574 82.0853,149.0574" id="Stroke-15" stroke="#000000" stroke-width="3" sketch:type="MSShapeGroup"></path>
                <path d="M82.7834,132.1718 L86.7834,138.3388" id="Stroke-17" stroke="#000000" stroke-width="3" sketch:type="MSShapeGroup"></path>
                <path d="M144.8016,145.6316 C144.8016,145.6316 132.1166,317.0056 133.1166,327.6716 C140.5656,312.3386 151.2836,264.3386 153.5336,243.3386 C155.7836,222.3386 169.5336,146.8386 168.7836,138.3386 C168.0336,129.8386 168.0336,128.3386 162.5336,125.0886 C157.0336,121.8386 151.1006,115.7166 148.5396,112.0866" id="Stroke-19" stroke="#000000" stroke-width="3" sketch:type="MSShapeGroup"></path>
                <path d="M152.7138,249.7205 L207.5338,231.5885 L209.7838,239.5885 L150.9368,260.5215 L152.7138,249.7205 L152.7138,249.7205 Z" id="Stroke-21" stroke="#000000" stroke-width="3" sketch:type="MSShapeGroup"></path>
                <path d="M201.2834,233.5884 C201.2834,233.5884 195.0334,225.8384 186.0334,224.5884 C177.0334,223.3384 167.7834,223.0884 164.0334,229.8384 C160.2834,236.5884 156.1364,248.5884 156.1364,248.5884" id="Stroke-23" stroke="#000000" stroke-width="3" sketch:type="MSShapeGroup"></path>
                <path d="M204.1167,404.6718 C204.1167,404.6718 186.4497,405.6718 181.7837,406.6718 C177.1167,407.6718 168.4497,410.0048 164.1167,410.3388 C159.7837,410.6718 148.7837,410.3388 146.7837,410.3388 C144.7837,410.3388 143.7837,414.6718 146.7837,417.0048 C149.7837,419.3388 158.1757,424.0048 168.8127,422.3388 C170.5337,422.6908 173.0337,421.3388 173.0337,421.3388 C173.0337,421.3388 172.0337,426.8388 172.5337,430.8388 C173.0337,434.8388 193.2837,468.6088 193.2837,468.6088 C193.2837,468.6088 202.7837,460.0888 205.2837,457.5888 C207.7837,455.0888 217.5337,447.0888 220.7837,440.0888 C224.0337,433.0888 229.7837,424.5888 229.7837,424.5888 C229.7837,424.5888 217.4497,408.2548 204.1167,404.6718 L204.1167,404.6718 Z" id="Stroke-25" stroke="#000000" stroke-width="3" sketch:type="MSShapeGroup"></path>
                <path d="M224.8585,432.4516 L245.2835,449.8386 L255.2835,433.8386 C255.2835,433.8386 222.7835,404.5886 208.2835,401.0886 C206.0335,402.3386 204.1165,404.6716 204.1165,404.6716" id="Stroke-27" stroke="#000000" stroke-width="3" sketch:type="MSShapeGroup"></path>
                <path d="M229.7834,424.5884 C229.7834,424.5884 242.7834,441.0884 245.2834,449.8384" id="Stroke-29" stroke="#000000" stroke-width="3" sketch:type="MSShapeGroup"></path>
                <path d="M252.8396,437.7485 C252.8396,437.7485 257.5336,439.5885 259.2836,439.5885 C261.0336,439.5885 315.5336,334.5885 314.0336,325.0885 C312.5336,315.5885 312.2836,299.3385 308.2836,291.0885 C304.2836,282.8385 284.5336,237.8385 277.0336,227.0885 C269.5336,216.3385 258.7836,152.8385 245.5336,146.8385 C225.5336,142.5885 176.5956,131.3385 167.5666,130.0885" id="Stroke-31" stroke="#000000" stroke-width="3" sketch:type="MSShapeGroup"></path>
                <path d="M221.2834,228.0884 C221.2834,228.0884 223.0334,256.0884 226.7834,264.5884 C230.5334,273.0884 239.7834,298.5884 244.0334,307.0884 C248.2834,315.5884 250.0334,316.3384 251.0334,317.0884 C254.6584,311.8384 270.7834,308.3384 288.0334,310.3384" id="Stroke-33" stroke="#000000" stroke-width="3" sketch:type="MSShapeGroup"></path>
                <path d="M250.7834,318.3384 C250.7834,318.3384 247.0334,319.5884 248.2834,324.8384 C246.0334,327.6714 208.2834,401.0884 208.2834,401.0884" id="Stroke-35" stroke="#000000" stroke-width="3" sketch:type="MSShapeGroup"></path>
                <path d="M248.2834,324.8384 C251.5334,322.5884 260.2834,316.8384 270.5334,318.3384" id="Stroke-37" stroke="#000000" stroke-width="3" sketch:type="MSShapeGroup"></path>
                <path d="M254.5334,433.5884 C254.5334,433.5884 259.5334,436.0884 259.2834,439.5884" id="Stroke-39" stroke="#000000" stroke-width="3" sketch:type="MSShapeGroup"></path>
                <path d="M247.6932,148.3384 C234.4772,153.0884 220.5332,188.0884 221.2832,228.0884" id="Stroke-41" stroke="#000000" stroke-width="2" sketch:type="MSShapeGroup"></path>
                <path d="M229.7834,274.0051 C229.7834,274.0051 225.0584,292.6721 221.2544,300.0051 C223.4504,309.0051 229.5334,358.0051 229.5334,358.0051" id="Stroke-43" stroke="#000000" stroke-width="3" sketch:type="MSShapeGroup"></path>
                <path d="M165.9617,410.1209 C155.4737,392.2369 133.0607,330.6719 133.0607,330.6719 C133.0607,330.6719 164.7837,385.3389 184.1167,406.6719" id="Stroke-45" stroke="#000000" stroke-width="3" sketch:type="MSShapeGroup"></path>
                <path d="M195.7927,466.3487 L225.5187,507.0047 C225.5187,507.0047 258.7837,499.6717 265.4497,492.3387 C259.4087,482.0047 249.7837,453.4047 248.2837,445.0387" id="Stroke-47" stroke="#000000" stroke-width="3" sketch:type="MSShapeGroup"></path>
                <path d="M211.1999,452.0574 C218.7829,461.0054 229.5879,490.6714 225.5189,505.0054" id="Stroke-49" stroke="#000000" stroke-width="3" sketch:type="MSShapeGroup"></path>
                <path d="M42.2834,373.5884 C47.7834,376.3384 57.7834,376.6714 59.4504,376.6714 C61.1164,376.6714 60.1474,374.8094 63.4034,374.0054 C67.5544,372.9804 72.5294,377.2854 68.7834,381.8384 C77.3354,388.7204 69.7154,394.2344 68.4104,395.3384 C68.4104,395.3384 69.4504,398.3384 68.4104,401.0884 C67.3704,403.8384 60.4504,409.0054 57.2234,410.1204 C53.9974,411.2364 43.7834,410.1204 43.7834,410.1204 L51.4504,414.0054 C51.4504,414.0054 56.1164,412.0054 62.8124,410.1204 C69.5084,408.2364 68.1164,411.0054 68.4014,412.6714 C68.6854,414.3384 62.4504,419.6714 60.1164,421.3384 C57.7834,423.0054 50.4504,423.0054 48.4504,423.0054 C46.4504,423.0054 40.1164,418.3384 35.4504,416.0054 C30.7834,413.6714 14.1164,399.3384 10.4504,394.3384 C6.7834,389.3384 6.7834,379.3384 10.4504,374.6714 C14.1164,370.0054 19.7834,367.6714 23.7834,367.6714 C23.7834,367.6714 36.5894,361.6714 39.3534,361.6714 C42.1164,361.6714 45.1164,360.6714 47.4504,361.6714 C49.7834,362.6714 56.3314,368.7874 57.2234,370.3964 C58.1164,372.0054 57.2234,374.6714 56.1054,376.4824" id="Stroke-51" stroke="#000000" stroke-width="3" sketch:type="MSShapeGroup"></path>
                <path d="M39.6878,386.5884 C39.6878,386.5884 51.0338,389.0884 56.2838,388.3384 C61.5338,387.5884 66.5498,382.9954 67.4108,381.8384" id="Stroke-53" stroke="#000000" sketch:type="MSShapeGroup"></path>
                <path d="M40.5334,397.8384 C40.5334,397.8384 51.7834,400.0884 55.2834,400.0884 C58.7834,400.0884 65.1704,397.3204 67.4104,394.6714" id="Stroke-55" stroke="#000000" sketch:type="MSShapeGroup"></path>
                <path d="M73.9839,160.0884 C68.9839,175.0884 64.4499,260.8384 64.1169,272.5884 C63.7829,284.3384 63.3569,373.2484 61.4039,374.9604" id="Stroke-57" stroke="#000000" stroke-width="3" sketch:type="MSShapeGroup"></path>
                <path d="M79.5334,142.3384 C72.7834,145.6714 58.6644,158.3384 55.2234,176.6714 C51.7834,195.0054 47.7164,237.1874 48.0504,256.8544 C48.3834,276.5204 58.6894,322.6874 63.1514,331.8384" id="Stroke-59" stroke="#000000" stroke-width="3" sketch:type="MSShapeGroup"></path>
                <path d="M70.5675,149.0578 C64.6575,152.3908 46.1165,161.6718 33.7835,165.3388 C21.4505,169.0048 12.2835,184.8388 13.7835,205.8388 C15.2835,226.8388 18.7835,222.3388 18.0335,231.5888 C17.2835,240.8388 14.7835,264.6718 16.7835,274.0048 C15.7835,279.3388 15.7835,284.5888 15.2835,288.3388 C14.7835,292.0888 7.6165,310.5918 7.7005,321.4658 C13.0335,317.0888 21.3315,312.7548 30.5815,316.0048" id="Stroke-61" stroke="#000000" stroke-width="3" sketch:type="MSShapeGroup"></path>
                <path d="M37.4219,326.9725 C27.0179,316.2225 14.0989,317.7575 7.6999,321.4655 C6.4499,325.7985 4.0329,345.5885 4.0329,345.5885 C4.0329,345.5885 3.0329,349.0885 1.5329,355.3385 C0.0329,361.5885 0.2829,362.5885 1.5329,364.0885 C1.7829,366.8385 -0.8971,379.4465 3.5329,383.5885 C5.7829,370.3965 6.7829,369.0885 15.0329,364.5885 C23.2829,360.0885 28.6679,365.4725 28.6679,365.4725" id="Stroke-63" stroke="#000000" stroke-width="3" sketch:type="MSShapeGroup"></path>
                <path d="M26.7834,225.5884 C28.0334,240.0884 34.2834,282.8384 35.5334,291.5884 C36.7834,300.3384 43.5334,328.3384 43.2834,340.5884 C43.0334,352.8384 42.0334,359.8664 42.0334,361.2274" id="Stroke-65" stroke="#000000" stroke-width="3" sketch:type="MSShapeGroup"></path>
                <path d="M3.5334,383.5884 C4.2834,391.2684 9.2834,415.5884 16.0334,420.5884 C22.7834,425.5884 30.4624,412.6234 30.6544,412.7684" id="Stroke-67" stroke="#000000" stroke-width="3" sketch:type="MSShapeGroup"></path>
                <path d="M9.1904,392.1162 C11.2734,401.1162 14.6384,414.3382 18.9614,415.0882 C23.2834,415.8382 24.7834,413.9032 26.7834,410.1212" id="Stroke-69" stroke="#000000" stroke-width="3" sketch:type="MSShapeGroup"></path>
                <path d="M56.2834,423.0051 C54.7834,432.2551 42.7334,510.0881 39.1334,512.3381 C35.5334,514.5881 30.6544,513.5881 26.7834,507.3381 C24.5334,504.5881 27.1334,496.0581 28.5334,490.0881 C30.2244,482.8761 39.5334,429.2271 40.5334,418.9081" id="Stroke-71" stroke="#000000" stroke-width="3" sketch:type="MSShapeGroup"></path>
                <path d="M144.059,155.7407 C144.059,155.7407 103.288,224.6717 97.536,239.3387 C91.783,254.0047 90.783,261.3387 90.783,264.6717 C90.783,268.0047 82.783,388.8387 86.783,401.0887 C90.783,413.3387 118.783,441.3387 122.117,443.0047 C128.117,439.5887 172.78,423.0047 172.78,423.0047" id="Stroke-73" stroke="#000000" stroke-width="3" sketch:type="MSShapeGroup"></path>
                <path d="M79.4604,180.3384 C78.7104,191.0054 85.2024,228.7554 97.5354,239.3384" id="Stroke-75" stroke="#000000" stroke-width="3" sketch:type="MSShapeGroup"></path>
                <path d="M54.1158,436.5884 C54.1158,436.5884 70.1178,443.7384 72.7838,445.0384 C76.1168,440.8134 86.0688,418.4974 92.9258,411.7514" id="Stroke-77" stroke="#000000" stroke-width="3" sketch:type="MSShapeGroup"></path>
                <path d="M102.8108,289.1718 C102.8108,291.2888 101.2548,293.0048 99.3358,293.0048 C97.4158,293.0048 95.8598,291.2888 95.8598,289.1718 C95.8598,287.0548 97.4158,285.3388 99.3358,285.3388 C101.2548,285.3388 102.8108,287.0548 102.8108,289.1718 L102.8108,289.1718 Z" id="Stroke-79" stroke="#000000" stroke-width="2" sketch:type="MSShapeGroup"></path>
                <path d="M104.8108,252.1718 C104.8108,254.2888 103.2548,256.0048 101.3358,256.0048 C99.4158,256.0048 97.8598,254.2888 97.8598,252.1718 C97.8598,250.0548 99.4158,248.3388 101.3358,248.3388 C103.2548,248.3388 104.8108,250.0548 104.8108,252.1718 L104.8108,252.1718 Z" id="Stroke-81" stroke="#000000" stroke-width="2" sketch:type="MSShapeGroup"></path>
                <path d="M99.8108,325.1718 C99.8108,327.2888 98.2548,329.0048 96.3358,329.0048 C94.4158,329.0048 92.8598,327.2888 92.8598,325.1718 C92.8598,323.0548 94.4158,321.3388 96.3358,321.3388 C98.2548,321.3388 99.8108,323.0548 99.8108,325.1718 L99.8108,325.1718 Z" id="Stroke-83" stroke="#000000" stroke-width="2" sketch:type="MSShapeGroup"></path>
                <path d="M96.8108,361.1718 C96.8108,363.2888 95.2548,365.0048 93.3358,365.0048 C91.4158,365.0048 89.8598,363.2888 89.8598,361.1718 C89.8598,359.0548 91.4158,357.3388 93.3358,357.3388 C95.2548,357.3388 96.8108,359.0548 96.8108,361.1718 L96.8108,361.1718 Z" id="Stroke-85" stroke="#000000" stroke-width="2" sketch:type="MSShapeGroup"></path>
                <path d="M96.8108,397.1718 C96.8108,399.2888 95.2548,401.0048 93.3358,401.0048 C91.4158,401.0048 89.8598,399.2888 89.8598,397.1718 C89.8598,395.0548 91.4158,393.3388 93.3358,393.3388 C95.2548,393.3388 96.8108,395.0548 96.8108,397.1718 L96.8108,397.1718 Z" id="Stroke-87" stroke="#000000" stroke-width="2" sketch:type="MSShapeGroup"></path>
                <path d="M102.8108,170.8384 C101.0338,183.8384 99.4978,225.5234 99.9458,234.0234" id="Stroke-89" stroke="#000000" stroke-width="3" sketch:type="MSShapeGroup"></path>
                <path d="M37.45,513.4347 C37.45,513.4347 56.783,657.0047 58.45,666.6717 C60.117,676.3387 81.783,805.3387 83.117,810.6717 C84.45,816.0047 90.117,858.3387 90.117,863.3387 C90.117,868.3387 88.117,877.0047 88.117,877.0047 C88.117,877.0047 89.27,881.6717 98.86,884.6717 C108.45,887.6717 126.783,885.3387 133.45,883.3387" id="Stroke-91" stroke="#000000" stroke-width="3" sketch:type="MSShapeGroup"></path>
                <path d="M82.049,428.3947 C81.43,441.5927 85.436,480.8387 95.36,493.8387 C106.835,518.8387 105.849,540.0887 107.533,556.5887 C109.394,572.9217 116.117,667.3387 117.117,676.0047 C118.117,684.6717 125.45,772.3387 126.783,781.0047 C128.117,789.6717 136.45,904.3387 136.45,904.3387 C136.45,904.3387 147.117,913.3387 151.117,913.3387 C155.117,913.3387 184.117,908.3387 184.117,906.3387 C184.117,904.3387 182.783,868.0047 184.117,855.6717 C185.45,843.3387 189.127,742.6717 189.127,731.0047 C191.805,718.6717 193.117,713.0047 193.117,699.6717 C193.117,686.3387 187.783,620.3387 189.45,611.6717 C191.117,603.0047 195.783,566.6717 199.117,554.0047 C202.45,541.3387 208.117,500.7657 208.283,483.4317" id="Stroke-93" stroke="#000000" stroke-width="3" sketch:type="MSShapeGroup"></path>
                <path d="M100.9176,421.7361 C99.3406,443.3381 94.4366,465.8381 95.3596,493.8381" id="Stroke-95" stroke="#000000" stroke-width="3" sketch:type="MSShapeGroup"></path>
                <path d="M63.7821,483.0884 C90.9571,485.5634 96.8111,496.8384 119.2831,503.5884 C145.2671,511.3934 172.7801,514.8384 182.0331,513.4344" id="Stroke-97" stroke="#000000" stroke-width="3" sketch:type="MSShapeGroup"></path>
                <path d="M107.0334,505.0051 C114.0334,512.3381 135.5224,521.0091 155.0334,527.5881" id="Stroke-99" stroke="#000000" stroke-width="3" sketch:type="MSShapeGroup"></path>
                <path d="M136.45,904.3384 C134.783,911.8384 131.617,934.8384 133.45,940.3384 C135.915,942.0874 139.237,945.8384 145.135,945.5884 C151.033,945.3384 143.783,953.5884 147.033,956.5884 C150.283,959.5884 153.533,964.3384 163.783,964.5884 C174.033,964.8384 198.783,963.5884 202.033,963.3384 C205.283,963.0884 205.283,947.8384 202.033,941.5884 C198.783,935.3384 182.783,916.8984 180.533,907.9934" id="Stroke-101" stroke="#000000" stroke-width="3" sketch:type="MSShapeGroup"></path>
                <path d="M133.3272,926.3422 C135.2122,931.5922 142.7372,934.3382 145.1352,938.8382 C147.5332,943.3382 147.3702,945.0452 147.4142,946.6402 C147.4592,948.2362 149.0332,953.8382 152.2832,955.5882 C155.5332,957.3382 160.3342,958.5882 168.6832,958.5882 C177.0332,958.5882 194.1462,958.0652 199.2832,957.3382 C204.4212,956.6112 204.3772,952.0822 204.3772,952.0822" id="Stroke-103" stroke="#000000" stroke-width="2" sketch:type="MSShapeGroup"></path>
                <path d="M195.8834,932.5809 C184.3644,923.8969 162.0504,929.2559 154.7834,934.4799 C154.2834,928.7339 148.7834,924.7019 140.1164,924.7019 C140.1164,924.7019 131.7834,924.7019 134.2754,914.9249" id="Stroke-105" stroke="#000000" stroke-width="2" sketch:type="MSShapeGroup"></path>
                <path d="M168.6836,910.6711 C170.6806,914.0321 173.2346,921.5881 177.7846,927.9961" id="Stroke-107" stroke="#000000" stroke-width="2" sketch:type="MSShapeGroup"></path>
                <path d="M165.0793,925.5884 C168.6833,920.0884 179.7833,919.1774 183.5333,924.3384" id="Stroke-109" stroke="#000000" stroke-width="2" sketch:type="MSShapeGroup"></path>
                <path d="M163.0793,919.5884 C166.6833,914.0884 177.7833,913.1774 181.5333,918.3384" id="Stroke-111" stroke="#000000" stroke-width="2" sketch:type="MSShapeGroup"></path>
                <path d="M87.95,877.0032 C79.95,886.6702 72.367,901.3372 57.367,909.0042 C42.367,916.6712 30.333,915.0002 26.999,926.3422 C24.333,926.3422 24.429,932.0052 24.429,932.0052 C24.429,932.0052 25.44,934.6712 37.44,936.0052 C49.44,937.3382 69.945,939.2882 89.612,934.4802 C109.278,929.6712 104.45,922.5052 119.45,919.5882 L119.45,926.3382 C119.45,926.3382 128.009,929.0662 132.23,924.7022" id="Stroke-113" stroke="#000000" stroke-width="3" sketch:type="MSShapeGroup"></path>
                <path d="M26.9994,926.3422 C33.1164,928.6722 71.1164,934.3382 86.7834,930.0052 C102.4504,925.6722 105.8324,914.6272 120.4504,913.3382 L135.0674,912.0492" id="Stroke-115" stroke="#000000" stroke-width="2" sketch:type="MSShapeGroup"></path>
                <path d="M64.3162,904.6161 C71.7832,906.6721 81.7832,911.4271 89.4502,912.0491 C97.1172,912.6721 103.4502,906.2131 113.7832,907.2761 C124.1172,908.3381 123.4502,910.6711 123.4502,910.6711 C123.4502,910.6711 133.7172,906.9611 136.0832,899.3161" id="Stroke-117" stroke="#000000" stroke-width="2" sketch:type="MSShapeGroup"></path>
                <path d="M91.3927,880.7442 C84.5447,889.8782 77.4817,899.3852 69.8727,905.7562" id="Stroke-119" stroke="#000000" stroke-width="2" sketch:type="MSShapeGroup"></path>
                <path d="M80.6325,886.1051 C85.4505,881.3381 92.7835,883.6551 94.7835,890.0051" id="Stroke-121" stroke="#000000" stroke-width="2" sketch:type="MSShapeGroup"></path>
                <path d="M74.6325,894.1051 C79.4505,889.3381 86.7835,891.6551 88.7835,898.0051" id="Stroke-123" stroke="#000000" stroke-width="2" sketch:type="MSShapeGroup"></path>
                <path d="M191.8422,467.8705 C197.6752,476.9335 201.2832,483.0885 201.2832,483.0885" id="Stroke-125" stroke="#000000" stroke-width="2" sketch:type="MSShapeGroup"></path>
                <path d="M16.9503,989.5 L218.9503,989.5" id="Stroke-127" stroke="#FF0000" stroke-width="5" sketch:type="MSShapeGroup"></path>
            </g>
        </g>
    </g>
</svg>