<?xml version="1.0" encoding="UTF-8" standalone="no"?>
<svg width="315px" height="954px" viewBox="0 0 315 954" version="1.1" xmlns="http://www.w3.org/2000/svg" xmlns:xlink="http://www.w3.org/1999/xlink" xmlns:sketch="http://www.bohemiancoding.com/sketch/ns">
    <!-- Generator: Sketch 3.4.3 (16618) - http://www.bohemiancoding.com/sketch -->
    <title>Classic</title>
    <desc>Created with Sketch.</desc>
    <defs></defs>
    <g id="Page-1" stroke="none" stroke-width="1" fill="none" fill-rule="evenodd" sketch:type="MSPage">
        <g id="Classic" sketch:type="MSArtboardGroup" stroke="#000000">
            <g id="Page-1" sketch:type="MSLayerGroup" transform="translate(10.000000, 10.000000)">
                <path d="M166.3515,56.1114 C166.3515,64.6114 163.8515,99.1114 160.8515,105.6114 C157.8515,112.1114 142.8515,124.1114 139.8515,125.1114 C136.8515,126.1114 129.3515,125.6114 124.8515,125.1114 C120.3515,124.6114 105.3175,117.3104 101.3515,111.3614 C97.8515,106.1114 94.8515,92.6114 93.3515,84.6114 C91.8515,76.6114 91.3515,53.1114 92.8515,49.6114 C94.3515,46.1114 100.8515,26.6114 108.8515,30.1114 C116.8515,33.6114 122.8515,41.6114 135.8515,40.6114 C148.8515,39.6114 160.8515,30.1114 160.8515,30.1114 C160.8515,30.1114 166.3515,49.6114 166.3515,56.1114 L166.3515,56.1114 Z" id="Stroke-1" stroke-width="3" sketch:type="MSShapeGroup"></path>
                <path d="M92.8515,72.1114 C88.6015,64.6114 83.6015,62.1114 81.6015,64.3614 C79.6015,66.6114 79.1015,77.3614 82.8515,82.3614 C86.6015,87.3614 88.1015,90.1114 93.1015,90.1114" id="Stroke-3" stroke-width="3" sketch:type="MSShapeGroup"></path>
                <path d="M167.1015,63.6114 C168.6015,61.6114 171.6015,59.8614 172.8515,65.8614 C174.1015,71.8614 173.3515,86.8614 164.8515,88.6114" id="Stroke-5" stroke-width="3" sketch:type="MSShapeGroup"></path>
                <path d="M82.3515,64.1114 C80.1015,58.8614 79.6015,32.6114 83.8515,23.8614 C88.1015,15.1114 101.3515,-0.3886 128.8515,0.1114 C156.3515,0.6114 162.8515,14.1114 164.3515,20.6114 C164.3515,20.6114 170.3515,22.6114 171.8515,26.6114 C173.3515,30.6114 177.8515,43.8614 172.3515,62.1114" id="Stroke-7" stroke-width="3" sketch:type="MSShapeGroup"></path>
                <path d="M158.5182,108.6114 C157.2682,113.8614 157.3512,129.6114 166.3512,133.1114 C166.3512,133.1114 169.8512,134.9444 168.1852,151.7784 C166.5182,168.6114 163.8512,224.9444 162.6852,241.1114 C161.5182,257.2784 143.8512,352.7784 143.0182,357.9444 C142.1852,363.1114 142.8512,362.4444 142.8512,362.4444 C142.8512,362.4444 158.8512,337.9444 162.1852,330.6114 C165.5182,323.2784 187.3512,268.7784 191.0182,256.2784 C194.6852,243.7784 210.5182,184.6114 210.5182,181.4444 C210.5182,181.4444 183.3512,170.6114 168.6852,155.2784" id="Stroke-9" stroke-width="3" sketch:type="MSShapeGroup"></path>
                <path d="M99.6015,107.8614 C101.1015,120.6114 103.1845,133.9444 95.6845,139.1114" id="Stroke-11" stroke-width="3" sketch:type="MSShapeGroup"></path>
                <path d="M128.3515,158.8614 C128.1015,162.6114 128.6015,167.6114 129.1015,169.3614 C131.1015,170.3614 135.8515,170.1114 138.1015,169.3614 C139.1015,167.1114 138.8515,160.1114 138.3515,158.8614 C136.8515,158.1114 128.3515,158.8614 128.3515,158.8614 L128.3515,158.8614 Z" id="Stroke-13" stroke-width="3" sketch:type="MSShapeGroup"></path>
                <path d="M138.6015,158.8614 C142.1015,155.3614 152.1015,149.3614 153.8515,148.6114 C156.1015,149.6114 159.1015,152.3614 159.3515,154.3614 C159.6015,156.3614 161.3515,170.3614 155.8515,175.3614 C153.8515,178.3614 151.3515,177.8614 148.8515,177.3614 C146.3515,176.8614 139.1015,169.3614 139.1015,169.3614" id="Stroke-15" stroke-width="3" sketch:type="MSShapeGroup"></path>
                <path d="M128.3515,159.6114 C124.1015,156.6114 112.3515,152.6114 109.3515,152.6114 C107.3515,155.6114 105.1015,165.6114 108.1015,172.3614 C111.1015,179.1114 111.6015,181.1114 113.8515,181.6114 C116.1015,182.1114 125.1015,177.8614 128.8515,169.3614" id="Stroke-17" stroke-width="3" sketch:type="MSShapeGroup"></path>
                <path d="M111.1849,179.6114 C103.2909,173.2574 95.6849,156.4444 95.6849,156.4444 C95.6849,156.4444 93.4119,153.0694 94.6849,145.4444 C95.9579,137.8194 99.0179,134.1114 99.0179,134.1114 L131.8519,158.4444 L162.1849,129.4444" id="Stroke-19" stroke-width="3" sketch:type="MSShapeGroup"></path>
                <path d="M164.8515,131.9447 C164.8515,131.9447 167.3345,137.4737 167.8515,141.6117 C168.5185,146.9447 169.5185,149.9447 167.0185,158.2777 C164.5185,166.6117 157.8515,172.7777 157.8515,172.7777" id="Stroke-21" stroke-width="3" sketch:type="MSShapeGroup"></path>
                <path d="M94.0182,168.1114 C89.0182,174.1114 66.0182,186.7784 60.0182,189.9444 C59.8512,203.7784 68.8512,240.2784 82.1852,262.9444 C95.5182,285.6114 140.5182,349.7784 142.3512,353.6114 C143.3512,348.6114 143.3512,341.6114 143.3512,341.6114 C143.3512,341.6114 124.5182,290.2784 116.5182,270.9444 C101.8512,229.1114 89.0182,178.2784 96.0182,137.9444 C89.3512,143.7784 83.1852,151.1114 75.0182,156.1114 C70.8512,166.1114 60.8512,179.1114 60.8512,179.1114 L72.3512,182.9444" id="Stroke-23" stroke-width="3" sketch:type="MSShapeGroup"></path>
                <path d="M192.5182,171.9447 C196.5182,169.9447 201.8512,165.6117 203.1852,164.1117 C203.1852,161.7777 192.6852,147.4447 190.0182,143.6117 C185.3512,140.6117 181.3512,139.1117 177.8512,136.4447 C174.3512,133.7777 171.3512,131.1117 168.8512,130.9447 C166.3512,130.7777 163.6852,130.7777 163.6852,130.7777" id="Stroke-25" stroke-width="3" sketch:type="MSShapeGroup"></path>
                <path d="M142.8515,362.4447 C141.5185,373.7777 139.1845,409.1117 140.1845,434.4447 C141.1845,459.7777 149.8515,503.1117 153.1845,511.4447 C156.5185,519.7777 168.1845,529.7777 175.5185,530.4447 C182.8515,531.1117 235.5185,528.7777 246.5185,523.4447" id="Stroke-27" stroke-width="3" sketch:type="MSShapeGroup"></path>
                <path d="M35.1849,249.1114 C39.8519,261.7784 50.5179,310.1114 52.1849,323.1114 C53.8519,336.1114 54.8519,369.7784 55.1849,379.1114 C55.5179,388.4444 52.5179,433.4444 52.8519,446.1114 C53.1849,458.7784 53.8519,501.1114 53.8519,504.4444 C53.8519,507.7784 54.5179,528.7784 54.5179,530.1114 C54.5179,531.4444 57.1849,533.4444 60.8519,534.1114 C64.5179,534.7784 103.5179,537.7784 119.1849,535.4444 C134.8519,533.1114 147.1849,529.1114 151.5179,524.4444 C155.8519,519.7784 154.8519,516.1114 154.8519,516.1114" id="Stroke-29" stroke-width="3" sketch:type="MSShapeGroup"></path>
                <path d="M74.1849,157.778 C66.1849,160.778 46.1849,172.445 41.1849,175.111 C36.1849,177.778 17.5179,187.111 15.8519,189.445 C14.1849,191.778 10.8519,192.111 10.5179,202.111 C10.1849,212.111 8.1849,239.778 8.5179,244.111 C8.8519,248.445 9.8519,259.778 10.5179,269.778 C8.8519,283.111 4.1849,301.778 5.8519,313.778 C7.5179,325.778 6.5179,339.111 4.5179,342.445 C2.5179,345.778 0.8519,396.111 0.5179,400.778 C0.1849,405.445 4.5179,460.111 6.1849,472.111 C7.8519,484.111 7.8519,502.445 9.5179,505.111 C13.8519,503.111 15.8519,496.445 27.5179,494.111 C39.1849,491.778 46.1849,496.778 47.5179,498.111 C47.5179,494.778 48.1849,458.778 48.1849,451.445 C48.1849,444.111 48.1849,419.778 49.5179,415.111 C50.8519,410.445 54.5179,377.445 54.5179,377.445" id="Stroke-31" stroke-width="3" sketch:type="MSShapeGroup"></path>
                <path d="M11.8515,504.9447 C11.8515,504.9447 14.6845,509.9447 14.3515,513.4447 C14.0185,516.9447 11.5185,528.6117 11.8515,531.2777 C12.1845,533.9447 14.0185,537.4447 16.8515,540.9447 C19.6845,544.4447 21.5185,551.2777 24.6845,554.2777 C27.8515,557.2777 31.3515,559.7777 37.1845,561.4447 C43.0185,563.1117 43.3515,564.1117 48.3515,563.6117 C53.3515,563.1117 57.3515,561.9867 55.6845,558.2777 C54.1865,554.9437 53.0185,556.2777 54.5185,553.9447 C56.0185,551.6117 54.8515,541.6117 53.3515,535.4447 C51.8515,529.2777 52.0185,500.2777 45.6845,496.1117" id="Stroke-33" stroke-width="3" sketch:type="MSShapeGroup"></path>
                <path d="M34.1849,520.4447 C37.3519,522.1117 39.6849,525.2777 40.0179,529.1117 C40.3519,532.9447 41.0179,542.7777 42.3519,545.7777 C43.6849,548.7777 45.0179,552.9447 46.6849,553.7777 C48.3519,554.6117 51.3519,555.4447 53.5179,555.1117" id="Stroke-35" stroke-width="2" sketch:type="MSShapeGroup"></path>
                <path d="M38.5182,526.1114 C36.3512,527.2784 32.8512,528.7784 31.5182,531.6114 C30.1682,534.4804 33.5182,539.6114 34.0182,542.7784 C34.5182,545.9444 34.6852,549.2784 35.5182,550.1114 C36.3512,550.9444 44.1852,552.9444 47.0182,554.1114" id="Stroke-37" stroke-width="2" sketch:type="MSShapeGroup"></path>
                <path d="M33.9765,543.2364 C33.9765,543.2364 39.7265,543.8614 42.4765,545.6114" id="Stroke-39" stroke-width="2" sketch:type="MSShapeGroup"></path>
                <path d="M191.8515,144.8614 C195.6015,144.8614 205.1015,147.1114 208.6015,147.8614 C212.1015,148.6114 247.3515,162.8614 252.1015,164.1114 C256.8515,165.3614 259.6015,167.3614 260.1015,168.8614 C260.6015,170.3614 264.1015,184.6114 264.6015,188.1114 C265.1015,191.6114 267.8515,198.6114 267.8515,204.1114 C267.8515,209.6114 265.1015,216.6114 267.3515,220.3614 C269.6015,224.1114 274.3515,256.1114 273.3515,266.8614 C272.3515,277.6114 278.3515,292.8614 279.1015,305.3614 C279.8515,317.8614 287.8515,335.6114 289.1015,354.3614 C290.3515,373.1114 294.6015,411.6114 294.6015,421.8614 C294.6015,432.1114 294.3515,484.3614 292.6015,485.6114 C290.8515,486.8614 287.6015,478.3614 277.3515,476.3614 C267.1015,474.3614 254.8515,476.6114 252.6015,477.1114 C251.6015,472.6114 251.8515,445.3614 252.3515,442.6114 C252.8515,439.8614 243.8515,397.1114 243.1015,381.1114 C242.3515,365.1114 238.1015,330.1114 236.8515,324.6114 C235.6015,319.1114 232.6015,304.8614 232.6015,304.8614" id="Stroke-41" stroke-width="3" sketch:type="MSShapeGroup"></path>
                <path d="M236.6015,236.3614 C234.6015,243.1114 233.6015,284.3614 232.8515,294.1114 C232.1015,303.8614 232.6015,317.1114 232.3515,323.6114 C232.1015,330.1114 234.8515,367.1114 236.1015,376.1114 C237.3515,385.1114 242.3515,404.6114 242.8515,408.6114 C243.3515,412.6114 250.6015,453.1114 251.6015,457.3614" id="Stroke-43" stroke-width="3" sketch:type="MSShapeGroup"></path>
                <path d="M60.8515,534.1114 C60.8515,534.1114 61.3515,716.6114 61.3515,725.1114 C61.3515,733.6114 66.8515,803.1114 64.8515,811.1114 C62.8515,819.1114 57.8515,828.6114 57.8515,832.6114 C57.8515,836.6114 57.8515,847.1114 58.3515,854.1114 C58.8515,861.1114 58.3515,865.6114 58.3515,869.1114 C58.3515,872.6114 69.3515,874.6114 79.8515,873.1114 C90.3515,871.6114 103.3515,867.1114 107.3515,864.6114 C108.8515,859.6114 116.3515,837.6114 116.8515,834.1114 C117.3515,830.6114 115.8515,825.6114 118.8515,814.6114 C121.8515,803.6114 141.8515,705.7804 141.3515,641.7804 C140.8515,577.7804 148.3515,540.9494 148.3515,540.9494 L150.8515,540.9494 C150.8515,540.9494 152.3515,564.2804 153.3515,579.2804 C154.3515,594.2804 153.8515,636.9464 156.8515,644.9464 C159.8515,652.9464 156.8515,670.2784 156.8515,679.7784 C156.8515,689.2784 156.3515,776.6954 158.3515,788.1954 C160.3515,799.6954 162.8515,846.1534 163.3515,851.1534 C163.8515,856.1534 164.3515,868.1324 164.3515,868.1324 C164.3515,868.1324 175.3515,882.6214 194.8515,881.6214 C214.3515,880.6214 224.8515,870.6164 224.8515,870.6164 C224.8515,870.6164 228.8515,789.1144 228.8515,783.1144 C228.8515,777.1144 233.8515,730.1124 235.3515,722.1124 C236.8515,714.1124 236.3515,639.1124 236.3515,632.1124 C236.3515,625.1124 240.3515,548.6114 240.3515,543.6114 C240.3515,538.6114 242.3515,525.6114 242.3515,525.6114" id="Stroke-45" stroke-width="3" sketch:type="MSShapeGroup"></path>
                <path d="M255.3515,477.1114 C253.3515,479.8614 247.6015,492.3614 247.6015,497.6114 C247.6015,502.8614 247.3515,510.3614 247.1015,515.3614 C246.8515,520.3614 246.3515,523.8614 248.6015,528.8614 C250.8515,533.8614 255.3515,533.6114 256.8515,528.3614 C258.8515,521.3614 257.1015,513.8614 258.1015,511.3614 C259.1015,508.8614 263.6015,500.8614 263.6015,500.8614 C263.6015,500.8614 265.8515,506.1114 265.8515,508.6114 C265.8515,511.1114 263.6015,520.8614 263.6015,525.1114 C261.8515,527.1114 248.3515,535.8614 246.6015,539.6114 C244.8515,543.3614 248.3515,544.6114 250.8515,544.3614 C253.3515,544.1114 267.8515,539.6114 270.1015,538.3614 C272.3515,538.8614 273.6015,538.8614 275.3515,536.8614 C277.1015,534.8614 285.6015,519.3614 287.6015,517.1114 C289.6015,514.8614 289.1015,485.1114 289.3515,484.1114" id="Stroke-47" stroke-width="3" sketch:type="MSShapeGroup"></path>
                <path d="M284.1015,510.3614 C281.8515,513.3614 274.3515,531.6114 273.3515,532.6114 C272.3515,533.6114 270.1015,537.3614 270.1015,537.3614" id="Stroke-49" stroke-width="2" sketch:type="MSShapeGroup"></path>
                <path d="M196.8515,240.1114 C206.3515,240.1114 226.1015,236.1114 226.1015,236.1114 L225.8515,242.3614 C225.8515,242.3614 212.6015,246.8614 194.8515,246.8614" id="Stroke-51" stroke-width="2" sketch:type="MSShapeGroup"></path>
                <path d="M201.6015,221.8614 C204.1015,220.1114 205.3515,218.6114 207.6015,218.6114 C209.8515,218.6114 216.3515,222.1114 218.8515,227.1114 C221.3515,232.1114 222.6015,236.3614 222.6015,236.3614" id="Stroke-53" stroke-width="2" sketch:type="MSShapeGroup"></path>
                <path d="M159.3515,374.2364 C159.3515,378.1714 156.5535,381.3614 153.1015,381.3614 C149.6495,381.3614 146.8515,378.1714 146.8515,374.2364 C146.8515,370.3014 149.6495,367.1114 153.1015,367.1114 C156.5535,367.1114 159.3515,370.3014 159.3515,374.2364 L159.3515,374.2364 Z" id="Stroke-55" stroke-width="2" sketch:type="MSShapeGroup"></path>
                <path d="M72.5182,824.4447 C77.5182,833.7777 99.1852,818.1117 113.8512,796.1117" id="Stroke-57" stroke-width="2" sketch:type="MSShapeGroup"></path>
                <path d="M58.8515,871.1114 C55.3515,874.8614 50.0235,881.4784 47.6015,885.1114 C45.1015,888.8614 39.6845,893.7784 39.1845,900.7784 C38.6845,907.7784 41.1845,909.6114 41.1845,909.6114 C41.1845,909.6114 40.6015,913.1114 50.8515,913.6114 C61.1015,914.1114 73.3515,916.6114 88.3515,904.8614 C93.1015,899.6114 88.8905,898.5434 90.8515,895.1114 C92.1845,892.7784 92.6015,889.8614 95.3515,889.3614 C98.1015,888.8614 97.6015,891.1114 99.8515,889.8614 C102.1015,888.6114 108.6015,884.6114 109.6015,882.6114 C109.8515,880.1114 109.3515,869.8614 107.1015,865.8614" id="Stroke-59" stroke-width="3" sketch:type="MSShapeGroup"></path>
                <path d="M40.8515,907.1114 C42.8515,908.3614 62.1015,910.6114 70.6015,908.6114 C79.1015,906.6114 87.6015,900.1114 89.6015,897.6114" id="Stroke-61" stroke-width="2" sketch:type="MSShapeGroup"></path>
                <path d="M94.8515,889.1114 C98.6845,886.2784 108.1845,879.6114 109.3515,878.1114" id="Stroke-63" stroke-width="2" sketch:type="MSShapeGroup"></path>
                <path d="M167.8515,873.1114 C167.3515,876.8614 166.1015,895.3614 166.8515,899.1114 C169.6015,901.8614 173.3515,904.3614 176.1015,905.8614 C178.6015,909.3614 178.3515,915.3614 179.1015,917.6114 C179.8515,919.8614 183.1015,927.8614 192.1015,929.8614 C201.1015,931.8614 215.8515,932.8614 227.3515,927.8614 C236.8515,920.3614 230.1015,910.8614 228.3515,907.3614 C226.6015,903.8614 213.1015,882.6114 211.1015,879.1114" id="Stroke-65" stroke-width="3" sketch:type="MSShapeGroup"></path>
                <path d="M178.3515,911.1114 C181.6015,918.6114 189.3515,926.1114 205.8515,926.3614 C222.3515,926.6114 227.1015,923.8614 230.6015,922.8614" id="Stroke-67" stroke-width="2" sketch:type="MSShapeGroup"></path>
                <path d="M167.3515,893.3614 C170.6015,894.6114 176.8515,898.1114 177.6015,907.6114" id="Stroke-69" stroke-width="2" sketch:type="MSShapeGroup"></path>
                <path d="M219.3515,893.3614 C214.6015,888.3614 210.8515,887.6114 202.6015,887.6114 C191.8395,887.6114 186.3515,894.3614 183.6015,897.3614 C183.6015,897.3614 174.3515,887.6114 171.3515,875.6114" id="Stroke-71" stroke-width="2" sketch:type="MSShapeGroup"></path>
                <path d="M203.6015,887.3614 C203.6015,887.3614 201.8515,883.3614 201.1015,881.6114" id="Stroke-73" stroke-width="2" sketch:type="MSShapeGroup"></path>
                <path d="M53.8515,877.8614 C58.3515,876.6114 72.3515,878.3614 83.1015,881.3614 C89.1015,877.6114 98.8515,870.1114 101.8515,867.8614" id="Stroke-75" stroke-width="2" sketch:type="MSShapeGroup"></path>
                <path d="M68.6015,874.1114 C66.1015,876.1114 64.8515,877.6114 64.8515,877.6114" id="Stroke-77" stroke-width="2" sketch:type="MSShapeGroup"></path>
                <path d="M98.8515,162.778 C99.8515,177.111 112.8515,242.445 137.5185,271.778 L142.5185,276.778 L146.8515,329.778" id="Stroke-79" stroke-width="3" sketch:type="MSShapeGroup"></path>
                <path d="M163.1849,168.1114 C162.1849,186.4444 149.8519,258.7784 137.8519,270.4444" id="Stroke-81" stroke-width="3" sketch:type="MSShapeGroup"></path>
                <path d="M137.1849,194.4447 C137.1849,196.1017 135.9909,197.4447 134.5179,197.4447 C133.0459,197.4447 131.8519,196.1017 131.8519,194.4447 C131.8519,192.7877 133.0459,191.4447 134.5179,191.4447 C135.9909,191.4447 137.1849,192.7877 137.1849,194.4447 L137.1849,194.4447 Z" id="Stroke-83" stroke-width="2" sketch:type="MSShapeGroup"></path>
                <path d="M139.1849,243.4447 C139.1849,245.1017 137.9909,246.4447 136.5179,246.4447 C135.0459,246.4447 133.8519,245.1017 133.8519,243.4447 C133.8519,241.7877 135.0459,240.4447 136.5179,240.4447 C137.9909,240.4447 139.1849,241.7877 139.1849,243.4447 L139.1849,243.4447 Z" id="Stroke-85" stroke-width="2" sketch:type="MSShapeGroup"></path>
                <path d="M130.8515,169.778 C129.5185,179.111 127.8515,186.111 127.8515,193.778 C127.8515,201.445 132.8515,265.111 132.8515,265.111" id="Stroke-87" stroke-width="3" sketch:type="MSShapeGroup"></path>
                <path d="M196.9347,885.4864 C197.1647,884.4684 207.3997,883.0454 208.6017,884.6114" id="Stroke-89" stroke-width="2" sketch:type="MSShapeGroup"></path>
            </g>
        </g>
    </g>
</svg>