<?xml version="1.0" encoding="UTF-8" standalone="no"?>
<svg width="360px" height="954px" viewBox="0 0 360 954" version="1.1" xmlns="http://www.w3.org/2000/svg" xmlns:xlink="http://www.w3.org/1999/xlink" xmlns:sketch="http://www.bohemiancoding.com/sketch/ns">
    <!-- Generator: Sketch 3.4.3 (16618) - http://www.bohemiancoding.com/sketch -->
    <title>Modern</title>
    <desc>Created with Sketch.</desc>
    <defs></defs>
    <g id="Page-1" stroke="none" stroke-width="1" fill="none" fill-rule="evenodd" sketch:type="MSPage">
        <g id="Modern" sketch:type="MSArtboardGroup" stroke="#000000">
            <g id="Page-1" sketch:type="MSLayerGroup" transform="translate(5.000000, 13.000000)">
                <path d="M145,50.7869 C145,57.3059 148,83.2869 150,93.7869 C152,104.2869 170.5,121.2869 175,124.2869 C179.5,127.2869 192,126.2869 197,123.7869 C202,121.2869 214,108.2869 217,102.2869 C220,96.2869 219,89.2869 221.5,88.2869 C224,87.2869 227.5,85.7869 229.5,78.2869 C231.5,70.7869 234.5,60.7869 230.5,58.7869 C226.5,56.7869 221.5,60.7869 219,64.7869 C216.5,60.2869 208,33.2869 208,25.7869 C196,25.2869 187.5,47.2869 163,35.7869 C146.524,28.0539 145,41.7869 145,50.7869 L145,50.7869 Z" id="Stroke-1" stroke-width="3" sketch:type="MSShapeGroup"></path>
                <path d="M146.1667,68.7869 C140.1667,59.2869 132.4997,37.2869 137.9997,26.7869 C143.4997,16.2869 152.4997,6.7869 175.9997,1.7869 C199.4997,-3.2131 213.4997,8.7869 214.4997,13.7869 C214.4997,13.7869 219.6827,12.8909 223.4997,16.1199 C227.8337,19.7869 236.4997,35.4539 230.4997,58.7869" id="Stroke-3" stroke-width="3" sketch:type="MSShapeGroup"></path>
                <path d="M140.1667,60.7869 C134.4997,62.4539 141.1667,84.1199 149.8337,90.1199" id="Stroke-5" stroke-width="3" sketch:type="MSShapeGroup"></path>
                <path d="M189,155.3677 C188.75,159.1177 189.25,164.1177 189.75,165.8677 C191.75,166.8677 196.5,166.6177 198.75,165.8677 C199.75,163.6177 199.5,156.6177 199,155.3677 C197.5,154.6177 189,155.3677 189,155.3677 L189,155.3677 Z" id="Stroke-7" stroke-width="3" sketch:type="MSShapeGroup"></path>
                <path d="M199.25,155.3677 C202.75,151.8677 212.75,145.8677 214.5,145.1177 C216.75,146.1177 219.75,148.8677 220,150.8677 C220.25,152.8677 222,166.8677 216.5,171.8677 C214.5,174.8677 212,174.3677 209.5,173.8677 C207,173.3677 199.75,165.8677 199.75,165.8677" id="Stroke-9" stroke-width="3" sketch:type="MSShapeGroup"></path>
                <path d="M189,156.1177 C184.75,153.1177 173,149.1177 170,149.1177 C168,152.1177 165.75,162.1177 168.75,168.8677 C171.75,175.6177 172.25,177.6177 174.5,178.1177 C176.75,178.6177 185.75,174.3677 189.5,165.8677" id="Stroke-11" stroke-width="3" sketch:type="MSShapeGroup"></path>
                <path d="M217,102.2869 C216.75,110.2869 218.5,120.5369 221,124.0369 L192.5,154.9509 L159.667,130.6179 C159.667,130.6179 156.607,134.3259 155.333,141.9509 C154.06,149.5759 156.333,152.9509 156.333,152.9509 C156.333,152.9509 163.94,169.7639 171.833,176.1179" id="Stroke-13" stroke-width="3" sketch:type="MSShapeGroup"></path>
                <path d="M221.5,124.2869 C221.5,124.2869 227.983,133.9799 228.5,138.1179 C229.167,143.4509 230.167,146.4509 227.667,154.7839 C225.167,163.1179 218.5,169.2839 218.5,169.2839" id="Stroke-15" stroke-width="3" sketch:type="MSShapeGroup"></path>
                <path d="M159.75,109.5369 C161.25,114.0369 162,127.2869 159.75,129.7869" id="Stroke-17" stroke-width="3" sketch:type="MSShapeGroup"></path>
                <path d="M226,158.7869 C225.25,166.2869 215.5,255.0369 210.5,271.0369 C205.5,287.0369 192.75,342.0369 191,345.7869 C189.25,349.5369 194.25,405.2869 195.75,421.2869 C197.25,437.2869 203.5,507.0369 210.5,518.5369 C217.5,530.0369 233,534.2869 242.5,534.2869 C252,534.2869 287.75,529.5369 288.75,529.5369" id="Stroke-19" stroke-width="3" sketch:type="MSShapeGroup"></path>
                <path d="M156.25,153.7869 C156,162.5369 180.5,299.5369 197.75,319.2869" id="Stroke-21" stroke-width="3" sketch:type="MSShapeGroup"></path>
                <path d="M156.5,138.2869 C150.5,143.7869 128,166.0369 126.25,168.0369 C124.5,170.0369 137,177.2869 137,177.2869" id="Stroke-23" stroke-width="3" sketch:type="MSShapeGroup"></path>
                <path d="M156.75,153.5369 C153.5,157.0369 130,182.7869 129.25,185.0369 C128.5,187.2869 129.464,189.2119 129.75,190.7869 C130.25,193.5369 158.75,282.5369 196,328.0369" id="Stroke-25" stroke-width="3" sketch:type="MSShapeGroup"></path>
                <path d="M225.25,128.7869 C228.5,130.0369 256.25,158.0369 257.75,161.0369 C259.25,164.0369 244.5,167.0369 244.5,167.0369" id="Stroke-27" stroke-width="3" sketch:type="MSShapeGroup"></path>
                <path d="M229.25,154.0369 C232.75,157.2869 251.75,174.7869 254.5,177.5369 C257.25,180.2869 252.5,202.5369 247.75,220.7869 C243,239.0369 217.5,300.2869 213.25,308.5369 C209,316.7869 195.5,339.2869 192,343.2869" id="Stroke-29" stroke-width="3" sketch:type="MSShapeGroup"></path>
                <path d="M95.5,243.0369 C99.5,257.5369 110.5,322.5369 111,339.5369 C111.5,356.5369 111.5,365.2869 111.75,367.2869 C112,369.2869 102.75,425.0369 101,436.5369 C99.25,448.0369 96.75,490.0369 96.75,490.0369" id="Stroke-31" stroke-width="3" sketch:type="MSShapeGroup"></path>
                <path d="M103,534.2869 C103,534.2869 130.5,537.7869 156.25,537.2869 C182,536.7869 188.25,515.2869 189.25,510.5369 C190.25,505.7869 196,450.0369 197.25,440.5369" id="Stroke-33" stroke-width="3" sketch:type="MSShapeGroup"></path>
                <path d="M206.5,354.7869 C206.5,357.8249 204.317,360.2869 201.625,360.2869 C198.933,360.2869 196.75,357.8249 196.75,354.7869 C196.75,351.7489 198.933,349.2869 201.625,349.2869 C204.317,349.2869 206.5,351.7489 206.5,354.7869 L206.5,354.7869 Z" id="Stroke-35" stroke-width="2" sketch:type="MSShapeGroup"></path>
                <path d="M190.5,405.7869 C190.5,408.8249 188.317,411.2869 185.625,411.2869 C182.933,411.2869 180.75,408.8249 180.75,405.7869 C180.75,402.7489 182.933,400.2869 185.625,400.2869 C188.317,400.2869 190.5,402.7489 190.5,405.7869 L190.5,405.7869 Z" id="Stroke-37" stroke-width="2" sketch:type="MSShapeGroup"></path>
                <path d="M201.5,406.2869 C198.274,405.2119 211,405.2869 212.5,405.7869 C214,406.2869 215.75,406.0369 216.5,406.0369 C217.25,406.0369 205.25,407.5369 201.5,406.2869 L201.5,406.2869 Z" id="Stroke-39" stroke-width="2" sketch:type="MSShapeGroup"></path>
                <path d="M238.25,248.2869 C242.75,247.7869 272.25,247.0369 278.75,244.7869 C280,251.0369 279,254.0369 279,254.0369 C279,254.0369 256.25,258.5369 235.5,257.2869" id="Stroke-41" stroke-width="2" sketch:type="MSShapeGroup"></path>
                <path d="M243.75,235.7869 C245.75,233.5369 251.25,227.2869 255.25,226.5369 C259.25,225.7869 270.25,234.5369 271.5,236.2869 C272.75,238.0369 277.5,245.0369 277.5,245.0369" id="Stroke-43" stroke-width="2" sketch:type="MSShapeGroup"></path>
                <path d="M141.1667,152.1202 C131.4997,156.7872 120.8337,163.7872 116.8337,165.1202 C112.8337,166.4532 102.1667,169.7872 96.4997,171.7872 C90.8337,173.7872 79.4997,176.4532 77.1667,179.7872 C74.8337,183.1202 75.4997,192.4532 75.1667,199.1202 C74.8337,205.7872 68.8337,274.1202 67.8337,283.4532 C66.8337,292.7872 59.4997,333.1202 59.4997,340.4532 C59.4997,347.7872 53.4997,397.4532 54.1667,405.4532 C54.8337,413.4532 54.1667,476.7872 54.8337,481.4532 C55.4997,486.1202 55.8337,486.1202 56.1667,488.1202 C56.4997,490.1202 57.1667,488.7872 58.8337,487.7872 C60.4997,486.7872 71.8337,480.7872 79.4997,480.4532 C87.1667,480.1202 94.4997,484.7872 95.8337,484.7872" id="Stroke-45" stroke-width="3" sketch:type="MSShapeGroup"></path>
                <path d="M66.8333,485.1203 C66.8333,490.7873 60.5003,519.1203 60.5003,522.4533 C60.5003,525.7873 62.5003,530.1203 64.5003,533.1203 C66.5003,536.1203 71.1663,549.1203 73.5003,550.1203 C75.8333,551.1203 81.1663,553.7873 83.8333,554.7873 C86.5003,555.7873 90.1663,558.1203 94.5003,560.1203 C98.8333,562.1203 100.8333,561.1203 101.5003,559.4533 C102.1663,557.7873 104.8333,556.4533 103.1663,554.1203 C101.5003,551.7873 101.9583,548.9953 101.6253,547.6623 C101.2913,546.3283 99.5003,544.7873 99.5003,544.7873 C99.5003,544.7873 100.6253,544.5373 101.8753,543.1623 C103.1253,541.7873 105.7503,540.6623 102.7503,531.5373 C99.7503,522.4123 101.7503,515.0373 102.2503,513.5373 C102.7503,512.0373 104.7503,497.2873 95.8753,489.5373 C95.7503,488.9123 95.0003,485.0373 95.0003,485.0373" id="Stroke-47" stroke-width="3" sketch:type="MSShapeGroup"></path>
                <path d="M87.125,515.1619 C88.625,518.5369 89.875,526.2869 90.5,529.1619 C91.19,532.3379 92.375,538.1619 92.5,540.2869 C92.625,542.4119 95.625,544.4119 97.875,544.4119" id="Stroke-49" stroke-width="2" sketch:type="MSShapeGroup"></path>
                <path d="M87.5,519.4119 C85.75,519.6619 83.25,520.7869 83.125,523.1619 C83,525.5369 84.5,536.1619 84.5,538.4119 C84.5,540.6619 85.125,542.2869 85.5,543.4119 C85.875,544.5369 93.375,547.6619 95.5,550.0369 C97.625,552.4119 101,554.4119 101.75,558.1619" id="Stroke-51" stroke-width="2" sketch:type="MSShapeGroup"></path>
                <path d="M85.125,539.0369 C86.75,539.0369 91.125,539.4119 92,539.6619" id="Stroke-53" stroke-width="2" sketch:type="MSShapeGroup"></path>
                <path d="M108.5,316.2869 C107.25,329.7869 105.25,366.2869 105,373.7869 C104.75,381.2869 103.5,417.7869 103.5,417.7869" id="Stroke-55" stroke-width="3" sketch:type="MSShapeGroup"></path>
                <path d="M241,141.5369 C249.25,143.5369 269.5,152.2869 277.75,154.5369 C286,156.7869 312.75,167.7869 314.75,169.5369 C316.75,171.2869 320.25,192.0369 321.25,198.5369 C322.25,205.0369 329.75,264.7869 330.75,273.0369 C331.75,281.2869 337.5,311.7869 339.25,324.0369 C341,336.2869 345.75,384.5369 345.25,396.7869 C344.75,409.0369 344.25,474.5369 342.75,477.2869 C341.25,480.0369 341.75,482.0369 339.5,480.2869 C337.25,478.5369 326.5,473.2869 315.25,473.5369 C304,473.7869 300.25,474.0369 297.5,475.2869 C297.25,471.0369 299.25,443.0369 299.25,436.5369 C299.25,430.0369 294.75,376.2869 294.5,372.0369 C294.25,367.7869 289,314.5369 288.5,311.2869 C288,308.0369 286.75,300.7869 286.75,300.7869" id="Stroke-57" stroke-width="3" sketch:type="MSShapeGroup"></path>
                <path d="M300.5,474.5369 C300,476.8699 294,489.7869 293.167,493.1199 C292.333,496.4539 291.167,504.7869 291,509.2869 C290.833,513.7869 289,526.1199 289.167,528.9539 C289.333,531.7869 290.5,533.2869 292,533.9539 C293.5,534.6199 297.333,533.4539 298.833,530.6199 C300.333,527.7869 301.667,521.9539 302,519.4539 C302.333,516.9539 302.5,509.7869 303.333,507.7869 C304.167,505.7869 306.667,507.1199 308,508.2869 C309.333,509.4539 310.5,517.2869 310.333,520.2869 C310.167,523.2869 308.667,531.7869 307.833,532.7869 C307,533.7869 294,535.7869 291.5,539.7869 C289,543.7869 294,544.7869 294,544.7869 C294,544.7869 301.667,544.9539 303.833,544.7869 C306,544.6199 314.333,539.6199 315.667,538.7869 C317.167,539.4539 320.667,537.7869 321.833,536.6199 C323,535.4539 334.333,518.7869 334.5,516.6199 C334.667,514.4539 335,499.9539 334.667,497.4539 C334.333,494.9539 333.667,488.2869 334.167,485.6199 C334.667,482.9539 336.333,479.6199 336.333,479.6199" id="Stroke-59" stroke-width="3" sketch:type="MSShapeGroup"></path>
                <path d="M316,537.9536 C317.333,536.9536 319.167,534.6206 319.667,533.4536 C320.167,532.2866 327.167,514.6206 327.167,512.4536" id="Stroke-61" stroke-width="2" sketch:type="MSShapeGroup"></path>
                <path d="M300.5,529.4536 C302.5,529.4536 306.167,530.4536 307.5,531.4536" id="Stroke-63" stroke-width="2" sketch:type="MSShapeGroup"></path>
                <path d="M295,534.7869 L296.667,536.1199" id="Stroke-65" stroke-width="2" sketch:type="MSShapeGroup"></path>
                <path d="M293.75,239.0369 C292.5,248.7869 287.75,300.5369 285.5,310.7869 C283.25,321.0369 282,342.7869 282.5,351.5369 C283,360.2869 289.25,400.0369 290,412.2869 C290.75,424.5369 296.25,456.7869 297.75,463.2869" id="Stroke-67" stroke-width="3" sketch:type="MSShapeGroup"></path>
                <path d="M90.8333,559.7869 C88.8333,576.4539 86.8333,626.4539 84.8333,641.7869 C82.8333,657.1199 72.1663,685.7869 70.1663,695.7869 C68.1663,705.7869 53.5003,803.1199 50.8333,809.1199 C48.1663,815.1199 34.1663,859.1199 33.5003,869.7869 C40.7963,875.3619 82.3113,880.8409 90.8333,878.4539 C93.5003,870.4539 97.5003,859.1199 97.5003,851.7869 C100.1663,843.1199 136.1663,745.1199 141.5003,718.4539 C146.8333,691.7869 174.1663,563.1199 175.5003,557.7869 C176.8333,552.4539 183.5003,529.7869 185.5003,527.7869 C187.5003,525.7869 190.1663,525.1199 190.1663,525.1199 C190.1663,525.1199 193.5003,544.4539 193.5003,551.1199 C193.5003,557.7869 201.5003,627.7869 200.1663,645.7869 C198.8333,663.7869 202.1663,729.7869 202.1663,736.4539 C202.1663,743.1199 204.1663,774.4539 204.1663,781.1199 C204.1663,787.7869 194.1663,856.4539 194.1663,864.4539 C194.1663,872.4539 194.8333,880.4539 194.8333,880.4539 C194.8333,880.4539 208.8333,877.1199 222.8333,877.1199 C236.8333,877.1199 245.5003,878.4539 245.5003,878.4539 C245.5003,878.4539 256.1663,851.1199 259.5003,838.4539 C262.8333,825.7869 264.1663,761.1199 264.1663,753.7869 C264.1663,746.4539 278.1663,583.1199 278.1663,575.1199 C278.1663,567.1199 280.8333,529.7869 280.8333,529.7869" id="Stroke-69" stroke-width="3" sketch:type="MSShapeGroup"></path>
                <path d="M35.9166,871.4536 C33.5836,874.4536 23.8336,886.7866 20.4996,891.1206 C17.1666,895.4536 10.8336,901.1206 8.4996,904.7866 C6.1666,908.4536 0.4996,914.7866 0.4996,918.1206 C0.4996,921.4536 1.4996,922.7866 5.1666,924.1206 C8.8336,925.4536 26.4996,927.4536 34.8336,925.7866 C43.1666,924.1206 55.4996,918.1206 57.8336,916.4536 C60.1666,914.7866 60.4996,906.7866 65.8336,903.7866 C68.1666,903.7866 69.1666,906.4536 71.1666,906.4536 C73.1666,906.4536 84.1666,903.1206 88.1666,898.1206 C92.1666,893.1206 87.4996,879.4536 87.4996,879.4536" id="Stroke-71" stroke-width="3" sketch:type="MSShapeGroup"></path>
                <path d="M199.8333,880.1203 C200.8333,886.7873 198.1663,896.7873 199.5003,899.4533 C200.8333,902.1203 203.1663,904.1203 204.1663,905.1203 C205.1663,906.1203 204.1663,913.7873 206.1663,918.1203 C208.1663,922.4533 219.1663,929.1203 233.5003,928.4533 C247.8333,927.7873 255.5003,922.7873 257.5003,913.7873 C259.5003,904.7873 251.1663,895.4533 248.8333,890.7873 C246.5003,886.1203 243.1663,878.4533 243.1663,878.4533" id="Stroke-73" stroke-width="3" sketch:type="MSShapeGroup"></path>
                <path d="M0.5,918.1203 C5.833,919.7873 22.75,922.2873 29.75,921.2873 C36.75,920.2873 57.833,912.3703 60.5,910.0373" id="Stroke-75" stroke-width="2" sketch:type="MSShapeGroup"></path>
                <path d="M68,903.5369 C72,902.0369 84,897.2869 88.75,893.5369" id="Stroke-77" stroke-width="2" sketch:type="MSShapeGroup"></path>
                <path d="M200.5,895.5369 C203.75,897.5369 205.75,901.5369 205,905.7869 C204.25,910.0369 207.5,922.0369 230,924.2869 C252.5,926.5369 256.75,913.7869 256.75,913.7869" id="Stroke-79" stroke-width="2" sketch:type="MSShapeGroup"></path>
                <path d="M21.1522,890.2471 C23.1462,888.5721 27.8032,888.2871 30.3332,888.2871 C33.7502,888.2871 39.2612,892.3501 42.2502,894.7841 C45.1432,893.0321 61.2722,882.0791 66.2502,878.4541" id="Stroke-81" stroke-width="2" sketch:type="MSShapeGroup"></path>
                <path d="M29.5832,888.2869 C31.1652,885.4379 40.2992,874.8329 42.2502,873.0369" id="Stroke-83" stroke-width="2" sketch:type="MSShapeGroup"></path>
                <path d="M248,890.0369 C239.25,882.0369 218.75,882.7869 210.25,894.0369 C210.25,894.0369 203.75,889.0369 200.75,881.0369" id="Stroke-85" stroke-width="2" sketch:type="MSShapeGroup"></path>
                <path d="M229.25,877.5369 C230.25,879.7869 232.5,884.7869 232.5,884.7869" id="Stroke-87" stroke-width="2" sketch:type="MSShapeGroup"></path>
                <path d="M164.1667,200.1202 C171.1667,216.1202 188.4997,257.4532 194.1667,264.7872 C194.4997,276.4532 197.8337,313.7872 197.8337,313.7872" id="Stroke-89" stroke-width="3" sketch:type="MSShapeGroup"></path>
                <path d="M193.5,261.1202 C199.167,254.7872 217.5,214.1202 221.833,189.4532" id="Stroke-91" stroke-width="3" sketch:type="MSShapeGroup"></path>
                <path d="M192.5,168.1202 C191.5,175.4532 191.167,218.1202 191.833,231.7872 C192.5,245.4532 192.167,260.1202 192.167,260.1202" id="Stroke-93" stroke-width="3" sketch:type="MSShapeGroup"></path>
                <path d="M202.1667,195.4536 C202.1667,197.2946 200.8237,198.7866 199.1667,198.7866 C197.5097,198.7866 196.1667,197.2946 196.1667,195.4536 C196.1667,193.6126 197.5097,192.1206 199.1667,192.1206 C200.8237,192.1206 202.1667,193.6126 202.1667,195.4536 L202.1667,195.4536 Z" id="Stroke-95" stroke-width="2" sketch:type="MSShapeGroup"></path>
                <path d="M201.1667,235.4536 C201.1667,237.2946 199.8237,238.7866 198.1667,238.7866 C196.5097,238.7866 195.1667,237.2946 195.1667,235.4536 C195.1667,233.6126 196.5097,232.1206 198.1667,232.1206 C199.8237,232.1206 201.1667,233.6126 201.1667,235.4536 L201.1667,235.4536 Z" id="Stroke-97" stroke-width="2" sketch:type="MSShapeGroup"></path>
                <path d="M28.5832,885.3677 C28.6882,881.4097 38.0712,882.2057 38.6972,886.7867" id="Stroke-99" stroke-width="2" sketch:type="MSShapeGroup"></path>
                <path d="M33.5832,879.3677 C33.6882,875.4097 43.0712,876.2057 43.6972,880.7867" id="Stroke-101" stroke-width="2" sketch:type="MSShapeGroup"></path>
                <path d="M223.663,882.607 C223.413,878.272 236.404,877.429 236.404,882.098" id="Stroke-103" stroke-width="2" sketch:type="MSShapeGroup"></path>
            </g>
        </g>
    </g>
</svg>