<?xml version="1.0" encoding="UTF-8" standalone="no"?>
<svg width="360px" height="954px" viewBox="0 0 360 954" version="1.1" xmlns="http://www.w3.org/2000/svg" xmlns:xlink="http://www.w3.org/1999/xlink" xmlns:sketch="http://www.bohemiancoding.com/sketch/ns">
    <!-- Generator: Sketch 3.4.3 (16618) - http://www.bohemiancoding.com/sketch -->
    <title>Slim</title>
    <desc>Created with Sketch.</desc>
    <defs></defs>
    <g id="Page-1" stroke="none" stroke-width="1" fill="none" fill-rule="evenodd" sketch:type="MSPage">
        <g id="Slim" sketch:type="MSArtboardGroup" stroke="#000000">
            <g id="Page-1" sketch:type="MSLayerGroup" transform="translate(34.000000, 3.000000)">
                <path d="M91.5215,57.8766 C91.5215,73.7076 100.4895,102.2866 103.9495,110.9386 C108.5215,122.3736 126.8545,128.7096 133.8545,129.0406 C140.8545,129.3716 156.8545,117.5456 162.6885,106.6266 C168.5215,95.7076 168.3355,91.7126 175.3355,87.2096 C182.3355,82.7076 183.7715,60.0406 178.5215,57.8766 C173.2095,55.6866 166.1885,65.8766 166.1885,65.8766 C166.1885,65.8766 159.7705,45.8006 159.1885,31.7796 C147.1885,44.3736 124.7665,51.5096 106.9915,40.2396 C89.8545,29.3736 91.5215,57.8766 91.5215,57.8766 L91.5215,57.8766 Z" id="Stroke-1" stroke-width="3" sketch:type="MSShapeGroup"></path>
                <path d="M175.8048,57.6995 C177.5218,50.7075 181.5218,30.7075 169.5218,22.7075 C173.6828,12.3735 159.5218,-1.9595 131.1878,1.0405 C102.8548,4.0405 85.5218,21.3735 84.5218,37.7075 C83.5218,54.0405 86.5218,61.7075 86.5218,61.7075" id="Stroke-3" stroke-width="3" sketch:type="MSShapeGroup"></path>
                <path d="M91.955,64.6955 C86.522,61.7075 83.43,62.0355 82.763,66.7145 C82.097,71.3925 84.739,89.6045 97.63,91.4895" id="Stroke-5" stroke-width="3" sketch:type="MSShapeGroup"></path>
                <path d="M107.74,116.7516 C108.021,126.2076 108.459,137.0456 107.74,138.6266 C107.021,140.2076 120.521,149.2096 120.521,149.2096 C120.521,149.2096 158.021,132.2076 166.521,119.2076 C166.521,112.7076 163.77,104.3026 166.521,98.7906" id="Stroke-7" stroke-width="3" sketch:type="MSShapeGroup"></path>
                <path d="M117.1048,155.0432 C117.1048,159.8742 118.3128,162.1242 119.6468,163.1242 C121.3128,163.1242 125.0218,161.7072 125.0218,161.7072 L125.0218,153.7072 L117.1048,155.0432 L117.1048,155.0432 Z" id="Stroke-9" stroke-width="3" sketch:type="MSShapeGroup"></path>
                <path d="M125.0215,161.7073 C129.6885,163.9573 137.5215,168.0403 145.8545,168.3743 C149.1885,158.4153 145.9455,144.6043 142.1885,142.3743 C137.1165,145.0403 123.5215,153.7073 123.5215,153.7073" id="Stroke-11" stroke-width="3" sketch:type="MSShapeGroup"></path>
                <path d="M117.1048,155.0432 C113.3798,152.8082 105.1968,149.0922 100.6688,147.3412 C99.1218,146.7432 97.4298,147.7682 97.2648,149.4182 C96.6398,155.6872 96.4588,168.0972 106.5758,173.0402 C110.5218,171.3742 118.5648,166.2362 119.6468,163.1242" id="Stroke-13" stroke-width="3" sketch:type="MSShapeGroup"></path>
                <path d="M166.5215,119.2073 C166.5215,119.2073 170.5215,120.6263 171.8545,124.0003 C170.5215,129.0473 149.6325,171.3743 147.2435,174.0403 C144.8545,173.0403 140.8545,168.3743 140.8545,168.3743" id="Stroke-15" stroke-width="3" sketch:type="MSShapeGroup"></path>
                <path d="M107.74,138.6266 C105.855,142.3736 103.657,145.8966 103.521,147.1696" id="Stroke-17" stroke-width="3" sketch:type="MSShapeGroup"></path>
                <path d="M120.0215,149.7073 L120.0215,153.7073" id="Stroke-19" stroke-width="3" sketch:type="MSShapeGroup"></path>
                <path d="M121.0631,163.124 C114.6571,176.374 107.1461,226.041 108.3341,254.374" id="Stroke-21" stroke-width="3" sketch:type="MSShapeGroup"></path>
                <path d="M99.3024,165.6541 C93.9494,171.7071 89.8544,182.0411 97.0214,215.7071 C104.1884,249.3741 111.8544,264.7071 111.8544,264.7071 L168.8544,142.3741" id="Stroke-23" stroke-width="3" sketch:type="MSShapeGroup"></path>
                <path d="M171.8548,124.0003 C175.8548,127.7073 116.8548,306.3743 112.5218,321.0403 C108.1878,335.7073 106.0738,327.3743 105.6308,383.3743 C105.1878,439.3743 111.1878,471.6263 111.1878,471.6263 C111.1878,471.6263 116.5218,512.7073 145.5218,520.7073 C172.0488,523.0403 229.0248,514.8183 229.0248,514.8183" id="Stroke-25" stroke-width="3" sketch:type="MSShapeGroup"></path>
                <path d="M169.612,121.0793 C177.855,120.4253 191.188,134.6223 193.188,138.7033 C195.188,142.7843 193.188,160.2073 193.188,160.2073 L176.522,160.2073 L166.064,155.3743 L191.188,166.7073 C191.188,166.7073 128.103,310.3673 113.186,323.2043" id="Stroke-27" stroke-width="3" sketch:type="MSShapeGroup"></path>
                <path d="M97.0213,161.7073 C89.5213,172.0403 80.1493,187.3743 82.6683,219.0403 C85.1883,250.7073 113.1863,318.8693 113.1863,318.8693" id="Stroke-29" stroke-width="3" sketch:type="MSShapeGroup"></path>
                <path d="M95.7796,151.9573 C83.1126,161.2903 72.4836,181.0823 72.4836,181.0823 L80.5216,184.2073 L85.5216,184.2073 C85.5216,184.2073 73.1126,186.0403 72.4836,185.7073 C71.8546,185.3743 71.4546,230.1303 78.5086,257.7923 C84.5216,281.3743 98.2366,303.0403 107.7126,316.7073" id="Stroke-31" stroke-width="3" sketch:type="MSShapeGroup"></path>
                <path d="M111.8548,264.7073 C111.8548,277.0403 110.8548,304.4333 111.8548,315.5703" id="Stroke-33" stroke-width="3" sketch:type="MSShapeGroup"></path>
                <path d="M122.8548,351.2073 C122.8548,354.0613 120.6908,356.3743 118.0208,356.3743 C115.3508,356.3743 113.1858,354.0613 113.1858,351.2073 C113.1858,348.3543 115.3508,346.0403 118.0208,346.0403 C120.6908,346.0403 122.8548,348.3543 122.8548,351.2073 L122.8548,351.2073 Z" id="Stroke-35" stroke-width="3" sketch:type="MSShapeGroup"></path>
                <path d="M161.6151,231.0413 C161.6151,231.0413 193.0211,231.0403 202.0211,228.3743 L202.0211,236.7073 C202.0211,236.7073 181.1881,240.5363 171.8551,240.2883 C162.5211,240.0403 157.7111,240.2883 157.7111,240.2883" id="Stroke-37" stroke-width="3" sketch:type="MSShapeGroup"></path>
                <path d="M168.8548,216.2969 C174.8548,212.0409 176.1808,207.7909 181.6848,208.7489 C187.1878,209.7069 199.0218,222.3739 200.5218,228.3739" id="Stroke-39" stroke-width="3" sketch:type="MSShapeGroup"></path>
                <path d="M193.1881,138.7032 C203.8551,144.7072 253.8551,158.7072 258.5211,161.7072 C263.1881,164.7072 270.5211,168.7072 271.8551,216.0402 C271.8551,216.0402 291.5211,326.7072 292.1881,335.0402 C292.8551,343.3742 290.5211,486.7072 290.5211,490.3742 C283.1881,490.3742 262.5211,473.5432 238.5211,476.7922 C239.8551,457.0402 239.5211,398.7072 239.1881,394.3742 C238.8551,390.0402 234.5211,312.7072 232.5211,305.3742 C230.5211,298.0402 224.1881,261.3742 224.1881,261.3742" id="Stroke-41" stroke-width="3" sketch:type="MSShapeGroup"></path>
                <path d="M229.0251,291.7073 C228.3581,304.7073 224.4381,345.7063 224.7711,355.0393 C226.7611,366.7063 238.1021,412.2893 239.4791,422.9573" id="Stroke-43" stroke-width="3" sketch:type="MSShapeGroup"></path>
                <path d="M242.748,476.792 C241.188,483.707 235.129,495.707 232.992,500.041 C230.855,504.374 227.489,523.041 226.505,525.707 C225.521,528.374 221.855,532.707 222.188,535.041 C222.521,537.374 225.521,539.374 231.188,535.041 C236.855,530.707 238.769,524.707 239.479,520.707 C240.188,516.707 242.748,511.041 242.748,511.041 C242.748,511.041 245.855,513.707 245.855,517.707 C245.855,521.707 239.769,530.707 239.479,533.707" id="Stroke-45" stroke-width="3" sketch:type="MSShapeGroup"></path>
                <path d="M232.9918,533.4838 C234.5028,536.8168 240.8548,543.7078 244.1878,544.3738 C247.5218,545.0408 251.8548,544.0408 253.8548,542.7078 C257.1878,544.5858 259.8548,544.7988 261.1878,544.5858 C262.5218,544.3738 265.8548,539.9858 267.8548,539.8468 C269.8548,539.7078 272.8548,541.6528 274.8548,539.8468 C276.8548,538.0408 283.1878,522.7078 283.1878,519.0408 C283.1878,515.3738 284.8548,490.3738 284.8548,490.3738" id="Stroke-47" stroke-width="3" sketch:type="MSShapeGroup"></path>
                <path d="M242.748,526.1375 L238.527,524.5065" id="Stroke-49" stroke-width="3" sketch:type="MSShapeGroup"></path>
                <path d="M82.1872,166.1354 C71.8552,171.3744 49.5212,184.0404 45.5212,188.0404 C41.5212,192.0404 39.5212,222.3744 37.5212,261.3744 C35.5212,300.3744 15.1882,430.0404 12.8552,442.3744 C11.0452,451.9414 7.6302,475.5484 6.1892,485.6574 C5.9402,487.4054 7.7192,488.7134 9.3262,487.9814 C14.5522,485.6004 25.1302,483.5984 40.8552,493.7074 C43.8542,485.7074 71.4012,387.9454 71.4012,387.9454" id="Stroke-51" stroke-width="3" sketch:type="MSShapeGroup"></path>
                <path d="M62.7715,270.9573 C65.4385,286.2903 71.1665,376.2903 72.1665,404.9573 C73.1665,433.6243 62.1885,488.7073 62.1885,497.3743 C62.1885,506.0403 57.4785,515.2133 72.1665,517.5133 C86.8545,519.8133 93.8545,521.3743 101.5215,514.3743 C109.1885,507.3743 114.6365,487.7073 114.6365,487.7073" id="Stroke-53" stroke-width="3" sketch:type="MSShapeGroup"></path>
                <path d="M11.2506,487.2259 C8.9176,492.8929 0.8546,515.5399 0.5216,519.4569 C0.1886,523.3739 3.8106,541.5979 6.1656,544.6529 C8.5216,547.7069 23.5216,558.0409 27.5216,558.3739 C31.5216,558.7069 32.1886,555.0409 29.5216,552.3739 C26.8546,549.7069 17.4336,540.7069 15.8106,540.3739 C14.1886,540.0409 17.0996,531.7069 15.8106,530.0409 C14.5216,528.3739 20.5216,519.4569 20.5216,519.4569 C20.5216,519.4569 20.8546,534.7069 21.5216,536.0409 C22.1886,537.3739 23.8546,541.7069 26.8546,541.7069 C29.8546,541.7069 31.0546,538.3739 31.1216,533.3739 C31.1886,528.3739 29.7216,517.0409 31.1216,515.7069 C32.5216,514.3739 38.5216,506.3739 39.1886,493.7069" id="Stroke-55" stroke-width="3" sketch:type="MSShapeGroup"></path>
                <path d="M31.7067,540.4574 C35.0397,541.7904 35.1137,544.6944 35.1137,544.6944 C35.1137,544.6944 37.8177,545.1444 39.1507,547.1444 C40.4847,549.1454 39.1877,552.2074 39.1877,552.2074 L35.5217,552.2074 C35.5217,552.2074 35.5687,554.3744 35.2347,555.7074 C34.9017,557.0404 30.7167,557.1614 30.7167,557.1614" id="Stroke-57" stroke-width="3" sketch:type="MSShapeGroup"></path>
                <path d="M141.8183,519.457 C145.8183,539.318 163.8543,710.041 164.8543,730.707 C165.8543,753.374 153.8543,849.041 153.1883,857.707 C152.5213,866.374 153.1883,885.374 153.8543,887.707 C157.5213,889.707 186.8543,896.041 206.5213,884.374 C206.5213,869.374 214.8543,837.707 215.1883,827.707 C215.5213,817.707 223.8543,729.374 223.8543,716.707 C223.8543,704.041 229.0253,537.595 229.0253,537.595" id="Stroke-59" stroke-width="3" sketch:type="MSShapeGroup"></path>
                <path d="M66.5215,517.5134 C68.5215,541.3744 95.8545,710.3744 96.1885,725.0404 C96.5215,739.7074 101.5215,771.3744 100.5215,784.0404 C99.5215,796.7074 102.1885,856.7074 103.5215,861.0404 C108.1885,861.0404 140.9155,866.7624 152.9155,866.0954" id="Stroke-61" stroke-width="3" sketch:type="MSShapeGroup"></path>
                <path d="M155.3053,838.5131 L151.5213,609.7071" id="Stroke-63" stroke-width="3" sketch:type="MSShapeGroup"></path>
                <path d="M103.6881,861.7907 C97.3551,867.4577 83.6051,882.0827 78.6051,885.7487 C73.6051,889.4157 43.2301,894.2287 39.2301,897.5617 C35.2301,900.8947 33.2091,904.1347 34.2091,907.4677 C35.2091,910.8007 44.5321,915.4207 49.1981,915.4207 C53.8651,915.4207 89.1931,920.0637 107.1931,909.0637 C125.1931,898.0637 133.5241,899.1357 135.1911,901.8027 C136.8571,904.4687 137.8131,908.2077 137.8131,908.2077 L151.5211,908.2077" id="Stroke-65" stroke-width="3" sketch:type="MSShapeGroup"></path>
                <path d="M156.9583,889.0923 C153.8543,902.3743 152.8543,903.7073 148.1883,912.3743 C143.5213,921.0403 138.4383,923.0403 137.8133,933.3743 C137.1883,943.7073 136.1053,943.0403 137.8133,945.0403 C139.5213,947.0403 158.1883,951.7073 179.8543,945.0403 C201.5213,938.3743 198.5213,927.3743 200.5213,924.7073 C202.5213,922.0403 206.9583,919.5393 206.9583,919.5393 C206.9583,919.5393 207.1883,906.2723 206.8543,898.7073 C206.6753,894.6423 204.8543,887.0923 204.8543,887.0923" id="Stroke-67" stroke-width="3" sketch:type="MSShapeGroup"></path>
                <path d="M34.0987,904.5036 C42.1877,907.3736 71.8547,916.3826 97.2107,907.9036 C122.6267,899.4046 124.1877,892.7076 136.8957,895.0406 C141.8167,895.9446 154.8277,894.8986 154.8277,894.8986" id="Stroke-69" stroke-width="2" sketch:type="MSShapeGroup"></path>
                <path d="M137.8132,940.0407 C148.5212,941.7077 165.4502,945.3787 182.1062,938.0407 C193.1882,930.0407 195.5212,920.8857 198.5212,917.7967 C201.5212,914.7077 207.0352,909.8757 207.0352,909.8757" id="Stroke-71" stroke-width="2" sketch:type="MSShapeGroup"></path>
                <path d="M72.5215,889.0923 C83.8545,893.0403 88.2895,890.7693 92.7385,894.5713 C101.1885,889.0923 128.8545,872.8163 135.1885,866.0953" id="Stroke-73" stroke-width="2" sketch:type="MSShapeGroup"></path>
                <path d="M146.5215,913.2074 C153.8545,910.0404 165.5215,909.5304 173.8545,916.4524 C184.3545,905.3744 192.1775,893.8104 195.0165,889.0924" id="Stroke-75" stroke-width="2" sketch:type="MSShapeGroup"></path>
                <path d="M83.3888,881.5878 C83.1878,876.7078 90.5218,878.1348 91.1878,881.5878" id="Stroke-77" stroke-width="2" sketch:type="MSShapeGroup"></path>
                <path d="M90.3888,873.5878 C90.1878,868.7078 97.5218,870.1348 98.1878,873.5878" id="Stroke-79" stroke-width="2" sketch:type="MSShapeGroup"></path>
                <path d="M98.3888,865.5878 C98.1878,860.7078 105.5218,862.1348 106.1878,865.5878" id="Stroke-81" stroke-width="2" sketch:type="MSShapeGroup"></path>
                <path d="M161.6711,911.2389 C164.4061,903.6049 167.8551,895.4079 168.5211,891.2239" id="Stroke-83" stroke-width="2" sketch:type="MSShapeGroup"></path>
                <path d="M160.5215,897.2723 C160.5215,893.3743 172.3285,894.3723 172.6475,897.2723" id="Stroke-85" stroke-width="2" sketch:type="MSShapeGroup"></path>
                <path d="M157.5215,906.2723 C157.5215,902.3743 169.3285,903.3723 169.6475,906.2723" id="Stroke-87" stroke-width="2" sketch:type="MSShapeGroup"></path>
            </g>
        </g>
    </g>
</svg>