<?xml version="1.0" encoding="UTF-8" standalone="no"?>
<svg width="251px" height="253px" viewBox="0 0 251 253" version="1.1" xmlns="http://www.w3.org/2000/svg" xmlns:xlink="http://www.w3.org/1999/xlink" xmlns:sketch="http://www.bohemiancoding.com/sketch/ns">
    <!-- Generator: Sketch 3.4.3 (16618) - http://www.bohemiancoding.com/sketch -->
    <title>Email Us</title>
    <desc>Created with Sketch.</desc>
    <defs></defs>
    <g id="Page-1" stroke="none" stroke-width="1" fill="none" fill-rule="evenodd" sketch:type="MSPage">
        <g id="Email-Us" sketch:type="MSArtboardGroup">
            <g id="Page-1" sketch:type="MSLayerGroup" transform="translate(27.000000, 27.000000)">
                <path d="M0.5,70 L97.75,0.5 L197.333,70.333" id="Stroke-1" stroke="#000000" stroke-width="7" sketch:type="MSShapeGroup"></path>
                <g id="Group-5" transform="translate(21.000000, 22.000000)" sketch:type="MSShapeGroup">
                    <path d="M0.5,62 L0.5,0.5 L153,0.5 L152.889,63.031" id="Fill-3" fill="#FFFFFF"></path>
                    <path d="M0.5,62 L0.5,0.5 L153,0.5 L152.889,63.031" id="Stroke-4" stroke="#000000" stroke-width="7"></path>
                </g>
                <g id="Group-10" transform="translate(1.000000, 43.000000)" sketch:type="MSShapeGroup">
                    <path d="M0.5,30 L0.5,155.5 L194.5,155.5 L194.5,30 L97.5,84 L0.5,30 L0.5,30 Z" id="Stroke-6" stroke="#000000" stroke-width="7"></path>
                    <path d="M97.8235,22.6381 C93.3755,22.6381 90.0785,27.4691 90.0785,32.3001 C90.0785,37.2081 93.2225,38.9711 95.8295,38.9711 C100.0475,38.9711 102.8845,34.6011 102.8845,28.8501 C102.8845,26.0891 101.6575,22.6381 97.8235,22.6381 L97.8235,22.6381 Z M113.1605,16.3501 L110.3225,33.0671 C110.1695,33.9871 109.8635,35.9811 109.7855,36.7481 C109.7095,38.3581 110.5525,38.9711 111.8565,38.9711 C114.6935,38.9711 118.1445,33.0671 118.1445,25.6291 C118.1445,14.8931 109.7855,7.3781 98.5135,7.3781 C84.9405,7.3781 75.9685,18.7271 75.9685,30.5361 C75.9685,36.5951 79.0355,52.6211 98.4375,52.6211 C103.9575,52.6211 109.4025,51.7011 114.6175,49.7841 L116.2275,56.8391 C108.5595,59.6001 100.2765,59.6001 98.4375,59.6001 C76.0455,59.6001 68.1465,42.2691 68.1465,30.3831 C68.1465,15.1231 79.8025,0.4001 98.2075,0.4001 C114.3105,0.4001 125.3535,11.5961 125.3535,25.5521 C125.3535,36.6711 118.2215,46.1801 110.3225,46.1801 C106.2595,46.1801 103.9575,43.9561 102.8085,40.6591 C100.1235,45.0301 97.3635,46.1801 93.6825,46.1801 C87.1645,46.1801 81.8735,40.4281 81.8735,32.6071 C81.8735,24.6321 87.8545,15.4301 96.8265,15.4301 C100.9675,15.4301 103.5745,17.5771 104.4185,19.9541 L104.5715,19.9541 L105.1855,16.3501 L113.1605,16.3501 Z" id="Fill-8" fill="#000000"></path>
                </g>
            </g>
        </g>
    </g>
</svg>