<?xml version="1.0" encoding="UTF-8" standalone="no"?>
<svg width="251px" height="253px" viewBox="0 0 251 253" version="1.1" xmlns="http://www.w3.org/2000/svg" xmlns:xlink="http://www.w3.org/1999/xlink" xmlns:sketch="http://www.bohemiancoding.com/sketch/ns">
    <!-- Generator: Sketch 3.4.3 (16618) - http://www.bohemiancoding.com/sketch -->
    <title>Group Offer</title>
    <desc>Created with Sketch.</desc>
    <defs></defs>
    <g id="Page-1" stroke="none" stroke-width="1" fill="none" fill-rule="evenodd" sketch:type="MSPage">
        <g id="Group-Offer" sketch:type="MSArtboardGroup">
            <g id="Page-1" sketch:type="MSLayerGroup" transform="translate(13.000000, 24.000000)">
                <path d="M169.718787,117.417182 C169.787166,117.351 169.900345,117.360455 169.940429,117.274182 C170.064219,117 170.217482,116.768364 170.310619,116.472909 C170.320051,116.438636 170.357777,116.433909 170.367208,116.398455 C170.541693,115.822909 170.69024,115.237909 170.736219,114.590273 L174.725777,59.4123636 C175.045272,54.9829091 171.725356,51.1349091 167.306661,50.8146364 L112.256893,46.8236364 C111.610829,46.7763636 111.000135,46.826 110.407124,46.917 C110.371756,46.9205455 110.337566,46.9288182 110.301019,46.9335455 C109.996851,46.9843636 109.698577,47.047 109.409735,47.1297273 C109.318956,47.1569091 109.223461,47.1710909 109.139756,47.2183636 C107.572935,48.0929091 106.215966,49.1199091 105.291672,50.0015455 L7.32468211,134.954182 C4.87836632,137.075545 4.16510316,141.169364 6.28131368,143.621636 L59.9363874,205.798273 C62.0525979,208.250545 65.8122611,207.685636 68.2585768,205.564273 L166.224387,120.611636 C166.938829,119.797364 167.991629,119.068182 169.718787,117.417182" id="Fill-1" fill="#FFFFFF" sketch:type="MSShapeGroup"></path>
                <path d="M169.718787,117.417182 C169.787166,117.351 169.900345,117.360455 169.940429,117.274182 C170.064219,117 170.217482,116.768364 170.310619,116.472909 C170.320051,116.438636 170.357777,116.433909 170.367208,116.398455 C170.541693,115.822909 170.69024,115.237909 170.736219,114.590273 L174.725777,59.4123636 C175.045272,54.9829091 171.725356,51.1349091 167.306661,50.8146364 L112.256893,46.8236364 C111.610829,46.7763636 111.000135,46.826 110.407124,46.917 C110.371756,46.9205455 110.337566,46.9288182 110.301019,46.9335455 C109.996851,46.9843636 109.698577,47.047 109.409735,47.1297273 C109.318956,47.1569091 109.223461,47.1710909 109.139756,47.2183636 C107.572935,48.0929091 106.215966,49.1199091 105.291672,50.0015455 L7.32468211,134.954182 C4.87836632,137.075545 4.16510316,141.169364 6.28131368,143.621636 L59.9363874,205.798273 C62.0525979,208.250545 65.8122611,207.685636 68.2585768,205.564273 L166.224387,120.611636 C166.938829,119.797364 167.991629,119.068182 169.718787,117.417182 L169.718787,117.417182 Z" id="Stroke-3" stroke="#000000" stroke-width="5" sketch:type="MSShapeGroup"></path>
                <path d="M166.708581,107.439445 C166.788749,107.387445 166.898392,107.418173 166.952623,107.340173 C167.125928,107.094355 167.319276,106.895809 167.466644,106.622809 C167.481971,106.5909 167.519697,106.593264 167.535023,106.560173 C167.813255,106.027173 168.069086,105.479991 168.235318,104.852445 L182.435739,51.3929 C183.575781,47.1005364 181.030434,42.6994455 176.748497,41.5566273 L123.411739,27.3287182 C122.785718,27.1620818 122.177381,27.0959 121.577297,27.0734455 C121.541928,27.0710818 121.50656,27.0734455 121.470013,27.0710818 C121.161128,27.0639909 120.85696,27.0687182 120.557507,27.0970818 C120.463192,27.1065364 120.366518,27.1029909 120.276918,27.1325364 C118.574518,27.6998091 117.050139,28.4526273 115.977297,29.1463545 L3.90538105,94.2598091 C1.10656,95.8859909 -0.357692632,99.7753545 1.26453895,102.580991 L42.38976,173.708718 C44.0119916,176.514355 47.81056,176.663264 50.6093811,175.037082 L162.681297,109.922445 C163.533676,109.257082 164.704371,108.738264 166.708581,107.439445" id="Fill-5" fill="#FFFFFF" sketch:type="MSShapeGroup"></path>
                <path d="M166.708581,107.439445 C166.788749,107.387445 166.898392,107.418173 166.952623,107.340173 C167.125928,107.094355 167.319276,106.895809 167.466644,106.622809 C167.481971,106.5909 167.519697,106.593264 167.535023,106.560173 C167.813255,106.027173 168.069086,105.479991 168.235318,104.852445 L182.435739,51.3929 C183.575781,47.1005364 181.030434,42.6994455 176.748497,41.5566273 L123.411739,27.3287182 C122.785718,27.1620818 122.177381,27.0959 121.577297,27.0734455 C121.541928,27.0710818 121.50656,27.0734455 121.470013,27.0710818 C121.161128,27.0639909 120.85696,27.0687182 120.557507,27.0970818 C120.463192,27.1065364 120.366518,27.1029909 120.276918,27.1325364 C118.574518,27.6998091 117.050139,28.4526273 115.977297,29.1463545 L3.90538105,94.2598091 C1.10656,95.8859909 -0.357692632,99.7753545 1.26453895,102.580991 L42.38976,173.708718 C44.0119916,176.514355 47.81056,176.663264 50.6093811,175.037082 L162.681297,109.922445 C163.533676,109.257082 164.704371,108.738264 166.708581,107.439445 L166.708581,107.439445 Z" id="Stroke-7" stroke="#000000" stroke-width="5" sketch:type="MSShapeGroup"></path>
                <path d="M159.715065,67.0544727 C155.690139,69.3932909 150.592371,68.1181091 148.331149,64.2051091 C146.068749,60.2932909 147.498813,55.2256545 151.523739,52.8868364 C155.548665,50.5492 160.646434,51.8243818 162.907655,55.7362 C165.170055,59.6480182 163.739992,64.7156545 159.715065,67.0544727" id="Fill-9" fill="#FFFFFF" sketch:type="MSShapeGroup"></path>
                <path d="M159.715065,67.0544727 C155.690139,69.3932909 150.592371,68.1181091 148.331149,64.2051091 C146.068749,60.2932909 147.498813,55.2256545 151.523739,52.8868364 C155.548665,50.5492 160.646434,51.8243818 162.907655,55.7362 C165.170055,59.6480182 163.739992,64.7156545 159.715065,67.0544727 L159.715065,67.0544727 Z" id="Stroke-11" stroke="#000000" stroke-width="5" sketch:type="MSShapeGroup"></path>
                <path d="M161.710434,59.9710091 C153.065213,59.9710091 142.066813,24.8970091 180.573592,5.38400909 C216.334602,-12.7368091 233.233634,24.6878273 216.097634,48.0972818 C209.362307,57.2977364 191.576707,68.2248273 179.394644,65.8611909" id="Stroke-13" stroke="#000000" stroke-width="5" sketch:type="MSShapeGroup"></path>
            </g>
        </g>
    </g>
</svg>