<?xml version="1.0" encoding="UTF-8" standalone="no"?>
<svg width="251px" height="253px" viewBox="0 0 251 253" version="1.1" xmlns="http://www.w3.org/2000/svg" xmlns:xlink="http://www.w3.org/1999/xlink" xmlns:sketch="http://www.bohemiancoding.com/sketch/ns">
    <!-- Generator: Sketch 3.4.3 (16618) - http://www.bohemiancoding.com/sketch -->
    <title>Headset</title>
    <desc>Created with Sketch.</desc>
    <defs></defs>
    <g id="Page-1" stroke="none" stroke-width="1" fill="none" fill-rule="evenodd" sketch:type="MSPage">
        <g id="Headset" sketch:type="MSArtboardGroup">
            <g id="Page-1" sketch:type="MSLayerGroup" transform="translate(25.000000, 28.000000)">
                <path d="M30.8744,143.3413 C14.8744,143.3413 0.5004,129.7423 0.5004,112.9673 C0.5004,96.1913 14.8744,82.5923 30.8744,82.5923 L30.8744,143.3413 Z" id="Fill-1" fill="#FFFFFF" sketch:type="MSShapeGroup"></path>
                <path d="M30.8744,143.3413 C14.8744,143.3413 0.5004,129.7423 0.5004,112.9673 C0.5004,96.1913 14.8744,82.5923 30.8744,82.5923 L30.8744,143.3413 L30.8744,143.3413 Z" id="Stroke-3" stroke="#000000" stroke-width="7" sketch:type="MSShapeGroup"></path>
                <path d="M169.8744,82.8069 C186.8744,82.8069 200.2484,96.4059 200.2484,113.1809 C200.2484,129.9569 186.8744,143.5559 169.8744,143.5559 L169.8744,82.8069 Z" id="Fill-5" fill="#FFFFFF" sketch:type="MSShapeGroup"></path>
                <path d="M169.8744,82.8069 C186.8744,82.8069 200.2484,96.4059 200.2484,113.1809 C200.2484,129.9569 186.8744,143.5559 169.8744,143.5559 L169.8744,82.8069 L169.8744,82.8069 Z" id="Stroke-7" stroke="#000000" stroke-width="7" sketch:type="MSShapeGroup"></path>
                <path d="M31.3201,82.5925 L41.8741,82.5885 L41.8741,143.2015 L31.2801,143.3415" id="Stroke-9" stroke="#000000" stroke-width="7" sketch:type="MSShapeGroup"></path>
                <path d="M170.387,143.3368 L159.874,143.3408 L159.874,82.7278 L170.448,82.5878" id="Stroke-11" stroke="#000000" stroke-width="7" sketch:type="MSShapeGroup"></path>
                <path d="M31.3744,86.3333 C31.3744,-28.6667 170.3744,-27.6667 170.3744,86.3333" id="Stroke-13" stroke="#000000" stroke-width="7" sketch:type="MSShapeGroup"></path>
                <path d="M116.0978,197.5 L106.8328,197.5 C102.7238,197.5 99.3618,194.138 99.3618,190.028 L99.3618,190.028 C99.3618,185.919 102.7238,182.557 106.8328,182.557 L116.0978,182.557 C120.2068,182.557 123.5698,185.919 123.5698,190.028 L123.5698,190.028 C123.5698,194.138 120.2068,197.5 116.0978,197.5" id="Fill-15" fill="#FFFFFF" sketch:type="MSShapeGroup"></path>
                <path d="M116.0978,197.5 L106.8328,197.5 C102.7238,197.5 99.3618,194.138 99.3618,190.028 L99.3618,190.028 C99.3618,185.919 102.7238,182.557 106.8328,182.557 L116.0978,182.557 C120.2068,182.557 123.5698,185.919 123.5698,190.028 L123.5698,190.028 C123.5698,194.138 120.2068,197.5 116.0978,197.5 L116.0978,197.5 Z" id="Stroke-17" stroke="#000000" stroke-width="7" sketch:type="MSShapeGroup"></path>
                <path d="M170.2408,140.7165 C170.4908,159.2455 169.8928,190.9255 121.1788,190.0285" id="Stroke-19" stroke="#000000" stroke-width="7" sketch:type="MSShapeGroup"></path>
            </g>
        </g>
    </g>
</svg>