<?xml version="1.0" encoding="UTF-8" standalone="no"?>
<svg width="251px" height="253px" viewBox="0 0 251 253" version="1.1" xmlns="http://www.w3.org/2000/svg" xmlns:xlink="http://www.w3.org/1999/xlink" xmlns:sketch="http://www.bohemiancoding.com/sketch/ns">
    <!-- Generator: Sketch 3.4.3 (16618) - http://www.bohemiancoding.com/sketch -->
    <title>Phone</title>
    <desc>Created with Sketch.</desc>
    <defs></defs>
    <g id="Page-1" stroke="none" stroke-width="1" fill="none" fill-rule="evenodd" sketch:type="MSPage">
        <g id="Phone" sketch:type="MSArtboardGroup" stroke="#000000">
            <g id="Page-1" sketch:type="MSLayerGroup" transform="translate(36.000000, 40.000000)">
                <path d="M55.4333,75.4497 C54.6893,70.2667 70.4973,60.4177 69.9393,49.8177 C69.3813,39.2167 37.5793,3.5087 37.5793,3.5087 C37.5793,3.5087 28.6523,-2.6283 14.7043,3.5087 C0.7563,9.6467 -1.4757,24.1817 1.8723,38.1157 C5.2193,52.0487 15.8203,84.4087 39.2533,111.7477 C62.6863,139.0867 107.3213,161.9617 120.1533,168.0987 C132.9863,174.2367 153.0713,178.6997 168.6933,160.8457 C184.3153,142.9917 182.6413,139.6447 168.6933,127.3697 C154.7453,115.0957 124.6173,96.1257 110.6683,107.2847 C96.7203,118.4427 95.6043,120.6747 81.6563,110.0737 C67.7073,99.4737 56.5493,83.2277 55.4333,75.4497 L55.4333,75.4497 Z" id="Stroke-1" stroke-width="7" sketch:type="MSShapeGroup"></path>
                <path d="M18.0519,5.3688 L63.0589,60.7898" id="Stroke-3" stroke-width="5" sketch:type="MSShapeGroup"></path>
                <path d="M111.0406,109.5161 L171.6696,152.2911" id="Stroke-5" stroke-width="5" sketch:type="MSShapeGroup"></path>
            </g>
        </g>
    </g>
</svg>