<?xml version="1.0" encoding="UTF-8" standalone="no"?>
<svg width="94px" height="93px" viewBox="0 0 94 93" version="1.1" xmlns="http://www.w3.org/2000/svg" xmlns:xlink="http://www.w3.org/1999/xlink" xmlns:sketch="http://www.bohemiancoding.com/sketch/ns">
    <!-- Generator: Sketch 3.4.3 (16618) - http://www.bohemiancoding.com/sketch -->
    <title>Calendar 2 white</title>
    <desc>Created with Sketch.</desc>
    <defs>
        <path id="path-1" d="M0,0.351 L80,0.351 L80,73 L0,73 L0,0.351 Z"></path>
    </defs>
    <g id="Page-1" stroke="none" stroke-width="1" fill="none" fill-rule="evenodd" sketch:type="MSPage">
        <g id="Calendar-2-white" sketch:type="MSArtboardGroup">
            <g id="Page-1" sketch:type="MSLayerGroup" transform="translate(7.000000, 10.000000)">
                <path d="M0.405,38.75 L16.64,38.75 L16.64,26.562 L0.405,26.562 L0.405,38.75 Z" id="Fill-1" fill="#FFFFFF" sketch:type="MSShapeGroup"></path>
                <path d="M37.556,38.75 L21.322,38.75 L21.322,26.562 L37.556,26.562 L37.556,38.75 Z" id="Fill-2" fill="#FFFFFF" sketch:type="MSShapeGroup"></path>
                <path d="M58.556,38.75 L42.322,38.75 L42.322,26.562 L58.556,26.562 L58.556,38.75 Z" id="Fill-3" fill="#FFFFFF" sketch:type="MSShapeGroup"></path>
                <path d="M63.572,38.75 L79.807,38.75 L79.807,26.562 L63.572,26.562 L63.572,38.75 Z" id="Fill-4" fill="#FFFFFF" sketch:type="MSShapeGroup"></path>
                <path d="M63.572,55.917 L79.807,55.917 L79.807,43.728 L63.572,43.728 L63.572,55.917 Z" id="Fill-5" fill="#FFFFFF" sketch:type="MSShapeGroup"></path>
                <path d="M58.556,55.917 L42.322,55.917 L42.322,43.729 L58.556,43.729 L58.556,55.917 Z" id="Fill-6" fill="#FFFFFF" sketch:type="MSShapeGroup"></path>
                <path d="M37.556,55.917 L21.322,55.917 L21.322,43.729 L37.556,43.729 L37.556,55.917 Z" id="Fill-7" fill="#FFFFFF" sketch:type="MSShapeGroup"></path>
                <path d="M0.405,55.917 L16.64,55.917 L16.64,43.728 L0.405,43.728 L0.405,55.917 Z" id="Fill-8" fill="#FFFFFF" sketch:type="MSShapeGroup"></path>
                <g id="Group-18">
                    <path d="M16.6397,73 L3.0337,73 C1.5817,73 0.4057,71.823 0.4057,70.372 L0.4057,60.812 L16.6397,60.812 L16.6397,73 Z" id="Fill-9" fill="#FFFFFF" sketch:type="MSShapeGroup"></path>
                    <mask id="mask-2" sketch:name="Clip 12" fill="white">
                        <use xlink:href="#path-1"></use>
                    </mask>
                    <g id="Clip-12"></g>
                    <path d="M37.556,73 L21.322,73 L21.322,60.812 L37.556,60.812 L37.556,73 Z" id="Fill-11" fill="#FFFFFF" sketch:type="MSShapeGroup" mask="url(#mask-2)"></path>
                    <path d="M58.556,73 L42.322,73 L42.322,60.812 L58.556,60.812 L58.556,73 Z" id="Fill-13" fill="#FFFFFF" sketch:type="MSShapeGroup" mask="url(#mask-2)"></path>
                    <path d="M77.2015,73 L63.5715,73 L63.5715,60.812 L79.8065,60.812 L79.8065,70.395 C79.8065,71.834 78.6405,73 77.2015,73" id="Fill-14" fill="#FFFFFF" sketch:type="MSShapeGroup" mask="url(#mask-2)"></path>
                    <path d="M77.7677,5.3447 L65.9997,5.3447 L65.9997,11.4107 C65.9997,13.1367 64.8997,14.3447 63.1747,14.3447 L59.9887,14.3447 C58.2637,14.3447 55.9997,13.1367 55.9997,11.4107 L55.9997,5.3447 L23.9997,5.3447 L23.9997,11.4107 C23.9997,13.1367 22.8997,14.3447 21.1747,14.3447 L17.9887,14.3447 C16.2637,14.3447 13.9997,13.1367 13.9997,11.4107 L13.9997,5.3447 L3.0427,5.3447 C1.5867,5.3447 -0.0003,7.3257 -0.0003,8.7827 L-0.0003,21.3447 L79.9997,21.3447 L79.9997,8.7827 C79.9997,7.3257 79.2247,5.3447 77.7677,5.3447" id="Fill-15" fill="#FFFFFF" sketch:type="MSShapeGroup" mask="url(#mask-2)"></path>
                    <path d="M20.8891,13.0454 L17.8601,13.0454 C16.8761,13.0454 16.0721,12.2414 16.0721,11.2574 L16.0721,2.1394 C16.0721,1.1554 16.8761,0.3514 17.8601,0.3514 L20.8891,0.3514 C21.8721,0.3514 22.6771,1.1554 22.6771,2.1394 L22.6771,11.2574 C22.6771,12.2414 21.8721,13.0454 20.8891,13.0454" id="Fill-16" fill="#FFFFFF" sketch:type="MSShapeGroup" mask="url(#mask-2)"></path>
                    <path d="M62.8891,13.0454 L59.8601,13.0454 C58.8761,13.0454 58.0721,12.2414 58.0721,11.2574 L58.0721,2.1394 C58.0721,1.1554 58.8761,0.3514 59.8601,0.3514 L62.8891,0.3514 C63.8721,0.3514 64.6771,1.1554 64.6771,2.1394 L64.6771,11.2574 C64.6771,12.2414 63.8721,13.0454 62.8891,13.0454" id="Fill-17" fill="#FFFFFF" sketch:type="MSShapeGroup" mask="url(#mask-2)"></path>
                </g>
            </g>
        </g>
    </g>
</svg>