<?xml version="1.0" encoding="UTF-8" standalone="no"?>
<svg width="25px" height="25px" viewBox="0 0 25 25" version="1.1" xmlns="http://www.w3.org/2000/svg" xmlns:xlink="http://www.w3.org/1999/xlink" xmlns:sketch="http://www.bohemiancoding.com/sketch/ns">
    <!-- Generator: Sketch 3.5.1 (25234) - http://www.bohemiancoding.com/sketch -->
    <title>Discount</title>
    <desc>Created with Sketch.</desc>
    <defs></defs>
    <g id="Page-1" stroke="none" stroke-width="1" fill="none" fill-rule="evenodd" sketch:type="MSPage">
        <g id="Discount" sketch:type="MSArtboardGroup" fill="#FFFFFF">
            <path d="M24.837712,14.3583874 C24.3981292,14.2130192 23.98423,13.9517937 23.6375029,13.5681528 C22.533113,12.3461856 22.533113,10.3656806 23.6365151,9.1448064 C23.98423,8.76007254 24.3981292,8.49666101 24.8367241,8.3545718 L24.837712,5.05045119 C24.8367241,4.19026497 24.200564,3.48637689 23.4231446,3.4852839 L1.67120798,3.4852839 C0.895764285,3.4841909 0.258616278,4.18917198 0.256640625,5.05045119 L0.258616278,8.35347881 C0.698199011,8.498847 1.11209826,8.76007254 1.45981314,9.1448064 C2.56321519,10.3656806 2.56321519,12.3461856 1.45783749,13.5692458 C1.11209826,13.9517937 0.698199011,14.2152052 0.257628451,14.3594804 L0.259604104,17.662508 C0.259604104,18.5237872 0.894776459,19.2265823 1.67417146,19.2276753 L23.4221568,19.2276753 C24.2015518,19.2265823 24.837712,18.5226942 24.8367241,17.662508 L24.837712,14.3583874 Z M11.8228914,5.56579724 L11.8228914,6.88228107 C10.5534248,7.1996477 10.2125495,8.33981673 10.2125495,9.0333216 C10.2125495,10.6906807 11.5407877,10.996293 12.0697321,11.1608535 C12.6339394,11.3019053 13.5625307,11.5369917 13.574285,12.5126003 C13.574285,13.2178595 13.2099011,13.8525927 12.398853,13.8525927 C11.8699086,13.8525927 11.1881581,13.5822434 11.0941235,12.5361089 L9.87167426,12.5361089 C9.9539545,13.9583816 10.8002655,14.6401322 11.8228914,14.8987272 L11.8228914,16.2034567 L12.9395517,16.2034567 L12.9395517,14.8987272 C14.4441047,14.6518865 14.7967343,13.3236483 14.7967343,12.5126003 C14.78498,10.6906807 13.31569,10.3027881 12.8337629,10.1852449 C11.9874518,9.96191287 11.4349988,9.80910671 11.4349988,9.0333216 C11.4349988,8.51613153 11.7523654,7.92841553 12.4223617,7.92841553 C13.0923579,7.92841553 13.4097245,8.32806241 13.4567418,8.9157784 L14.6791911,8.9157784 C14.6321738,7.69332914 13.903406,6.99982426 12.9395517,6.88228107 L12.9395517,5.56579724 L11.8228914,5.56579724 Z" id="Shape" sketch:type="MSShapeGroup"></path>
        </g>
    </g>
</svg>