<?xml version="1.0" encoding="UTF-8" standalone="no"?>
<svg width="25px" height="25px" viewBox="0 0 25 25" version="1.1" xmlns="http://www.w3.org/2000/svg" xmlns:xlink="http://www.w3.org/1999/xlink" xmlns:sketch="http://www.bohemiancoding.com/sketch/ns">
    <!-- Generator: Sketch 3.5.1 (25234) - http://www.bohemiancoding.com/sketch -->
    <title>FAQ</title>
    <desc>Created with Sketch.</desc>
    <defs></defs>
    <g id="Page-1" stroke="none" stroke-width="1" fill="none" fill-rule="evenodd" sketch:type="MSPage">
        <g id="FAQ" sketch:type="MSArtboardGroup" fill="#FFFFFF">
            <path d="M12.0196749,24.0393497 C18.1056732,24.0393497 23.0393497,19.1056732 23.0393497,13.0196749 C23.0393497,6.93367649 18.1056732,2 12.0196749,2 C5.93367649,2 1,6.93367649 1,13.0196749 C1,19.1056732 5.93367649,24.0393497 12.0196749,24.0393497 Z M12.7983986,15.3705388 C12.9012489,14.6212009 12.9894063,13.9012489 14.0619879,12.9462104 C14.7084755,12.3584944 15.369656,11.7707784 15.369656,10.3749529 C15.369656,8.72934812 14.0326021,7.08374334 12.1225252,7.08374334 C10.8736287,7.08374334 8.9341659,7.90654573 8.8166227,10.3896458 L10.3446843,10.3896458 C10.388763,10.0076304 10.4328417,9.7284653 10.6532352,9.41991441 C10.8442429,9.14074931 11.2997228,8.62649782 12.1078323,8.62649782 C13.0481778,8.62649782 13.8415944,9.40522151 13.8415944,10.4337245 C13.8415944,11.0508263 13.5918151,11.3006056 12.7983986,12.1087151 C12.1812968,12.7258169 11.3144157,13.6808554 11.270337,15.3705388 L12.7983986,15.3705388 Z M12.7983986,16.369656 L11.270337,16.369656 L11.270337,18.1621898 L12.7983986,18.1621898 L12.7983986,16.369656 Z" id="Oval-293" sketch:type="MSShapeGroup"></path>
        </g>
    </g>
</svg>