<?xml version="1.0" encoding="UTF-8" standalone="no"?>
<svg width="94px" height="93px" viewBox="0 0 94 93" version="1.1" xmlns="http://www.w3.org/2000/svg" xmlns:xlink="http://www.w3.org/1999/xlink" xmlns:sketch="http://www.bohemiancoding.com/sketch/ns">
    <!-- Generator: Sketch 3.4.3 (16618) - http://www.bohemiancoding.com/sketch -->
    <title>Heart red</title>
    <desc>Created with Sketch.</desc>
    <defs></defs>
    <g id="Page-1" stroke="none" stroke-width="1" fill="none" fill-rule="evenodd" sketch:type="MSPage">
        <g id="Heart-red" sketch:type="MSArtboardGroup" fill="#EE3D42">
            <path d="M21.8621061,48.1298461 C20.310207,40.7701848 18.5510095,32.6832954 21.9529767,25.5900025 C25.1249277,18.9758909 32.9582552,16.1543585 39.5321733,19.264809 C46.6754524,22.6388093 48.7938727,30.0661197 47.4450126,37.2355179 C51.7599451,31.7643947 59.5066616,28.7018623 66.0834195,31.8109035 C72.9824839,35.0721552 75.9428768,42.6009393 72.6601773,49.4532322 C69.0636903,56.9510105 60.1839314,61.5483325 53.0505912,64.998438 C44.7969873,69.0108768 41.1976606,70.6767366 36.0790915,72.3623274 C34.2148249,72.9768069 29.5719064,74 29.5719064,74 C29.5719064,74 28.9528506,72.59769 27.551456,69.0926195 C26.1060459,64.7348882 24.9999806,61.7836951 24.2431991,58.5675428 C23.4835779,55.3499812 21.8621061,48.1298461 21.8621061,48.1298461" id="Fill-1" sketch:type="MSShapeGroup"></path>
        </g>
    </g>
</svg>