<?xml version="1.0" encoding="UTF-8" standalone="no"?>
<svg width="94px" height="93px" viewBox="0 0 94 93" version="1.1" xmlns="http://www.w3.org/2000/svg" xmlns:xlink="http://www.w3.org/1999/xlink" xmlns:sketch="http://www.bohemiancoding.com/sketch/ns">
    <!-- Generator: Sketch 3.4.3 (16618) - http://www.bohemiancoding.com/sketch -->
    <title>Phone 2</title>
    <desc>Created with Sketch.</desc>
    <defs>
        <path id="path-1" d="M0,0 L66.986,0 L66.986,67 L0,67"></path>
    </defs>
    <g id="Page-1" stroke="none" stroke-width="1" fill="none" fill-rule="evenodd" sketch:type="MSPage">
        <g id="Phone-2" sketch:type="MSArtboardGroup">
            <g id="Page-1" sketch:type="MSLayerGroup" transform="translate(15.000000, 14.000000)">
                <mask id="mask-2" sketch:name="Clip 2" fill="white">
                    <use xlink:href="#path-1"></use>
                </mask>
                <g id="Clip-2"></g>
                <path d="M38.6484,38.6495 C32.0184,45.2745 24.3384,51.6155 21.3014,48.5795 C16.9584,44.2365 14.2784,40.4505 4.6964,48.1525 C-4.8816,55.8495 2.4764,60.9835 6.6854,65.1885 C11.5434,70.0465 29.6524,65.4485 47.5524,47.5535 C65.4474,29.6535 70.0334,11.5445 65.1704,6.6865 C60.9624,2.4735 55.8524,-4.8805 48.1554,4.6975 C40.4534,14.2755 44.2354,16.9555 48.5864,21.3025 C51.6104,24.3395 45.2734,32.0195 38.6484,38.6495" id="Fill-1" fill="#000000" sketch:type="MSShapeGroup" mask="url(#mask-2)"></path>
            </g>
        </g>
    </g>
</svg>