<?xml version="1.0" encoding="UTF-8" standalone="no"?>
<svg width="18px" height="27px" viewBox="0 0 18 27" version="1.1" xmlns="http://www.w3.org/2000/svg" xmlns:xlink="http://www.w3.org/1999/xlink" xmlns:sketch="http://www.bohemiancoding.com/sketch/ns">
    <!-- Generator: Sketch 3.4.4 (17249) - http://www.bohemiancoding.com/sketch -->
    <title>Shape Copy 4</title>
    <desc>Created with Sketch.</desc>
    <defs></defs>
    <g id="Page-1" stroke="none" stroke-width="1" fill="none" fill-rule="evenodd" sketch:type="MSPage">
        <g id="Explore-Collection-Hover" sketch:type="MSArtboardGroup" transform="translate(-140.000000, -15.000000)" fill="#FFFFFF">
            <g id="DESKTOP-Header" sketch:type="MSLayerGroup">
                <g id="Navi/Banner" sketch:type="MSShapeGroup">
                    <g id="Navi-1">
                        <g id="Location" transform="translate(140.000000, 15.000000)">
                            <path d="M9,0 C4.0284,0 0,3.76378987 0,8.42589118 C0,16.4870544 9,27 9,27 C9,27 18,16.4853659 18,8.42589118 C18,3.76547842 13.9716,0 9,0 L9,0 Z M9,13.0879925 C6.3144,13.0879925 4.14,11.0465291 4.14,8.52889306 C4.14,6.01125704 6.3144,3.96979362 9,3.96979362 C11.682,3.96979362 13.8582,6.01125704 13.8582,8.52889306 C13.8582,11.0465291 11.682,13.0879925 9,13.0879925 L9,13.0879925 Z" id="Shape-Copy-4"></path>
                        </g>
                    </g>
                </g>
            </g>
        </g>
    </g>
</svg>