<?xml version="1.0" encoding="UTF-8" standalone="no"?>
<svg width="25px" height="25px" viewBox="0 0 25 25" version="1.1" xmlns="http://www.w3.org/2000/svg" xmlns:xlink="http://www.w3.org/1999/xlink" xmlns:sketch="http://www.bohemiancoding.com/sketch/ns">
    <!-- Generator: Sketch 3.5.1 (25234) - http://www.bohemiancoding.com/sketch -->
    <title>Group Offers</title>
    <desc>Created with Sketch.</desc>
    <defs></defs>
    <g id="Page-1" stroke="none" stroke-width="1" fill="none" fill-rule="evenodd" sketch:type="MSPage">
        <g id="Group-Offers" sketch:type="MSArtboardGroup" fill="#FFFFFF">
            <path d="M21.4081024,4.77412879 L20.6662606,3.67842254 C20.4168033,3.31094366 19.8591159,3.00538431 19.4255041,3 L15.2617865,3.01884507 C14.8281747,3.01076861 14.1842874,3.21537224 13.8290392,3.47381892 L1.55991642,12.3404246 C0.965659353,12.7711691 0.821992809,13.615159 1.23731973,14.230316 L6.81288767,22.4521511 C7.2308267,23.0646159 7.8982231,22.9905816 8.49378623,22.5625293 L20.762909,13.6945775 C21.1155451,13.4374769 21.5230357,12.8828934 21.6667022,12.4588794 L22.4394416,9.94913246 L22.9701496,8.22546885 C23.1138161,7.80280084 23.0263101,7.15803021 22.7768528,6.79055134 L22.3249562,6.12289741 C22.3249565,6.12289746 21.4081025,4.77412887 21.4081024,4.77412879 Z M17.2953211,8.58487127 C16.6279247,7.60223545 16.8604033,6.25077467 17.8112146,5.56158352 C18.566117,5.01642255 19.5456616,5.05545877 20.2509337,5.58446682 C20.6525001,5.89994041 20.9604388,6.36407147 21.0881178,6.98304027 C21.2148056,7.7826097 20.9065756,8.62121534 20.2208943,9.11791755 C19.2713891,9.80441655 17.9601054,9.56481494 17.2953211,8.58487127 Z" id="Shape" sketch:type="MSShapeGroup"></path>
        </g>
    </g>
</svg>