<?xml version="1.0" encoding="UTF-8" standalone="no"?>
<svg width="94px" height="93px" viewBox="0 0 94 93" version="1.1" xmlns="http://www.w3.org/2000/svg" xmlns:xlink="http://www.w3.org/1999/xlink" xmlns:sketch="http://www.bohemiancoding.com/sketch/ns">
    <!-- Generator: Sketch 3.4.3 (16618) - http://www.bohemiancoding.com/sketch -->
    <title>Bowtie 2 white</title>
    <desc>Created with Sketch.</desc>
    <defs>
        <path id="path-1" d="M0,0.49 L91.048,0.49 L91.048,49 L0,49"></path>
    </defs>
    <g id="Page-1" stroke="none" stroke-width="1" fill="none" fill-rule="evenodd" sketch:type="MSPage">
        <g id="Bowtie-2-white" sketch:type="MSArtboardGroup">
            <g id="Page-1" sketch:type="MSLayerGroup" transform="translate(1.000000, 22.000000)">
                <g id="Group-3">
                    <mask id="mask-2" sketch:name="Clip 2" fill="white">
                        <use xlink:href="#path-1"></use>
                    </mask>
                    <g id="Clip-2"></g>
                    <path d="M42.0475,16.3086 C33.0865,8.4476 16.7465,0.5376 11.3635,0.4906 C7.2765,0.4536 2.7175,3.9566 1.6165,6.4716 C-0.2015,10.6266 -0.8525,40.0786 1.6165,43.2596 C3.9415,46.2556 7.2285,48.6086 10.1065,48.9596 C16.5515,49.7456 37.1465,38.7916 40.7625,34.7036" id="Fill-1" fill="#FFFFFF" sketch:type="MSShapeGroup" mask="url(#mask-2)"></path>
                </g>
                <path d="M49,16.3086 C57.961,8.4476 74.301,0.5376 79.684,0.4906 C83.771,0.4536 88.33,3.9566 89.431,6.4716 C91.249,10.6266 91.9,40.0786 89.431,43.2596 C87.106,46.2556 83.819,48.6086 80.941,48.9596 C74.496,49.7456 53.901,38.7916 50.285,34.7036" id="Fill-4" fill="#FFFFFF" sketch:type="MSShapeGroup"></path>
                <path d="M56.0123,25.8092 C56.0123,31.4532 51.4373,36.0282 45.7933,36.0282 C40.1493,36.0282 35.5743,31.4532 35.5743,25.8092 C35.5743,20.1652 40.1493,15.5902 45.7933,15.5902 C51.4373,15.5902 56.0123,20.1652 56.0123,25.8092" id="Fill-6" fill="#FFFFFF" sketch:type="MSShapeGroup"></path>
            </g>
        </g>
    </g>
</svg>