<?xml version="1.0" encoding="UTF-8" standalone="no"?>
<svg width="251px" height="253px" viewBox="0 0 251 253" version="1.1" xmlns="http://www.w3.org/2000/svg" xmlns:xlink="http://www.w3.org/1999/xlink" xmlns:sketch="http://www.bohemiancoding.com/sketch/ns">
    <!-- Generator: Sketch 3.4.3 (16618) - http://www.bohemiancoding.com/sketch -->
    <title>Calendar</title>
    <desc>Created with Sketch.</desc>
    <defs></defs>
    <g id="Page-1" stroke="none" stroke-width="1" fill="none" fill-rule="evenodd" sketch:type="MSPage">
        <g id="Calendar" sketch:type="MSArtboardGroup">
            <g id="Page-1" sketch:type="MSLayerGroup" transform="translate(10.000000, 23.000000)">
                <path d="M217.518632,203.863636 L13.8844386,203.863636 C7.9724695,203.863636 3.13540386,199.024675 3.13540386,193.11039 L3.13540386,36.5771688 C3.13540386,30.6628831 7.9724695,25.8239221 13.8844386,25.8239221 L217.518632,25.8239221 C223.430601,25.8239221 228.267666,30.6628831 228.267666,36.5771688 L228.267666,193.11039 C228.267666,199.024675 223.430601,203.863636 217.518632,203.863636" id="Fill-1" fill="#FFFFFF" sketch:type="MSShapeGroup"></path>
                <path d="M217.518632,203.863636 L13.8844386,203.863636 C7.9724695,203.863636 3.13540386,199.024675 3.13540386,193.11039 L3.13540386,36.5771688 C3.13540386,30.6628831 7.9724695,25.8239221 13.8844386,25.8239221 L217.518632,25.8239221 C223.430601,25.8239221 228.267666,30.6628831 228.267666,36.5771688 L228.267666,193.11039 C228.267666,199.024675 223.430601,203.863636 217.518632,203.863636 L217.518632,203.863636 Z" id="Stroke-3" stroke="#000000" stroke-width="7" sketch:type="MSShapeGroup"></path>
                <path d="M53.3293653,40.360161 L33.929149,40.3180442 C30.6453189,40.3108753 27.9634347,37.6162909 27.9706008,34.331174 L28.0091181,16.7675377 C28.0162842,13.4824208 30.7089174,10.7994857 33.9936432,10.8066545 L53.3938595,10.8496675 C56.6776896,10.8568364 59.358678,13.5505247 59.351512,16.8356416 L59.3138903,34.400174 C59.3067243,37.6852909 56.6131954,40.3673299 53.3293653,40.360161" id="Fill-5" fill="#FFFFFF" sketch:type="MSShapeGroup"></path>
                <path d="M194.798934,40.360161 L175.398718,40.3180442 C172.114888,40.3108753 169.433004,37.6162909 169.44017,34.331174 L169.478687,16.7675377 C169.485853,13.4824208 172.178486,10.7994857 175.463212,10.8066545 L194.863429,10.8496675 C198.147259,10.8568364 200.828247,13.5505247 200.821081,16.8356416 L200.783459,34.400174 C200.776293,37.6852909 198.082764,40.3673299 194.798934,40.360161" id="Fill-7" fill="#FFFFFF" sketch:type="MSShapeGroup"></path>
                <path d="M46.6685467,41.8524429 L40.9455815,41.8524429 C37.6608556,41.8524429 34.9744927,39.1641312 34.9744927,35.8790143 L34.9744927,9.60435195 C34.9744927,6.31833896 37.6608556,3.63092338 40.9455815,3.63092338 L46.6685467,3.63092338 C49.9523768,3.63092338 52.6396355,6.31833896 52.6396355,9.60435195 L52.6396355,35.8790143 C52.6396355,39.1641312 49.9523768,41.8524429 46.6685467,41.8524429" id="Fill-9" fill="#FFFFFF" sketch:type="MSShapeGroup"></path>
                <path d="M46.6685467,41.8524429 L40.9455815,41.8524429 C37.6608556,41.8524429 34.9744927,39.1641312 34.9744927,35.8790143 L34.9744927,9.60435195 C34.9744927,6.31833896 37.6608556,3.63092338 40.9455815,3.63092338 L46.6685467,3.63092338 C49.9523768,3.63092338 52.6396355,6.31833896 52.6396355,9.60435195 L52.6396355,35.8790143 C52.6396355,39.1641312 49.9523768,41.8524429 46.6685467,41.8524429 L46.6685467,41.8524429 Z" id="Stroke-11" stroke="#000000" stroke-width="7" sketch:type="MSShapeGroup"></path>
                <path d="M187.992646,41.8524429 L182.26968,41.8524429 C178.984954,41.8524429 176.298592,39.1641312 176.298592,35.8790143 L176.298592,9.60435195 C176.298592,6.31833896 178.984954,3.63092338 182.26968,3.63092338 L187.992646,3.63092338 C191.276476,3.63092338 193.963734,6.31833896 193.963734,9.60435195 L193.963734,35.8790143 C193.963734,39.1641312 191.276476,41.8524429 187.992646,41.8524429" id="Fill-13" fill="#FFFFFF" sketch:type="MSShapeGroup"></path>
                <path d="M187.992646,41.8524429 L182.26968,41.8524429 C178.984954,41.8524429 176.298592,39.1641312 176.298592,35.8790143 L176.298592,9.60435195 C176.298592,6.31833896 178.984954,3.63092338 182.26968,3.63092338 L187.992646,3.63092338 C191.276476,3.63092338 193.963734,6.31833896 193.963734,9.60435195 L193.963734,35.8790143 C193.963734,39.1641312 191.276476,41.8524429 187.992646,41.8524429 L187.992646,41.8524429 Z" id="Stroke-15" stroke="#000000" stroke-width="7" sketch:type="MSShapeGroup"></path>
                <g id="Group-20" sketch:type="MSShapeGroup">
                    <path d="M5.82239382,74.2120987 L226.177606,74.2120987" id="Fill-17" fill="#FFFFFF"></path>
                    <path d="M5.82239382,74.2120987 L226.177606,74.2120987" id="Stroke-19" stroke="#000000" stroke-width="7"></path>
                </g>
                <g id="Group-24" sketch:type="MSShapeGroup">
                    <path d="M5.82239382,116.328982 L226.177606,116.328982" id="Fill-21" fill="#FFFFFF"></path>
                    <path d="M5.82239382,116.328982 L226.177606,116.328982" id="Stroke-23" stroke="#000000" stroke-width="7"></path>
                </g>
                <g id="Group-28" sketch:type="MSShapeGroup">
                    <path d="M6.71814672,162.030281 L227.073359,162.030281" id="Fill-25" fill="#FFFFFF"></path>
                    <path d="M6.71814672,162.030281 L227.073359,162.030281" id="Stroke-27" stroke="#000000" stroke-width="7"></path>
                </g>
                <g id="Group-32" sketch:type="MSShapeGroup">
                    <path d="M58.2239382,74.6601506 L58.2239382,201.906904" id="Fill-29" fill="#FFFFFF"></path>
                    <path d="M58.2239382,74.6601506 L58.2239382,201.906904" id="Stroke-31" stroke="#000000" stroke-width="7"></path>
                </g>
                <g id="Group-36" sketch:type="MSShapeGroup">
                    <path d="M116.447876,76.4523584 L116.447876,203.699112" id="Fill-33" fill="#FFFFFF"></path>
                    <path d="M116.447876,76.4523584 L116.447876,203.699112" id="Stroke-35" stroke="#000000" stroke-width="7"></path>
                </g>
                <g id="Group-40" sketch:type="MSShapeGroup">
                    <path d="M171.088803,74.6601506 L171.088803,201.906904" id="Fill-37" fill="#FFFFFF"></path>
                    <path d="M171.088803,74.6601506 L171.088803,201.906904" id="Stroke-39" stroke="#000000" stroke-width="7"></path>
                </g>
            </g>
        </g>
    </g>
</svg>