<?xml version="1.0" encoding="UTF-8" standalone="no"?>
<svg width="381px" height="253px" viewBox="0 0 381 253" version="1.1" xmlns="http://www.w3.org/2000/svg" xmlns:xlink="http://www.w3.org/1999/xlink" xmlns:sketch="http://www.bohemiancoding.com/sketch/ns">
    <!-- Generator: Sketch 3.4.3 (16618) - http://www.bohemiancoding.com/sketch -->
    <title>Plane</title>
    <desc>Created with Sketch.</desc>
    <defs></defs>
    <g id="Page-1" stroke="none" stroke-width="1" fill="none" fill-rule="evenodd" sketch:type="MSPage">
        <g id="Plane" sketch:type="MSArtboardGroup">
            <g id="Page-1" sketch:type="MSLayerGroup" transform="translate(16.000000, 67.000000)">
                <path d="M212.2252,80.7781 C212.2252,101.6111 195.3362,118.5001 174.5032,118.5001 C153.6702,118.5001 136.7812,101.6111 136.7812,80.7781 C136.7812,59.9451 153.6702,43.0561 174.5032,43.0561 C195.3362,43.0561 212.2252,59.9451 212.2252,80.7781 L212.2252,80.7781 Z" id="Stroke-1" stroke="#000000" stroke-width="5" sketch:type="MSShapeGroup"></path>
                <path d="M123.8675,96.9203 C123.8675,102.0813 119.6835,106.2663 114.5215,106.2663 C109.3605,106.2663 105.1765,102.0813 105.1765,96.9203 C105.1765,91.7593 109.3605,87.5743 114.5215,87.5743 C119.6835,87.5743 123.8675,91.7593 123.8675,96.9203 L123.8675,96.9203 Z" id="Stroke-3" stroke="#000000" stroke-width="5" sketch:type="MSShapeGroup"></path>
                <path d="M184.0187,95.9008 C184.0187,101.0618 179.8347,105.2468 174.6727,105.2468 C169.5117,105.2468 165.3277,101.0618 165.3277,95.9008 C165.3277,90.7398 169.5117,86.5548 174.6727,86.5548 C179.8347,86.5548 184.0187,90.7398 184.0187,95.9008" id="Fill-5" fill="#000000" sketch:type="MSShapeGroup"></path>
                <path d="M136.8398,72.6667 L4.9248,72.6667 C4.9248,72.6667 -8.3292,76.6377 11.0418,80.7157 C30.4118,84.7937 129.1638,87.8207 136.9808,87.4807" id="Stroke-7" stroke="#000000" stroke-width="5" sketch:type="MSShapeGroup"></path>
                <path d="M225.4723,96.9203 C225.4723,102.0813 229.6563,106.2663 234.8183,106.2663 C239.9793,106.2663 244.1633,102.0813 244.1633,96.9203 C244.1633,91.7593 239.9793,87.5743 234.8183,87.5743 C229.6563,87.5743 225.4723,91.7593 225.4723,96.9203 L225.4723,96.9203 Z" id="Stroke-9" stroke="#000000" stroke-width="5" sketch:type="MSShapeGroup"></path>
                <path d="M212.8398,72.6667 L344.4158,72.6667 C344.4158,72.6667 357.6688,76.6377 338.2978,80.7157 C318.9278,84.7937 220.3458,87.8207 212.5288,87.4807" id="Stroke-11" stroke="#000000" stroke-width="5" sketch:type="MSShapeGroup"></path>
                <path d="M164.3081,43.2595 C164.3661,48.8535 162.4531,24.0665 173.6541,24.0665 C183.5231,24.0665 184.7031,33.3495 184.6981,43.0565" id="Stroke-13" stroke="#000000" stroke-width="5" sketch:type="MSShapeGroup"></path>
                <path d="M162.7026,36.5992 L143.1446,36.5992 C141.7006,36.5992 140.5196,35.4182 140.5196,33.9742 L140.5196,33.8722 C140.5196,32.4282 141.7006,31.2472 143.1446,31.2472 L162.7026,31.2472 C164.1466,31.2472 165.3276,32.4282 165.3276,33.8722 L165.3276,33.9742 C165.3276,35.4182 164.1466,36.5992 162.7026,36.5992" id="Fill-15" fill="#000000" sketch:type="MSShapeGroup"></path>
                <path d="M206.2018,36.5992 L186.6438,36.5992 C185.1998,36.5992 184.0188,35.4182 184.0188,33.9742 L184.0188,33.8722 C184.0188,32.4282 185.1998,31.2472 186.6438,31.2472 L206.2018,31.2472 C207.6458,31.2472 208.8268,32.4282 208.8268,33.8722 L208.8268,33.9742 C208.8268,35.4182 207.6458,36.5992 206.2018,36.5992" id="Fill-17" fill="#000000" sketch:type="MSShapeGroup"></path>
                <path d="M171.7818,22.5472 L171.7818,2.9892 C171.7818,1.5452 172.9628,0.3642 174.4068,0.3642 L174.5088,0.3642 C175.9528,0.3642 177.1338,1.5452 177.1338,2.9892 L177.1338,22.5472 C177.1338,23.9912 175.9528,25.1722 174.5088,25.1722 L174.4068,25.1722 C172.9628,25.1722 171.7818,23.9912 171.7818,22.5472" id="Fill-19" fill="#000000" sketch:type="MSShapeGroup"></path>
                <path d="M153.8398,66.4199 L172.8398,67.4399 L172.8398,78.3989 L153.8398,76.6149 L153.8398,66.4199 Z" id="Fill-21" fill="#000000" sketch:type="MSShapeGroup"></path>
                <path d="M194.8398,66.4199 L174.8398,67.4399 L174.8398,78.3989 L194.8398,76.6149 L194.8398,66.4199 Z" id="Fill-23" fill="#000000" sketch:type="MSShapeGroup"></path>
                <path d="M196.8398,66.1651 L196.8398,76.3601 L211.4948,72.7921 L208.2708,63.6041 L196.8398,66.1651 Z" id="Fill-25" fill="#000000" sketch:type="MSShapeGroup"></path>
                <path d="M151.8398,66.1651 L151.8398,76.3601 L137.2608,72.7921 L140.4468,63.6041 L151.8398,66.1651 Z" id="Fill-27" fill="#000000" sketch:type="MSShapeGroup"></path>
            </g>
        </g>
    </g>
</svg>