<?xml version="1.0" encoding="UTF-8" standalone="no"?>
<svg width="251px" height="253px" viewBox="0 0 251 253" version="1.1" xmlns="http://www.w3.org/2000/svg" xmlns:xlink="http://www.w3.org/1999/xlink" xmlns:sketch="http://www.bohemiancoding.com/sketch/ns">
    <!-- Generator: Sketch 3.4.3 (16618) - http://www.bohemiancoding.com/sketch -->
    <title>Time</title>
    <desc>Created with Sketch.</desc>
    <defs></defs>
    <g id="Page-1" stroke="none" stroke-width="1" fill="none" fill-rule="evenodd" sketch:type="MSPage">
        <g id="Time" sketch:type="MSArtboardGroup">
            <g id="Page-1" sketch:type="MSLayerGroup" transform="translate(10.000000, 11.000000)">
                <path d="M226.7071,115.8964 C226.7071,177.5334 176.7401,227.5004 115.1031,227.5004 C53.4661,227.5004 3.5001,177.5334 3.5001,115.8964 C3.5001,54.2594 53.4661,4.2924 115.1031,4.2924 C176.7401,4.2924 226.7071,54.2594 226.7071,115.8964 L226.7071,115.8964 Z" id="Stroke-1" stroke="#000000" stroke-width="7" sketch:type="MSShapeGroup"></path>
                <g id="Group-6" sketch:type="MSShapeGroup">
                    <path d="M115,39.5 L115,115 L170.5,115" id="Fill-3" fill="#FFFFFF"></path>
                    <path d="M115,39.5 L115,115 L170.5,115" id="Stroke-5" stroke="#000000" stroke-width="7"></path>
                </g>
                <path d="M116.3338,26.0593 L114.1678,26.0593 C112.8108,26.0593 111.6998,24.9483 111.6998,23.5913 L111.6998,3.4963 C111.6998,2.1383 112.8108,1.0273 114.1678,1.0273 L116.3338,1.0273 C117.6918,1.0273 118.8018,2.1383 118.8018,3.4963 L118.8018,23.5913 C118.8018,24.9483 117.6918,26.0593 116.3338,26.0593" id="Fill-7" fill="#000000" sketch:type="MSShapeGroup"></path>
                <path d="M116.3338,229.5703 L114.1678,229.5703 C112.8108,229.5703 111.6998,228.4593 111.6998,227.1023 L111.6998,207.0073 C111.6998,205.6493 112.8108,204.5383 114.1678,204.5383 L116.3338,204.5383 C117.6918,204.5383 118.8018,205.6493 118.8018,207.0073 L118.8018,227.1023 C118.8018,228.4593 117.6918,229.5703 116.3338,229.5703" id="Fill-9" fill="#000000" sketch:type="MSShapeGroup"></path>
                <path d="M204.4683,117.5827 L204.4683,115.4177 C204.4683,114.0597 205.5793,112.9487 206.9363,112.9487 L227.0313,112.9487 C228.3893,112.9487 229.5003,114.0597 229.5003,115.4177 L229.5003,117.5827 C229.5003,118.9407 228.3893,120.0507 227.0313,120.0507 L206.9363,120.0507 C205.5793,120.0507 204.4683,118.9407 204.4683,117.5827" id="Fill-11" fill="#000000" sketch:type="MSShapeGroup"></path>
                <path d="M1.8815,117.5827 L1.8815,115.4177 C1.8815,114.0597 2.9925,112.9487 4.3495,112.9487 L24.4445,112.9487 C25.8025,112.9487 26.9135,114.0597 26.9135,115.4177 L26.9135,117.5827 C26.9135,118.9407 25.8025,120.0507 24.4445,120.0507 L4.3495,120.0507 C2.9925,120.0507 1.8815,118.9407 1.8815,117.5827" id="Fill-13" fill="#000000" sketch:type="MSShapeGroup"></path>
                <path d="M70.6922,38.157 L68.7932,39.198 C67.6032,39.851 66.0952,39.41 65.4422,38.22 L55.7832,20.599 C55.1302,19.408 55.5702,17.9 56.7612,17.248 L58.6602,16.207 C59.8502,15.554 61.3582,15.994 62.0112,17.185 L71.6702,34.806 C72.3232,35.996 71.8832,37.504 70.6922,38.157" id="Fill-15" fill="#000000" sketch:type="MSShapeGroup"></path>
                <path d="M172.3636,214.9933 L170.4646,216.0343 C169.2746,216.6873 167.7666,216.2463 167.1136,215.0563 L157.4546,197.4353 C156.8016,196.2443 157.2416,194.7363 158.4326,194.0843 L160.3316,193.0433 C161.5216,192.3903 163.0296,192.8303 163.6826,194.0213 L173.3416,211.6423 C173.9946,212.8323 173.5546,214.3403 172.3636,214.9933" id="Fill-17" fill="#000000" sketch:type="MSShapeGroup"></path>
                <path d="M194.0411,73.5015 L193.0001,71.6025 C192.3471,70.4125 192.7881,68.9045 193.9781,68.2515 L211.5991,58.5925 C212.7901,57.9395 214.2981,58.3795 214.9501,59.5705 L215.9911,61.4695 C216.6441,62.6595 216.2041,64.1675 215.0131,64.8205 L197.3921,74.4795 C196.2021,75.1325 194.6941,74.6925 194.0411,73.5015" id="Fill-19" fill="#000000" sketch:type="MSShapeGroup"></path>
                <path d="M18.3936,174.1677 L17.3526,172.2687 C16.6996,171.0787 17.1406,169.5707 18.3306,168.9177 L35.9516,159.2587 C37.1426,158.6057 38.6506,159.0457 39.3026,160.2367 L40.3436,162.1357 C40.9966,163.3257 40.5566,164.8337 39.3656,165.4867 L21.7446,175.1457 C20.5546,175.7987 19.0466,175.3587 18.3936,174.1677" id="Fill-21" fill="#000000" sketch:type="MSShapeGroup"></path>
                <path d="M38.3212,71.7967 L37.2482,73.6777 C36.5752,74.8567 35.0602,75.2717 33.8812,74.5987 L16.4262,64.6427 C15.2472,63.9697 14.8322,62.4547 15.5052,61.2757 L16.5782,59.3947 C17.2512,58.2147 18.7662,57.8007 19.9452,58.4727 L37.4002,68.4297 C38.5792,69.1017 38.9942,70.6177 38.3212,71.7967" id="Fill-23" fill="#000000" sketch:type="MSShapeGroup"></path>
                <path d="M215.1549,172.4629 L214.0819,174.3439 C213.4089,175.5229 211.8939,175.9379 210.7149,175.2649 L193.2599,165.3089 C192.0809,164.6359 191.6659,163.1209 192.3389,161.9419 L193.4119,160.0609 C194.0849,158.8809 195.5999,158.4669 196.7789,159.1389 L214.2339,169.0959 C215.4129,169.7679 215.8279,171.2839 215.1549,172.4629" id="Fill-25" fill="#000000" sketch:type="MSShapeGroup"></path>
                <path d="M161.8039,39.1104 L159.9229,38.0374 C158.7439,37.3644 158.3289,35.8494 159.0019,34.6704 L168.9579,17.2154 C169.6309,16.0364 171.1459,15.6214 172.3249,16.2944 L174.2059,17.3674 C175.3859,18.0404 175.7999,19.5554 175.1279,20.7344 L165.1709,38.1894 C164.4989,39.3684 162.9829,39.7834 161.8039,39.1104" id="Fill-27" fill="#000000" sketch:type="MSShapeGroup"></path>
                <path d="M60.0949,214.4448 L58.2139,213.3718 C57.0349,212.6988 56.6199,211.1838 57.2929,210.0048 L67.2489,192.5498 C67.9219,191.3708 69.4369,190.9558 70.6159,191.6288 L72.4969,192.7018 C73.6769,193.3748 74.0909,194.8898 73.4189,196.0688 L63.4619,213.5238 C62.7899,214.7028 61.2739,215.1178 60.0949,214.4448" id="Fill-29" fill="#000000" sketch:type="MSShapeGroup"></path>
                <path d="M124.8333,113.5498 C124.8333,118.5478 120.7813,122.5998 115.7833,122.5998 C110.7853,122.5998 106.7333,118.5478 106.7333,113.5498 C106.7333,108.5518 110.7853,104.4998 115.7833,104.4998 C120.7813,104.4998 124.8333,108.5518 124.8333,113.5498" id="Fill-31" fill="#000000" sketch:type="MSShapeGroup"></path>
            </g>
        </g>
    </g>
</svg>