<?xml version="1.0" encoding="UTF-8" standalone="no"?>
<svg width="568px" height="604px" viewBox="0 0 568 604" version="1.1" xmlns="http://www.w3.org/2000/svg" xmlns:xlink="http://www.w3.org/1999/xlink" xmlns:sketch="http://www.bohemiancoding.com/sketch/ns">
    <!-- Generator: Sketch 3.4.3 (16618) - http://www.bohemiancoding.com/sketch -->
    <title>Hefty</title>
    <desc>Created with Sketch.</desc>
    <defs></defs>
    <g id="Page-1" stroke="none" stroke-width="1" fill="none" fill-rule="evenodd" sketch:type="MSPage">
        <g id="Hefty" sketch:type="MSArtboardGroup" stroke="#000000">
            <g id="Page-1" sketch:type="MSLayerGroup" transform="translate(5.000000, 12.000000)">
                <path d="M224.0092,0.8754 C224.6762,10.8754 223.6762,14.8754 221.6762,20.2084 C221.6762,20.2084 223.6762,30.8754 229.6762,36.5424 C236.9052,43.3704 247.7582,51.7404 252.3422,54.2084 C256.6762,56.5424 274.6762,59.2084 285.3422,59.8754 C296.0092,60.5424 320.0092,56.5424 342.0092,35.8754 C346.6762,29.2084 348.0092,20.5424 348.0092,20.5424 C348.0092,20.5424 345.0092,7.5424 345.0092,2.2084" id="Stroke-1" stroke-width="3" sketch:type="MSShapeGroup"></path>
                <path d="M225.0092,12.5421 C212.5092,15.5421 184.0092,17.3751 173.5092,25.3751 C163.0092,33.3751 154.5092,36.8751 149.5092,41.3751 C144.5092,45.8751 121.0092,47.8751 110.0092,57.3751 C99.0092,66.8751 74.0092,105.8751 68.5092,112.8751 C63.0092,119.8751 1.0092,252.8751 0.5092,254.3751 C0.0092,255.8751 20.0092,267.8751 51.5092,270.8751 C83.0092,273.8751 91.0092,284.3751 113.5092,274.3751 C116.0092,274.5421 118.0092,270.8751 118.0092,270.8751 C118.0092,270.8751 117.6762,277.5421 117.6762,283.2091 C117.6762,288.8751 116.0092,345.2091 116.6762,359.5421 C117.3422,373.8751 118.6762,406.8751 119.0092,415.5421 C119.3422,424.2091 108.3422,547.8751 110.6762,551.2091 C118.3422,553.5421 129.0092,561.2091 142.3422,561.8751 C155.6762,562.5421 171.0092,562.5421 179.3422,564.8751 C187.6762,567.2091 210.3422,572.5421 230.6762,572.5421 C251.0092,572.5421 293.0092,573.8751 320.6762,570.5421 C348.3422,567.2091 404.6762,561.8751 422.0092,555.5421 C439.3422,549.2091 457.6762,544.5421 457.6762,544.5421 L449.0092,471.5421 C449.0092,471.5421 446.0092,363.8751 444.6762,356.5421 C443.3422,349.2091 442.3422,341.2091 441.6762,333.8751 C441.0092,326.5421 442.6762,261.5421 444.3422,259.2091 C447.0092,260.2091 463.6762,281.2091 463.6762,281.2091 C463.6762,281.2091 479.3422,280.8751 487.6762,277.5421 C496.0092,274.2091 547.6762,255.2091 552.6762,250.8751 C557.6762,246.5421 556.0092,242.8751 556.0092,242.8751 C556.0092,242.8751 526.3422,169.2091 515.6762,155.2091 C507.6762,141.2091 496.3422,120.8751 491.3422,116.8751 C487.0092,110.2091 485.3422,86.8751 451.0092,61.2091 C451.0092,61.2091 430.0092,48.2091 421.3422,43.5421 C412.6762,38.8751 412.3422,33.2091 396.6762,31.2091 C381.0092,29.2091 372.0092,23.8751 364.0092,21.2091 C356.0092,18.5421 348.0092,16.2091 348.0092,16.2091" id="Stroke-3" stroke-width="3" sketch:type="MSShapeGroup"></path>
                <path d="M93.0092,164.3754 C95.0092,184.3754 104.2592,224.6254 109.7592,236.1254 C115.2592,247.6254 119.5092,258.1254 118.0092,270.8754" id="Stroke-5" stroke-width="3" sketch:type="MSShapeGroup"></path>
                <path d="M465.2592,145.1254 C463.7592,156.1254 465.5092,189.3754 457.0092,211.6254 C448.5092,233.8754 445.7592,247.6254 444.0092,260.1254" id="Stroke-7" stroke-width="3" sketch:type="MSShapeGroup"></path>
                <path d="M31.5092,268.8754 C28.0092,282.8754 20.5092,302.8754 20.0092,339.3754 C19.5092,375.8754 21.0092,418.8754 21.0092,424.8754 C21.0092,430.8754 23.0092,444.3754 23.0092,449.8754 C23.0092,455.3754 20.0092,479.8754 19.5092,484.3754 C19.0092,488.8754 20.5092,499.3754 20.5092,502.8754 C20.5092,506.3754 22.5092,517.8754 25.0092,523.8754 C27.5092,529.8754 39.0092,545.8754 45.5092,549.8754 C52.0092,553.8754 58.6762,559.2084 60.3422,559.2084 C62.0092,559.2084 62.5092,559.3754 62.5092,559.3754 C62.5092,559.3754 67.3422,562.8754 69.6762,563.5424 C72.0092,564.2084 77.0092,562.8754 74.3422,557.2084 C71.6762,551.5424 65.6762,548.5424 64.0092,546.2084 C62.3422,543.8754 59.0092,533.8754 57.0092,530.8754 C55.0092,527.8754 56.6762,520.5424 55.3422,516.8754 C54.0092,513.2084 55.3422,501.2084 55.6762,500.2084 C56.0092,499.2084 64.2592,497.1254 70.6762,491.5424 C74.7592,498.6254 87.0092,515.8754 99.6762,512.2084 C104.6762,510.8754 105.0092,507.5424 105.0092,507.5424 C105.0092,507.5424 81.3422,477.5424 79.0092,461.8754 C79.0092,452.8754 67.3422,446.5424 66.0092,442.2084 C64.6762,437.8754 64.0092,418.5424 71.6762,399.8754 C79.3422,381.2084 97.3422,323.2084 98.0092,316.2084 C98.6762,309.2084 105.0092,283.5424 109.6762,276.5424" id="Stroke-9" stroke-width="3" sketch:type="MSShapeGroup"></path>
                <path d="M463.6758,281.2088 C463.6758,281.2088 466.3428,288.5418 468.0088,291.5418 C469.6758,294.5418 468.6758,305.8758 470.0088,311.2088 C471.3428,316.5418 474.0088,341.5418 483.6758,360.5418 C493.3428,379.5418 500.0088,427.8758 497.3428,437.5418 C494.6758,447.2088 485.3428,460.5418 484.0088,467.5418 C482.6758,474.5418 474.0088,519.8758 472.0088,523.5418 L470.0088,527.2088 C470.3428,529.5418 471.0088,532.5418 479.3428,528.5418 C487.6758,524.5418 492.3428,509.5418 492.3428,509.5418 C492.3428,509.5418 492.6758,499.5418 493.3428,498.2088 C494.0088,496.8758 496.0088,496.5418 497.3428,498.8758 C498.6758,501.2088 501.6758,504.8758 500.0088,514.5418 C498.3428,524.2088 494.6758,542.8758 493.3428,547.5418 C492.0088,552.2088 488.3428,558.8758 489.0088,561.2088 C489.6758,563.5418 491.3428,566.5418 494.0088,566.5418 C496.6758,566.5418 499.3428,563.8758 499.3428,563.8758 C499.3428,563.8758 499.3428,567.2088 502.0088,567.2088 C504.6758,567.2088 512.3428,559.5418 513.6758,559.2088 C515.0088,558.8758 519.6758,553.5418 521.6758,553.5418 C523.6758,553.5418 531.3428,549.8758 536.0088,540.5418 C543.3428,536.8758 549.3428,530.5418 550.3428,523.5418 C551.3428,516.5418 555.0088,501.5418 546.3428,456.2088 C546.3428,456.2088 546.0088,393.2088 546.6758,386.8758 C547.3428,380.5418 550.6758,328.2088 547.6758,310.8758 C544.6758,293.5418 534.3428,258.8758 534.3428,258.8758" id="Stroke-11" stroke-width="3" sketch:type="MSShapeGroup"></path>
                <path d="M34.0092,497.1254 C34.7592,502.6254 37.0092,520.3754 38.7592,525.1254 C40.5092,529.8754 46.7592,542.1254 49.0092,544.8754 C51.2592,547.6254 61.4262,558.3754 63.3422,558.8754" id="Stroke-13" stroke-width="2" sketch:type="MSShapeGroup"></path>
                <path d="M499.3425,563.8754 C502.2595,560.8754 507.2595,552.6254 508.7595,549.3754 C510.2595,546.1254 519.2595,521.1254 522.0095,513.6254" id="Stroke-15" stroke-width="2" sketch:type="MSShapeGroup"></path>
                <path d="M535.7592,517.6254 C534.2592,529.6254 524.7592,547.3754 519.7592,553.8754" id="Stroke-17" stroke-width="2" sketch:type="MSShapeGroup"></path>
                <path d="M535.2592,540.6254 C535.2592,540.6254 543.5092,531.6254 544.2592,519.3754" id="Stroke-19" stroke-width="2" sketch:type="MSShapeGroup"></path>
                <path d="M124.3425,558.2088 C124.3425,562.2088 125.3425,576.2088 125.3425,578.8758" id="Stroke-21" stroke-width="3" sketch:type="MSShapeGroup"></path>
                <path d="M448.0092,547.5421 C447.6762,552.2091 447.3422,575.8751 447.0092,579.8751" id="Stroke-23" stroke-width="3" sketch:type="MSShapeGroup"></path>
                <path d="M476.5092,166.3754 C474.5092,185.8754 472.5092,206.3754 464.0092,220.3754 C455.5092,234.3754 451.0092,242.8754 447.5092,246.8754" id="Stroke-25" stroke-width="2" sketch:type="MSShapeGroup"></path>
                <path d="M85.0092,190.3754 C87.0092,199.3754 100.5092,242.3754 114.5092,251.3754" id="Stroke-27" stroke-width="2" sketch:type="MSShapeGroup"></path>
                <path d="M410.0092,445.2088 C382.6762,485.2088 335.3422,511.2088 262.6762,509.2088" id="Stroke-29" stroke-width="2" sketch:type="MSShapeGroup"></path>
            </g>
        </g>
    </g>
</svg>