<?xml version="1.0" encoding="UTF-8" standalone="no"?>
<svg width="442px" height="604px" viewBox="0 0 442 604" version="1.1" xmlns="http://www.w3.org/2000/svg" xmlns:xlink="http://www.w3.org/1999/xlink" xmlns:sketch="http://www.bohemiancoding.com/sketch/ns">
    <!-- Generator: Sketch 3.4.3 (16618) - http://www.bohemiancoding.com/sketch -->
    <title>Muscular</title>
    <desc>Created with Sketch.</desc>
    <defs></defs>
    <g id="Page-1" stroke="none" stroke-width="1" fill="none" fill-rule="evenodd" sketch:type="MSPage">
        <g id="Muscular" sketch:type="MSArtboardGroup" stroke="#000000">
            <g id="Page-1" sketch:type="MSLayerGroup" transform="translate(5.000000, 0.000000)">
                <path d="M164.6361,1.979 C167.9691,15.646 165.9691,24.646 163.6361,31.646" id="Stroke-1" stroke-width="3" sketch:type="MSShapeGroup"></path>
                <path d="M343.3027,485.3124 C343.3027,485.3124 344.4697,484.4794 337.4697,485.9794 C330.4697,487.4794 249.6357,496.6454 186.3027,497.9794 C122.9697,499.3124 85.3027,482.6454 81.6357,480.6454 C81.6357,475.9794 85.9697,459.3124 87.3027,453.6454 C88.6357,447.9794 87.6357,444.3124 92.3027,431.6454 C96.9697,418.9794 100.3027,394.6454 101.9697,379.3124 C103.6357,363.9794 106.6357,348.3124 108.3027,344.6454 C109.9697,340.9794 107.3027,315.3124 107.3027,308.9794 C107.3027,302.6454 110.3027,299.9794 110.6357,265.3124 C110.9697,230.6454 106.6357,219.3124 103.3027,208.9794 C101.6357,218.6454 93.9697,229.6454 91.9697,239.9794 C89.9697,250.3124 83.9697,262.3124 78.6357,278.6454 C75.3027,297.3124 68.9697,347.3124 68.3027,353.6454 C67.6357,359.9794 40.9697,418.9794 40.9697,418.9794 C40.9697,418.9794 31.9697,451.3124 40.9697,467.9794 C52.9697,479.3124 50.9697,481.6454 53.3027,498.6454 C55.6357,515.6454 60.9697,523.9794 62.6357,529.9794 C64.3027,535.9794 66.3027,540.5624 63.9697,542.2294 C61.6357,543.8954 57.3027,546.3124 50.3027,539.3124 C43.3027,532.3124 38.8027,517.8124 38.4697,513.4794 C38.4697,515.4794 33.6357,519.6454 31.6357,519.3124 C32.3027,523.3124 30.3027,530.6454 31.3027,531.9794 C32.3027,533.3124 32.6357,534.6454 33.3027,536.9794 C39.3027,537.6454 42.6357,541.3124 41.9697,545.6454 C53.9697,546.9794 53.9697,552.9794 53.3027,554.9794 C52.6357,556.9794 50.6357,558.3124 48.6357,558.6454 C57.3027,562.9794 54.3027,568.9794 52.9697,569.6454 C51.6357,570.3124 51.9697,571.3124 47.6357,571.3124 C48.3027,575.9794 43.9697,578.6454 41.6357,577.6454 C39.3027,576.6454 29.6357,563.3124 27.9697,562.6454 C26.3027,561.9794 27.9697,562.6454 22.9697,560.9794 C17.9697,559.3124 14.3027,552.6454 13.3027,550.9794 C12.3027,549.3124 6.6357,528.9794 3.6357,525.3124 C0.6357,521.6454 0.9697,512.9794 1.6357,507.6454 C2.3027,502.3124 1.6357,481.9794 3.6357,473.9794 C5.6357,465.9794 1.3027,461.3124 0.6357,456.9794 C-0.0303,452.6454 1.9697,446.3124 1.9697,446.3124 C2.3027,441.6454 2.3027,435.9794 3.3027,429.3124 C2.9697,395.9794 0.9697,334.3124 7.3027,312.9794 C9.3027,293.6454 19.6357,263.6454 19.6357,263.6454 C20.3027,260.3124 25.6357,252.6454 25.9697,232.6454 C24.9697,199.9794 31.9697,193.9794 35.3027,183.9794 C38.6357,173.9794 42.9697,154.9794 42.6357,136.6454 C42.3027,118.3124 49.3027,100.9794 58.6357,87.6454 C67.9697,74.3124 96.3027,57.6454 104.3027,51.3124 C112.3027,44.9794 139.9697,37.3124 143.9697,33.3124 C147.9697,29.3124 159.6357,22.3124 167.3027,14.6454" id="Stroke-3" stroke-width="3" sketch:type="MSShapeGroup"></path>
                <path d="M103.3027,208.979 C101.3027,201.979 93.6357,170.646 92.6357,158.312 C91.6357,145.979 88.3027,142.312 86.9697,139.312" id="Stroke-5" stroke-width="3" sketch:type="MSShapeGroup"></path>
                <path d="M251.636,0.979 C250.636,11.646 252.303,26.646 254.969,29.979" id="Stroke-7" stroke-width="3" sketch:type="MSShapeGroup"></path>
                <path d="M251.9694,8.979 C257.9694,13.646 263.9694,21.979 272.3024,25.646 C280.6364,29.312 290.6364,33.979 300.3024,37.646 C309.9694,41.312 327.3024,50.646 337.9694,61.312 C348.6364,71.979 357.9694,74.312 362.6364,78.646 C367.3024,82.979 385.6364,110.646 388.3024,139.312 C390.9694,167.979 393.6364,171.979 395.9694,176.312 C398.3024,180.646 402.3024,190.312 406.3024,200.979 C410.3024,211.646 410.6364,244.646 410.6364,249.646 C410.6364,254.646 417.3024,267.312 417.3024,275.979 C417.3024,284.646 425.6364,317.979 420.9694,352.979 C416.3024,387.979 405.9694,444.979 405.9694,448.979 C405.9694,452.979 407.9694,457.646 402.9694,463.979 C397.9694,470.312 399.6364,509.646 399.9694,513.646 C400.3024,517.646 393.3024,531.646 391.6364,535.312 C389.9694,538.979 385.6364,550.646 384.6364,551.646 C383.6364,552.646 381.3024,553.979 381.3024,553.979 C381.3024,553.979 380.3024,557.646 378.9694,558.979 C377.6364,560.312 358.6364,567.312 356.3024,567.646 C351.6364,570.979 347.9694,573.979 346.6364,573.646 C342.3024,576.646 334.6364,572.979 343.3024,564.312 C351.9694,555.646 353.3024,552.312 353.9694,550.646 C354.6364,548.979 360.6364,532.979 360.6364,521.646 C359.9694,519.312 361.3024,514.646 361.3024,514.646 C361.3024,514.646 357.3024,506.979 353.6364,506.312 C353.3024,511.312 341.9694,538.646 328.9694,536.979 C328.9694,536.979 324.9694,537.646 323.9694,534.312 C324.9694,529.979 340.6364,487.646 346.3024,478.646 C351.9694,469.646 358.6364,465.646 360.9694,460.979 C363.3024,456.312 369.3024,440.979 369.6364,421.646 C369.9694,402.312 361.9694,366.979 359.6364,345.312 C357.3024,323.646 360.3024,318.312 360.9694,313.312 C361.6364,308.312 357.3024,295.312 358.6364,288.979 C357.6364,280.979 353.9694,274.646 349.3024,267.646 C344.6364,260.646 328.6364,214.312 325.9694,200.646 C321.9694,205.646 320.9694,216.979 321.6364,226.312 C322.3024,235.646 321.9694,258.979 319.6364,270.312 C322.3024,282.646 322.9694,288.312 322.3024,293.979 C321.6364,299.646 325.9694,328.312 325.9694,333.312 C325.9694,338.312 324.9694,347.312 325.3024,350.979 C325.6364,354.646 331.3024,391.979 332.3024,398.646 C333.3024,405.312 332.6364,407.979 331.6364,411.646 C330.6364,415.312 334.9694,436.646 337.3024,440.646 C339.6364,444.646 340.9694,449.979 340.3024,455.646 C339.6364,461.312 343.3024,463.979 344.6364,470.646 C345.9694,477.312 346.9694,475.979 346.9694,475.979" id="Stroke-9" stroke-width="3" sketch:type="MSShapeGroup"></path>
                <path d="M325.9694,200.6457 C328.9694,192.9787 335.3024,163.3127 336.3024,150.3127 C341.6364,140.9787 343.6364,134.6457 344.3024,129.3127" id="Stroke-11" stroke-width="3" sketch:type="MSShapeGroup"></path>
                <path d="M143.9694,33.3124 C145.9694,43.9794 162.9694,64.9794 205.4694,61.9794 C247.9694,58.9794 274.4694,49.4794 274.9694,27.9794" id="Stroke-13" stroke-width="3" sketch:type="MSShapeGroup"></path>
                <path d="M26.9694,228.979 C37.4694,236.979 81.4694,245.479 89.4694,245.479" id="Stroke-15" stroke-width="3" sketch:type="MSShapeGroup"></path>
                <path d="M335.4694,228.979 C346.9694,228.479 392.1364,215.979 406.3024,200.979" id="Stroke-17" stroke-width="3" sketch:type="MSShapeGroup"></path>
                <path d="M366.4694,297.979 C370.9694,296.979 377.4694,289.479 378.9694,283.979" id="Stroke-19" stroke-width="2" sketch:type="MSShapeGroup"></path>
                <path d="M69.4694,294.979 C64.4694,293.979 59.4694,291.979 57.4694,284.979" id="Stroke-21" stroke-width="2" sketch:type="MSShapeGroup"></path>
                <path d="M4.636,514.6457 C5.636,520.3127 6.636,523.6457 9.636,526.6457 C12.636,529.6457 19.636,552.3127 22.303,554.9787 C24.969,557.6457 29.636,562.6457 29.636,562.6457" id="Stroke-23" stroke-width="2" sketch:type="MSShapeGroup"></path>
                <path d="M46.7194,569.979 C45.7194,560.646 34.6364,552.979 33.6364,548.646 C32.6364,544.312 31.6364,536.312 30.6364,530.979" id="Stroke-25" stroke-width="2" sketch:type="MSShapeGroup"></path>
                <path d="M48.2194,558.979 L40.2194,557.229" id="Stroke-27" stroke-width="2" sketch:type="MSShapeGroup"></path>
                <path d="M40.4694,545.729 C40.4694,545.729 35.4694,546.229 33.7194,545.979" id="Stroke-29" stroke-width="2" sketch:type="MSShapeGroup"></path>
                <path d="M356.3027,567.6457 C361.9697,563.3127 367.6357,556.3127 370.3027,552.6457 C372.9697,548.9787 383.3027,518.6457 384.3027,515.6457" id="Stroke-31" stroke-width="2" sketch:type="MSShapeGroup"></path>
                <path d="M381.3027,553.979 C381.3027,553.979 392.9697,522.979 393.6357,518.979" id="Stroke-33" stroke-width="2" sketch:type="MSShapeGroup"></path>
                <path d="M82.4694,482.479 C78.9694,494.479 71.9694,519.979 71.9694,532.979 C71.9694,545.979 68.4694,591.479 68.4694,595.479" id="Stroke-35" stroke-width="3" sketch:type="MSShapeGroup"></path>
                <path d="M179.4694,522.479 C198.4694,527.979 203.9694,526.479 225.9694,532.979 C247.9694,539.479 260.4694,542.479 263.4694,544.479" id="Stroke-37" stroke-width="3" sketch:type="MSShapeGroup"></path>
                <path d="M217.4694,531.979 C224.4694,544.479 234.4694,572.479 239.4694,585.979 L244.4694,599.479" id="Stroke-39" stroke-width="3" sketch:type="MSShapeGroup"></path>
                <path d="M213.9694,530.479 C208.9694,538.479 208.9694,544.979 203.9694,556.979 C198.9694,568.979 187.4694,595.979 186.4694,597.979" id="Stroke-41" stroke-width="3" sketch:type="MSShapeGroup"></path>
                <path d="M352.9694,512.979 C354.4694,520.979 356.4694,539.479 356.4694,540.979" id="Stroke-43" stroke-width="3" sketch:type="MSShapeGroup"></path>
                <path d="M357.9694,567.979 C359.4694,576.979 360.4694,597.479 360.4694,597.479" id="Stroke-45" stroke-width="3" sketch:type="MSShapeGroup"></path>
                <path d="M174.3027,218.979 C186.9697,216.979 234.9697,211.646 255.6357,217.646" id="Stroke-47" stroke-width="3" sketch:type="MSShapeGroup"></path>
                <path d="M200.3027,497.6457 C200.3027,509.6457 202.3027,524.9787 206.3027,527.6457 C210.6357,528.9787 217.6357,529.9787 217.6357,529.9787 C217.6357,529.9787 221.3027,506.9787 220.6357,497.6457" id="Stroke-49" stroke-width="2" sketch:type="MSShapeGroup"></path>
            </g>
        </g>
    </g>
</svg>