<?xml version="1.0" encoding="UTF-8" standalone="no"?>
<svg width="442px" height="604px" viewBox="0 0 442 604" version="1.1" xmlns="http://www.w3.org/2000/svg" xmlns:xlink="http://www.w3.org/1999/xlink" xmlns:sketch="http://www.bohemiancoding.com/sketch/ns">
    <!-- Generator: Sketch 3.4.3 (16618) - http://www.bohemiancoding.com/sketch -->
    <title>Regular</title>
    <desc>Created with Sketch.</desc>
    <defs></defs>
    <g id="Page-1" stroke="none" stroke-width="1" fill="none" fill-rule="evenodd" sketch:type="MSPage">
        <g id="Regular" sketch:type="MSArtboardGroup" stroke="#000000">
            <g id="Page-1" sketch:type="MSLayerGroup" transform="translate(36.000000, 9.000000)">
                <path d="M114.0405,13.5256 C119.3735,28.8586 121.0405,39.0256 113.3735,45.6926 C113.3735,45.6926 112.7075,56.6926 129.0405,66.0256 C145.3735,75.3586 183.3735,65.3586 205.0405,49.6926 C213.7075,43.6926 217.7075,28.3586 217.3735,25.6926 C212.7075,24.6926 206.3735,23.3586 204.0405,18.3586 C201.7075,13.3586 199.8735,7.1926 198.5405,0.5256" id="Stroke-1" stroke-width="3" sketch:type="MSShapeGroup"></path>
                <path d="M113.3738,45.6923 C106.3738,48.3593 98.7068,54.6923 94.0408,60.0253 C89.3738,65.3593 77.7068,68.6923 72.3738,71.6923 C67.0408,74.6923 49.0408,81.3593 44.7068,84.6923 C40.3738,88.0253 24.7068,100.3593 22.3738,105.6923 C20.0408,111.0253 0.7068,201.6923 0.7068,201.6923 C0.7068,201.6923 34.7068,219.0253 51.7068,222.3593 C68.7068,225.6923 73.7068,227.0253 76.7068,227.0253 C77.3738,222.3593 79.3738,214.0253 79.7068,212.6923" id="Stroke-3" stroke-width="3" sketch:type="MSShapeGroup"></path>
                <path d="M59.7072,159.359 C66.7072,176.359 75.0402,203.026 82.3742,222.026 C89.7072,241.026 96.7072,318.359 98.7072,327.026 C100.7072,335.692 95.3742,348.026 96.0402,360.026 C96.7072,372.026 88.7072,421.026 87.7072,434.692 C86.7072,448.359 85.3742,449.359 86.0402,455.692 C92.3742,460.359 113.7072,469.026 167.7072,466.359 C221.7072,463.692 313.3742,460.359 324.3742,453.692 C324.0402,443.359 309.3742,373.026 310.0402,360.359 C310.7072,347.692 306.3742,339.359 306.0402,335.359 C305.7072,331.359 303.7072,248.692 304.0402,229.359 C304.3742,210.026 290.7072,147.692 296.3742,134.692" id="Stroke-5" stroke-width="3" sketch:type="MSShapeGroup"></path>
                <path d="M217.3738,25.6923 C227.5408,25.5253 234.5408,31.5253 239.0408,31.5253 C243.5408,31.5253 255.5408,32.0253 262.5408,34.0253 C269.5408,36.0253 282.5408,43.0253 292.5408,45.0253 C302.5408,47.0253 313.0408,49.5253 318.5408,55.5253 C324.0408,61.5253 368.5408,138.0253 370.5408,148.0253 C362.5408,153.5253 361.0408,150.5253 355.5408,156.0253 C350.0408,161.5253 352.5408,164.5253 337.5408,169.0253 C322.5408,173.5253 304.0408,176.5253 298.0408,176.5253" id="Stroke-7" stroke-width="3" sketch:type="MSShapeGroup"></path>
                <path d="M24.5405,214.5257 C24.5405,227.0257 28.5405,272.0257 30.0405,283.0257 C28.5405,297.0257 23.5405,317.0257 23.5405,328.0257 C23.5405,339.0257 28.0405,391.5257 37.5405,426.5257 C47.0405,461.5257 48.0405,477.0257 48.5405,481.5257 C49.0405,486.0257 51.5405,494.5257 54.0405,496.5257 C56.5405,498.5257 71.0405,527.0257 75.5405,533.5257 C80.0405,540.0257 89.5405,554.5257 95.0405,559.0257 C100.5405,563.5257 106.5405,570.0257 112.0405,571.5257 C117.5405,573.0257 121.7075,575.6927 120.3735,567.6927 C115.0405,560.0257 109.0405,557.3587 109.0405,557.3587 C109.0405,557.3587 121.7075,562.0257 124.7075,563.3587 C127.7075,564.6927 136.7075,569.3587 139.3735,569.3587 C142.0405,569.3587 144.7075,568.3587 143.7075,564.3587 C142.7075,560.3587 140.0405,559.6927 140.0405,559.6927 L149.0405,562.6927 C149.0405,562.6927 158.0405,562.6927 151.7075,555.0257 C148.0405,551.6927 146.3735,552.0257 146.3735,552.0257 C146.3735,552.0257 149.7075,551.3587 149.0405,547.0257 C148.3735,542.6927 145.0405,540.6927 141.0405,538.3587 C137.0405,536.0257 111.3735,519.0257 105.0405,511.0257 C103.3735,507.0257 109.0405,497.0257 110.0405,493.6927 C111.0405,490.3587 126.7075,479.6927 126.3735,466.3587" id="Stroke-9" stroke-width="3" sketch:type="MSShapeGroup"></path>
                <path d="M119.7072,481.359 C119.7072,481.359 118.0402,476.359 105.0402,473.026 C92.0402,469.692 85.7072,471.692 82.3742,471.692 C79.0402,471.692 78.3742,469.026 77.0402,467.692 C75.7072,466.359 79.7072,434.026 78.7072,411.026 C77.7072,388.026 84.3742,339.692 76.0402,312.359 C67.7072,285.026 76.3742,227.026 76.3742,227.026" id="Stroke-11" stroke-width="3" sketch:type="MSShapeGroup"></path>
                <path d="M345.0405,167.859 C348.7075,186.192 352.7075,221.276 352.3735,237.942 C352.0405,254.609 362.0405,271.317 363.0405,277.984 C364.0405,284.651 371.7075,348.338 367.7075,395.005 C363.7075,441.671 364.0405,435.349 364.0405,435.349 C364.0405,435.349 366.3735,446.687 365.0405,452.354 C363.7075,458.02 363.0405,467.69 363.0405,470.023 C363.0405,472.356 365.3735,501.691 366.0405,506.024 C366.7075,510.358 366.7075,516.358 364.3735,520.358 C362.0405,524.358 362.0405,536.025 361.0405,537.692 C360.0405,539.359 354.7075,550.026 352.7075,550.692 C350.7075,551.359 347.0405,554.359 345.7075,554.692 C344.3735,555.026 340.3735,561.942 338.7075,562.276 C337.0405,562.609 331.3735,569.526 329.3735,569.526 L326.0405,569.526 C326.0405,569.526 322.7075,572.776 321.0405,573.442 C319.3735,574.109 314.3735,573.401 315.0405,567.734 C317.2905,562.651 317.2905,563.463 317.2905,563.463 C317.2905,563.463 315.7905,564.869 314.2905,564.869 C312.7905,564.869 309.0405,563.823 309.0405,561.823 C309.0405,559.823 309.5405,556.049 315.5405,549.549 C319.7905,542.549 321.7905,538.037 322.0405,537.037 C322.2905,536.037 323.2905,528.032 325.0405,523.782 C325.7905,519.282 325.5405,510.029 325.5405,510.029 C325.5405,510.029 322.2905,511.527 321.2905,510.277 C321.5405,512.277 319.2905,515.776 319.2905,518.276 C319.2905,520.776 318.5405,528.276 316.0405,531.526 C313.5405,534.776 311.7905,539.526 304.5405,540.276 C297.2905,541.026 301.2905,526.776 301.2905,525.276 C301.2905,523.776 305.0405,512.776 305.0405,509.276 C305.0405,505.776 304.5405,498.026 305.7905,495.026 C307.0405,492.026 309.0405,488.276 309.5405,487.026 C310.0405,485.776 312.5405,475.276 318.2905,467.776 C324.0405,460.276 330.2905,447.276 330.2905,436.776 C330.2905,426.276 317.2905,356.526 317.2905,356.526 C317.2905,356.526 308.0405,298.026 310.0405,272.026 C309.5405,261.526 304.5405,242.026 304.5405,242.026" id="Stroke-13" stroke-width="3" sketch:type="MSShapeGroup"></path>
                <path d="M86.0405,455.6923 L85.5405,471.5253" id="Stroke-15" stroke-width="3" sketch:type="MSShapeGroup"></path>
                <path d="M82.5405,545.5257 C82.5405,553.5257 86.5405,580.0257 86.5405,584.5257" id="Stroke-17" stroke-width="3" sketch:type="MSShapeGroup"></path>
                <path d="M199.0405,585.5257 C202.0405,576.5257 205.0405,562.0257 211.5405,558.5257 C218.0405,555.0257 252.0405,544.5257 264.0405,543.5257 C276.0405,542.5257 277.0405,547.0257 292.5405,547.0257" id="Stroke-19" stroke-width="3" sketch:type="MSShapeGroup"></path>
                <path d="M215.5405,559.0257 C217.0405,563.5257 217.5405,580.0257 218.0405,585.0257" id="Stroke-21" stroke-width="3" sketch:type="MSShapeGroup"></path>
                <path d="M337.5405,564.5257 C338.0405,574.5257 337.0405,585.5257 337.0405,585.5257" id="Stroke-23" stroke-width="3" sketch:type="MSShapeGroup"></path>
                <path d="M263.0405,409.0257 C249.0405,413.0257 177.0405,399.0257 137.0405,379.0257" id="Stroke-25" stroke-width="3" sketch:type="MSShapeGroup"></path>
                <path d="M85.2905,521.5257 C88.0405,524.7757 88.0405,525.2757 90.7905,525.5257" id="Stroke-27" stroke-width="2" sketch:type="MSShapeGroup"></path>
                <path d="M98.2905,528.7757 C102.7905,530.2757 113.7905,539.0257 115.7905,539.7757 C117.7905,540.5257 121.5405,541.2757 124.7905,542.5257 C128.0405,543.7757 143.9575,551.2757 146.3735,552.0257" id="Stroke-29" stroke-width="2" sketch:type="MSShapeGroup"></path>
                <path d="M92.5405,539.0257 C98.5405,541.7757 109.7905,549.5257 113.0405,550.5257 C116.2905,551.5257 137.7905,559.3587 140.0405,559.6927" id="Stroke-31" stroke-width="2" sketch:type="MSShapeGroup"></path>
                <path d="M81.7905,540.5257 C85.0405,542.5257 98.2905,549.2757 102.5405,552.2757 C106.7905,555.2757 109.0405,557.3587 109.0405,557.3587" id="Stroke-33" stroke-width="2" sketch:type="MSShapeGroup"></path>
                <path d="M347.0405,512.6923 C344.7075,516.0253 343.3735,518.0253 342.3735,521.3593 C341.3735,524.6923 337.7075,541.6923 336.3735,543.0253 C335.0405,544.3593 326.0405,555.0253 325.0405,556.3593 C324.0405,557.6923 317.2905,563.4633 317.2905,563.4633" id="Stroke-35" stroke-width="2" sketch:type="MSShapeGroup"></path>
                <path d="M356.3738,520.0257 C354.7068,524.0257 349.0408,537.3587 347.7068,541.6927 C346.3738,546.0257 345.7068,548.0257 342.7068,550.6927 C339.7068,553.3587 326.0408,569.5257 326.0408,569.5257" id="Stroke-37" stroke-width="2" sketch:type="MSShapeGroup"></path>
                <path d="M359.7072,524.0257 C358.0402,526.6927 355.7072,547.0257 352.7072,550.6927" id="Stroke-39" stroke-width="2" sketch:type="MSShapeGroup"></path>
                <path d="M194.3738,466.359 C195.0408,485.692 199.0408,527.026 202.3738,535.026 C205.7068,543.026 219.0408,554.359 219.0408,554.359 L218.3738,464.359" id="Stroke-41" stroke-width="2" sketch:type="MSShapeGroup"></path>
            </g>
        </g>
    </g>
</svg>