<?xml version="1.0" encoding="UTF-8" standalone="no"?>
<svg width="442px" height="604px" viewBox="0 0 442 604" version="1.1" xmlns="http://www.w3.org/2000/svg" xmlns:xlink="http://www.w3.org/1999/xlink" xmlns:sketch="http://www.bohemiancoding.com/sketch/ns">
    <!-- Generator: Sketch 3.4.4 (17249) - http://www.bohemiancoding.com/sketch -->
    <title>Regular Copy</title>
    <desc>Created with Sketch.</desc>
    <defs></defs>
    <g id="Page-1" stroke="none" stroke-width="1" fill="none" fill-rule="evenodd" sketch:type="MSPage">
        <g id="Regular-Copy" sketch:type="MSArtboardGroup" stroke="#000000">
            <g id="Page-1" sketch:type="MSLayerGroup" transform="translate(47.000000, 18.000000)">
                <path d="M103.496745,10.662116 C108.484226,25.5241365 105.679528,33.6011741 98.5092631,40.0633857 C98.5092631,40.0633857 99.133049,51.0492423 114.407855,60.0955631 C129.68266,69.141884 154.621004,64.9410102 174.884226,49.7562184 C182.989703,43.9405188 186.419122,26.8161911 186.106762,24.2320819 C181.743066,23.2627986 176.754649,22.2935154 174.572801,17.447099 C172.390953,12.6006826 172.390018,7.10872355 171.143381,0.646511945" id="Stroke-1" stroke-width="3" sketch:type="MSShapeGroup"></path>
                <path d="M98.508889,40.0636765 C91.9624101,42.6487549 84.4797848,50.7257925 80.116089,55.8949802 C75.751458,61.0651372 61.4492721,65.6130143 56.4617904,68.5208642 C51.4743087,71.428714 44.2675707,74.3123317 40.2143651,77.5429529 C36.1620946,80.7735741 23.0682017,92.082202 20.8863538,97.2513898 C18.7045059,102.420577 0.311705915,202.580496 0.311705915,202.580496 C0.311705915,202.580496 20.2625679,213.888154 36.1611594,217.119745 C52.059751,220.350366 62.0356496,219.703854 64.8412834,219.703854 C65.4650693,215.181178 65.1536439,201.933984 65.4650693,200.641929" id="Stroke-3" stroke-width="3" sketch:type="MSShapeGroup"></path>
                <path d="M50.1897025,151.854412 C56.7361814,168.332228 64.2178715,193.856365 69.2053532,213.24203 C74.3190885,233.116214 82.9585701,308.535177 84.4810941,315.986057 C86.2037532,324.419791 81.9878208,335.695463 82.6106715,347.326863 C83.2344575,358.958262 74.8166208,406.776883 73.8814096,420.023109 C72.9461983,433.270303 72.9471335,436.823696 73.5699842,442.962167 C79.4936124,447.485812 95.118187,453.649484 145.619595,451.064405 C196.121004,448.479327 277.757466,446.193757 288.04479,439.731545 C287.732429,429.715941 274.328981,363.158167 274.951832,350.880255 C275.575618,338.602344 274.017556,330.202535 273.705195,326.325402 C273.39377,322.448269 267.782503,242.6433 268.093928,223.904146 C268.406288,205.164992 256.559032,139.900242 261.858874,127.299559" id="Stroke-5" stroke-width="3" sketch:type="MSShapeGroup"></path>
                <path d="M184.860125,23.9090198 C194.368418,23.7471495 204.031956,30.0474908 208.240407,30.0474908 C212.448857,30.0474908 222.268576,29.4019481 228.815055,31.3405147 C235.361534,33.2790812 241.284226,39.7403235 250.636339,41.6788901 C259.988452,43.6174567 272.926165,46.8490471 278.069826,52.6647468 C283.213488,58.4804464 316.413488,140.223013 318.283911,149.915846 C310.802221,155.246904 309.710829,154.924132 304.567167,160.25519 C299.423505,165.586248 300.202536,162.354658 286.174367,166.716433 C272.146198,171.078208 269.029139,170.270795 263.417872,170.270795" id="Stroke-7" stroke-width="3" sketch:type="MSShapeGroup"></path>
                <path d="M15.5868856,210.657533 C15.5868856,222.773574 18.8601251,263.645342 20.262942,274.307458 C18.8601251,287.877424 17.7687335,309.847199 17.7687335,320.509315 C17.7687335,331.171431 21.3543335,379.959335 30.2388406,413.88425 C39.1233476,447.809165 33.7056687,461.403362 34.1732744,465.765137 C34.64088,470.126912 36.9789082,478.36582 39.3169363,480.304386 C41.6549645,482.242953 51.9039448,512.266502 56.1123955,518.566844 C60.3208462,524.867185 72.5169363,536.522816 77.6605983,540.884591 C82.8042603,545.246366 88.4155279,551.546707 93.5591899,553.000632 C98.7028518,554.454557 102.599877,557.039635 101.352305,549.285369 C96.3648237,541.853874 90.7535561,539.268796 90.7535561,539.268796 C90.7535561,539.268796 102.599877,543.792441 105.405511,545.084496 C108.211145,546.377519 116.628046,550.900195 119.121319,550.900195 C121.615528,550.900195 124.109736,549.930912 123.174525,546.053779 C122.239314,542.176646 119.745105,541.531103 119.745105,541.531103 L128.162007,544.438953 C128.162007,544.438953 136.578908,544.438953 130.656215,537.007458 C127.226795,533.776837 125.667798,534.099608 125.667798,534.099608 C125.667798,534.099608 128.785793,533.453096 128.162007,529.253192 C127.538221,525.053287 124.421162,523.114721 120.680317,520.852414 C116.939472,518.591076 92.9354039,502.11326 87.012711,494.358994 C85.4537138,490.481861 90.7535561,480.789028 91.6887673,477.558407 C92.6239786,474.326816 107.275934,463.988441 106.963573,451.064018" id="Stroke-9" stroke-width="3" sketch:type="MSShapeGroup"></path>
                <path d="M99.7558997,468.486885 C99.7558997,468.486885 96.9016349,464.80167 84.7925194,461.37913 C77.9346152,459.440564 68.9322715,456.234175 65.8152124,456.234175 C62.697218,456.234175 62.0743673,453.650066 60.8267955,452.357042 C59.5801589,451.064987 63.3210039,419.725151 62.3857927,397.431635 C61.4505814,375.13812 67.6856349,328.288782 59.8915842,301.795362 C52.0984687,275.301943 60.2039448,219.083513 60.2039448,219.083513" id="Stroke-11" stroke-width="3" sketch:type="MSShapeGroup"></path>
                <path d="M304.878873,160.577962 C308.308293,178.347832 313.919561,219.058699 313.6072,235.212774 C313.295775,251.367818 320.153679,270.752515 321.08889,277.214726 C322.024101,283.676938 330.129577,325.356119 326.388732,370.589661 C322.647887,415.822235 327.012518,425.515068 327.012518,425.515068 C327.012518,425.515068 329.505792,436.177184 328.259155,441.670112 C327.012518,447.162071 328.296563,452.354522 328.296563,454.615859 C328.296563,456.877197 330.478411,485.311122 331.102197,489.511027 C331.725983,493.7119 331.725983,499.5276 329.5432,503.404733 C327.361352,507.281866 327.361352,518.590494 326.426141,520.206289 C325.49093,521.822085 320.503448,532.161429 318.633025,532.806972 C316.762603,533.453484 313.333183,536.361334 312.086546,536.684105 C310.838975,537.007846 307.09813,543.711409 305.540068,544.035149 C303.98107,544.357921 298.681228,551.062453 296.810806,551.062453 L293.693746,551.062453 C293.693746,551.062453 290.576687,554.212624 289.01769,554.858167 C287.458693,555.504678 282.782637,554.818426 283.406423,549.325498 C285.510648,544.398631 285.510648,545.185689 285.510648,545.185689 C285.510648,545.185689 284.107831,546.548501 282.705014,546.548501 C281.302197,546.548501 277.795155,545.534631 277.795155,543.596064 C277.795155,541.657498 278.262761,537.999423 283.874028,531.699081 C287.848676,524.914098 289.719099,520.540692 289.952901,519.571409 C290.186704,518.602126 291.121915,510.843013 292.758535,506.723559 C293.184992,504.074508 293.266355,499.725334 293.263549,496.718617 C293.262614,495.256938 292.104823,494.024979 290.698265,494.110276 C290.680496,494.111245 290.662727,494.112214 290.644958,494.112214 C289.9024,494.147109 289.243076,494.63175 289.044811,495.374221 C288.543538,497.250754 287.38107,499.586726 287.38107,501.386685 C287.38107,503.809894 286.679662,511.079518 284.341634,514.229689 C282.003606,517.379859 280.366986,521.983955 273.586704,522.710917 C266.806423,523.43788 270.547268,509.625593 270.547268,508.171668 C270.547268,506.717743 274.05431,496.055627 274.05431,492.663136 C274.05431,489.270644 273.586704,481.758699 274.755718,478.850849 C275.924732,475.942999 277.795155,472.308187 278.262761,471.096583 C278.730366,469.884979 281.068394,459.707504 286.445859,452.43788 C291.823324,445.168255 297.668394,432.567573 297.668394,422.390098 C297.668394,412.212624 285.510648,344.605115 285.510648,344.605115 C285.510648,344.605115 276.859944,287.902044 278.730366,262.700678 C278.262761,252.523204 268.094208,216.796392 268.094208,216.796392" id="Stroke-13" stroke-width="3" sketch:type="MSShapeGroup"></path>
                <path d="M73.2581848,442.639395 L72.6343989,456.532132" id="Stroke-15" stroke-width="3" sketch:type="MSShapeGroup"></path>
                <path d="M73.2581848,536.982935 C73.8819707,546.675768 74.2308045,562.115481 74.1933961,565.738662" id="Stroke-17" stroke-width="3" sketch:type="MSShapeGroup"></path>
                <path d="M174.922383,566.570986 C177.728017,557.847436 180.533651,543.792829 186.612524,540.400337 C192.691397,537.007846 224.48858,526.830371 235.711115,525.861088 C246.933651,524.891805 247.868862,529.25358 262.364637,529.25358" id="Stroke-19" stroke-width="3" sketch:type="MSShapeGroup"></path>
                <path d="M190.353369,540.884979 C191.756186,545.246754 192.223792,561.239928 192.691397,566.086344" id="Stroke-21" stroke-width="3" sketch:type="MSShapeGroup"></path>
                <path d="M299.579312,549.583618 C300.207774,557.327222 300.94659,565.892778 300.825948,567.353488" id="Stroke-23" stroke-width="3" sketch:type="MSShapeGroup"></path>
                <path d="M287.733365,439.085324 C288.361826,446.828928 288.165432,449.256014 288.04479,450.716724" id="Stroke-25" stroke-width="3" sketch:type="MSShapeGroup"></path>
                <path d="M234.775904,395.492487 C221.682946,399.36962 154.347735,385.799655 116.939285,366.413989" id="Stroke-27" stroke-width="3" sketch:type="MSShapeGroup"></path>
                <path d="M68.5421014,504.536856 C71.1139324,507.687027 71.1139324,508.171668 73.6857634,508.413989" id="Stroke-29" stroke-width="2" sketch:type="MSShapeGroup"></path>
                <path d="M80.6998479,511.56416 C84.9082986,513.018085 95.1956225,521.499313 97.0660451,522.226276 C98.9364676,522.953238 102.44351,523.680201 105.482946,524.891805 C108.522383,526.103409 123.408141,533.373033 125.667611,534.099996" id="Stroke-31" stroke-width="2" sketch:type="MSShapeGroup"></path>
                <path d="M75.3223831,521.499313 C80.9336507,524.164842 91.4547775,531.676788 94.4942141,532.646071 C97.5336507,533.615354 117.640693,541.20775 119.744918,541.531491" id="Stroke-33" stroke-width="2" sketch:type="MSShapeGroup"></path>
                <path d="M69.8291392,524.705315 C72.8685758,526.643881 80.7000349,531.434079 84.6746828,534.341929 C88.6493307,537.249779 91.6504237,538.921792 91.6504237,538.921792" id="Stroke-35" stroke-width="2" sketch:type="MSShapeGroup"></path>
                <path d="M313.333651,495.974789 C311.151803,499.20541 309.904231,501.143977 308.96902,504.375567 C308.033808,507.606188 304.605324,524.084004 303.357752,525.376059 C302.111115,526.669083 293.694214,537.007458 292.759003,538.300482 C291.823792,539.592537 285.511115,545.18627 285.511115,545.18627" id="Stroke-37" stroke-width="2" sketch:type="MSShapeGroup"></path>
                <path d="M322.062258,503.082931 C320.503261,506.960064 315.204354,519.883518 313.956782,524.084392 C312.710145,528.284296 312.086359,530.222863 309.280726,532.807941 C306.475092,535.392051 293.694495,551.062453 293.694495,551.062453" id="Stroke-39" stroke-width="2" sketch:type="MSShapeGroup"></path>
                <path d="M325.179691,506.960064 C323.620694,509.545143 321.438846,529.25358 318.633212,532.807941" id="Stroke-41" stroke-width="2" sketch:type="MSShapeGroup"></path>
                <path d="M170.558033,451.064696 C171.181819,469.80385 174.922664,509.868205 178.039723,517.622471 C181.156782,525.376737 193.626889,536.361625 193.626889,536.361625 L193.003103,449.12613" id="Stroke-43" stroke-width="2" sketch:type="MSShapeGroup"></path>
            </g>
        </g>
    </g>
</svg>