<?xml version="1.0" encoding="UTF-8" standalone="no"?>
<svg width="94px" height="93px" viewBox="0 0 94 93" version="1.1" xmlns="http://www.w3.org/2000/svg" xmlns:xlink="http://www.w3.org/1999/xlink" xmlns:sketch="http://www.bohemiancoding.com/sketch/ns">
    <!-- Generator: Sketch 3.4.3 (16618) - http://www.bohemiancoding.com/sketch -->
    <title>email</title>
    <desc>Created with Sketch.</desc>
    <defs></defs>
    <g id="Page-1" stroke="none" stroke-width="1" fill="none" fill-rule="evenodd" sketch:type="MSPage">
        <g id="email" sketch:type="MSArtboardGroup" fill="#000000">
            <path d="M19.8814469,31.2152217 C21.4810022,32.0739993 43.638777,43.9788866 44.4647769,44.4213865 C45.2907768,44.8638865 46.3593322,45.0736642 47.4344432,45.0736642 C48.5095541,45.0736642 49.5781095,44.8638865 50.4041094,44.4213865 C51.2301093,43.9788866 73.3878841,32.0739993 74.9874394,31.2152217 C76.5902726,30.3531662 78.1046057,27 75.1644394,27 L19.7077247,27 C16.7675584,27 18.2818915,30.3531662 19.8814469,31.2152217 L19.8814469,31.2152217 Z M75.7314949,38.4361651 C73.9123285,39.3834428 51.5185537,51.0523301 50.4041094,51.6357745 C49.2896651,52.2192188 48.5095541,52.2880521 47.4344432,52.2880521 C46.3593322,52.2880521 45.5792212,52.2192188 44.4647769,51.6357745 C43.3503326,51.0523301 21.0843912,39.380165 19.2652247,38.4328873 C17.9868916,37.7642208 18.0000027,38.5476096 18.0000027,39.1507206 L18.0000027,63.0555507 C18.0000027,64.4322172 19.8552247,66.333328 21.27778,66.333328 L73.7222174,66.333328 C75.1447728,66.333328 76.9999947,64.4322172 76.9999947,63.0555507 L76.9999947,39.1539984 C76.9999947,38.5508873 77.0131058,37.7674985 75.7314949,38.4361651 L75.7314949,38.4361651 Z" id="Shape" sketch:type="MSShapeGroup"></path>
        </g>
    </g>
</svg>