<?xml version="1.0" encoding="UTF-8" standalone="no"?>
<svg width="18px" height="18px" viewBox="0 0 18 18" version="1.1" xmlns="http://www.w3.org/2000/svg" xmlns:xlink="http://www.w3.org/1999/xlink" xmlns:sketch="http://www.bohemiancoding.com/sketch/ns">
    <!-- Generator: Sketch 3.4.4 (17249) - http://www.bohemiancoding.com/sketch -->
    <title>Shape Copy</title>
    <desc>Created with Sketch.</desc>
    <defs></defs>
    <g id="Page-1" stroke="none" stroke-width="1" fill="none" fill-rule="evenodd" sketch:type="MSPage">
        <g id="Sign-in---Sign-up-Copy" sketch:type="MSArtboardGroup" transform="translate(-948.000000, -842.000000)" fill="#FFFFFF">
            <g id="google+" sketch:type="MSLayerGroup" transform="translate(497.000000, 743.000000)">
                <g id="Google_x2B_" sketch:type="MSShapeGroup">
                    <path d="M451.95,103.389 C451.95,104.883 452.449,105.961 453.432,106.594 C454.238,107.114 455.172,107.192 455.658,107.192 C455.776,107.192 455.871,107.186 455.937,107.182 C455.937,107.182 455.783,108.186 456.527,109.178 L456.493,109.178 C455.204,109.178 451,109.447 451,112.905 C451,116.421 454.861,116.6 455.636,116.6 C455.697,116.6 455.733,116.598 455.733,116.598 C455.741,116.598 455.796,116.6 455.891,116.6 C456.388,116.6 457.673,116.538 458.866,115.957 C460.414,115.207 461.199,113.898 461.199,112.072 C461.199,110.308 460.003,109.258 459.13,108.49 C458.597,108.021 458.136,107.617 458.136,107.224 C458.136,106.824 458.473,106.523 458.898,106.142 C459.587,105.527 460.237,104.65 460.237,102.992 C460.237,101.535 460.048,100.556 458.883,99.935 C459.004,99.873 459.434,99.828 459.646,99.798 C460.277,99.712 461.2,99.614 461.2,99.099 L461.2,99 L456.601,99 C456.555,99.002 451.95,99.172 451.95,103.389 L451.95,103.389 Z M459.374,112.402 C459.462,113.808 458.259,114.845 456.452,114.976 C454.617,115.111 453.107,114.285 453.019,112.88 C452.976,112.204 453.273,111.544 453.854,111.017 C454.443,110.484 455.252,110.154 456.132,110.089 C456.236,110.083 456.339,110.077 456.442,110.077 C458.141,110.078 459.291,111.076 459.374,112.402 L459.374,112.402 Z M458.173,102.426 C458.624,104.014 457.943,105.672 456.857,105.979 C456.732,106.014 456.604,106.031 456.473,106.031 C455.479,106.031 454.494,105.025 454.128,103.638 C453.924,102.862 453.941,102.18 454.175,101.526 C454.404,100.881 454.818,100.448 455.338,100.301 C455.463,100.266 455.592,100.248 455.723,100.248 C456.923,100.248 457.695,100.746 458.173,102.426 L458.173,102.426 Z M465.961,105.8 L465.961,102.8 L463.961,102.8 L463.961,105.8 L460.961,105.8 L460.961,107.8 L463.961,107.8 L463.961,110.8 L465.961,110.8 L465.961,107.8 L468.961,107.8 L468.961,105.8 L465.961,105.8 L465.961,105.8 Z" id="Shape-Copy"></path>
                </g>
            </g>
        </g>
    </g>
</svg>