<?xml version="1.0" encoding="UTF-8" standalone="no"?>
<svg width="94px" height="93px" viewBox="0 0 94 93" version="1.1" xmlns="http://www.w3.org/2000/svg" xmlns:xlink="http://www.w3.org/1999/xlink" xmlns:sketch="http://www.bohemiancoding.com/sketch/ns">
    <!-- Generator: Sketch 3.4.3 (16618) - http://www.bohemiancoding.com/sketch -->
    <title>Insta</title>
    <desc>Created with Sketch.</desc>
    <defs></defs>
    <g id="Page-1" stroke="none" stroke-width="1" fill="none" fill-rule="evenodd" sketch:type="MSPage">
        <g id="Insta" sketch:type="MSArtboardGroup" fill="#000000">
            <g id="instagram" sketch:type="MSLayerGroup" transform="translate(25.000000, 25.000000)">
                <g id="Instagram" sketch:type="MSShapeGroup">
                    <path d="M39.1111111,0 L4.88888889,0 C2.2,0 0,2.2 0,4.88888889 L0,39.1111111 C0,41.8024444 2.2,44 4.88888889,44 L39.1111111,44 C41.8,44 44,41.8024444 44,39.1111111 L44,4.88888889 C44,2.2 41.8,0 39.1111111,0 L39.1111111,0 Z M21.9608889,35.5006667 C29.4384444,35.5006667 35.4982222,29.436 35.4982222,21.9608889 C35.4982222,21.1346667 35.3931111,20.3377778 35.2464444,19.5555556 L39.1111111,19.5555556 L39.1111111,37.1946667 C39.1111111,38.1284444 38.3533333,38.8813333 37.4171111,38.8813333 L6.58288889,38.8813333 C5.64666667,38.8813333 4.88888889,38.1284444 4.88888889,37.1946667 L4.88888889,19.5555556 L8.67533333,19.5555556 C8.52622222,20.3377778 8.42111111,21.1346667 8.42111111,21.9608889 C8.42111111,29.4384444 14.4857778,35.5006667 21.9608889,35.5006667 L21.9608889,35.5006667 Z M13.5006667,21.9608889 C13.5006667,17.2871111 17.2895556,13.5006667 21.9633333,13.5006667 C26.6346667,13.5006667 30.426,17.2871111 30.426,21.9608889 C30.426,26.6346667 26.6346667,30.4235556 21.9633333,30.4235556 C17.2871111,30.4235556 13.5006667,26.6346667 13.5006667,21.9608889 L13.5006667,21.9608889 Z M37.4171111,12.2222222 L33.4693333,12.2222222 C32.5355556,12.2222222 31.7777778,11.4595556 31.7777778,10.5306667 L31.7777778,6.578 C31.7777778,5.64422222 32.5355556,4.88888889 33.4668889,4.88888889 L37.4146667,4.88888889 C38.3533333,4.88888889 39.1111111,5.64422222 39.1111111,6.578 L39.1111111,10.5282222 C39.1111111,11.4595556 38.3533333,12.2222222 37.4171111,12.2222222 L37.4171111,12.2222222 Z" id="Shape"></path>
                </g>
            </g>
        </g>
    </g>
</svg>