<?xml version="1.0" encoding="UTF-8" standalone="no"?>
<svg width="94px" height="93px" viewBox="0 0 94 93" version="1.1" xmlns="http://www.w3.org/2000/svg" xmlns:xlink="http://www.w3.org/1999/xlink" xmlns:sketch="http://www.bohemiancoding.com/sketch/ns">
    <!-- Generator: Sketch 3.4.3 (16618) - http://www.bohemiancoding.com/sketch -->
    <title>Pinterest</title>
    <desc>Created with Sketch.</desc>
    <defs></defs>
    <g id="Page-1" stroke="none" stroke-width="1" fill="none" fill-rule="evenodd" sketch:type="MSPage">
        <g id="Pinterest" sketch:type="MSArtboardGroup" fill="#000000">
            <g id="pinterest" sketch:type="MSLayerGroup" transform="translate(30.000000, 25.000000)">
                <g id="Pinterest" sketch:type="MSShapeGroup">
                    <path d="M14.4746875,29.0994 C13.3240625,35.1582 11.921875,40.9662 7.7634375,44 C6.4815625,34.8436 9.646875,27.9686 11.1190625,20.669 C8.61,16.423 11.4209375,7.8826 16.708125,9.988 C23.2159375,12.5752 11.073125,25.7664 19.22375,27.4164 C27.7353125,29.1346 31.2090625,12.5664 25.930625,7.1786 C18.3071875,-0.605 3.73625,6.996 5.53,18.139 C5.9653125,20.8626 8.763125,21.6876 6.6478125,25.4474 C1.7675,24.3606 0.310625,20.4886 0.49875,15.3274 C0.800625,6.8794 8.0434375,0.968 15.3103125,0.1474 C24.5,-0.8888 33.1253125,3.542 34.3175,12.2342 C35.6584375,22.0484 30.17,32.6788 20.3415625,31.9132 C17.6771875,31.7042 16.5615625,30.3754 14.4746875,29.0994 L14.4746875,29.0994 Z" id="Shape"></path>
                </g>
            </g>
        </g>
    </g>
</svg>