<?xml version="1.0" encoding="UTF-8" standalone="no"?>
<svg width="94px" height="93px" viewBox="0 0 94 93" version="1.1" xmlns="http://www.w3.org/2000/svg" xmlns:xlink="http://www.w3.org/1999/xlink" xmlns:sketch="http://www.bohemiancoding.com/sketch/ns">
    <!-- Generator: Sketch 3.4.3 (16618) - http://www.bohemiancoding.com/sketch -->
    <title>Twitter</title>
    <desc>Created with Sketch.</desc>
    <defs></defs>
    <g id="Page-1" stroke="none" stroke-width="1" fill="none" fill-rule="evenodd" sketch:type="MSPage">
        <g id="Twitter" sketch:type="MSArtboardGroup" fill="#000000">
            <g id="twitter" sketch:type="MSLayerGroup" transform="translate(24.000000, 28.000000)">
                <g id="Twitter" sketch:type="MSShapeGroup">
                    <path d="M40.6926,10.08425 C40.7114,10.469 40.71845,10.8585 40.71845,11.24325 C40.71845,23.0945 31.7955,36.7555 15.47945,36.7555 C10.4669,36.7555 5.80685,35.271125 1.88,32.725125 C2.5756,32.80825 3.2806,32.851 3.995,32.851 C8.1545,32.851 11.97795,31.4165 15.0118,29.015375 C11.13195,28.94175 7.8537,26.353 6.7257,22.7905 C7.2662,22.892625 7.82315,22.94725 8.3942,22.94725 C9.20495,22.94725 9.98985,22.840375 10.73245,22.636125 C6.674,21.809625 3.61665,18.18775 3.61665,13.8415 L3.61665,13.729875 C4.8128,14.402 6.18285,14.80575 7.63515,14.85325 C5.2546,13.243 3.68715,10.50225 3.68715,7.388625 C3.68715,5.7475 4.12425,4.206125 4.89035,2.880875 C9.2637,8.30775 15.80375,11.875 23.1757,12.25025 C23.0253,11.592375 22.94775,10.91075 22.94775,10.205375 C22.94775,5.255875 26.9169,1.2445 31.81665,1.2445 C34.36875,1.2445 36.6741,2.329875 38.29325,4.073125 C40.3119,3.669375 42.2107,2.923625 43.9262,1.897625 C43.2635,3.99 41.85585,5.7475 40.0252,6.856625 C41.8206,6.638125 43.5267,6.16075 45.12,5.445875 C43.9309,7.246125 42.4269,8.823125 40.6926,10.08425 L40.6926,10.08425 Z" id="Shape"></path>
                </g>
            </g>
        </g>
    </g>
</svg>